<?xml version="1.0" encoding="UTF-8" standalone="no"?>
<svg xmlns:dc="http://purl.org/dc/elements/1.1/" xmlns:cc="http://creativecommons.org/ns#"
   xmlns:rdf="http://www.w3.org/1999/02/22-rdf-syntax-ns#" xmlns:svg="http://www.w3.org/2000/svg"
   xmlns="http://www.w3.org/2000/svg" viewBox="100 180 650 200" id="svg82" height="595.27557" width="841.88977"
   version="1.1">
   <metadata id="metadata88">
      <rdf:RDF>
         <cc:Work rdf:about="">
            <dc:format>image/svg+xml</dc:format>
            <dc:type rdf:resource="http://purl.org/dc/dcmitype/StillImage" />
         </cc:Work>
      </rdf:RDF>
   </metadata>
   <defs id="defs86" />
   <g id="Layer1000">
      <path id="path2" style="fill:#ffffff"
         d="m 404.5031,263.1829 c 0,-8.1425 0,-8.1425 0,-8.1425 4.0709,0 4.0709,0 4.0709,0 -1.2213,1.2213 -2.4427,2.0358 -3.2568,2.8499 2.0355,1.6286 3.2568,2.8499 3.664,3.2568 0.4073,0.8144 0.8141,1.2213 1.2214,2.0358 z m -19.9485,6.1066 c 5.2925,0 5.2925,0 5.2925,0 22.3909,0 22.3909,0 22.3909,0 5.2926,0 5.2926,0 5.2926,0 0,-6.5139 0,-6.5139 0,-6.5139 -4.4781,0.4073 -4.4781,0.4073 -4.4781,0.4073 1.2213,-1.2214 2.0354,-2.4427 2.8495,-3.2572 -1.6282,-1.2213 -1.6282,-1.2213 -1.6282,-1.2213 -2.0358,-2.0354 -2.0358,-2.0354 -2.0358,-2.0354 0,-0.4073 -0.4069,-0.8141 -1.2213,-1.6286 4.4784,0 4.4784,0 4.4784,0 0,-6.5135 0,-6.5135 0,-6.5135 -3.664,0.4068 -3.664,0.4068 -3.664,0.4068 -7.328,0 -7.328,0 -7.328,0 0,-6.1066 0,-6.1066 0,-6.1066 7.7349,0 7.7349,0 7.7349,0 4.8853,0.4072 4.8853,0.4072 4.8853,0.4072 0,-6.9208 0,-6.9208 0,-6.9208 -5.2922,0.4069 -5.2922,0.4069 -5.2922,0.4069 -21.5771,0 -21.5771,0 -21.5771,0 -4.8853,-0.4069 -4.8853,-0.4069 -4.8853,-0.4069 0,6.9208 0,6.9208 0,6.9208 4.8853,-0.4072 4.8853,-0.4072 4.8853,-0.4072 7.328,0 7.328,0 7.328,0 0,6.1066 0,6.1066 0,6.1066 -5.6994,0 -5.6994,0 -5.6994,0 -4.8854,-0.4068 -4.8854,-0.4068 -4.8854,-0.4068 0,6.5135 0,6.5135 0,6.5135 4.8854,0 4.8854,0 4.8854,0 5.6994,0 5.6994,0 5.6994,0 0,8.1425 0,8.1425 0,8.1425 -7.7349,0 -7.7349,0 -7.7349,0 -5.2925,-0.4073 -5.2925,-0.4073 -5.2925,-0.4073 z m -7.7353,-36.2331 c 0,39.8971 0,39.8971 0,39.8971 0,6.9208 0,6.9208 0,6.9208 6.9212,0 6.9212,0 6.9212,0 0,-0.8141 0,-0.8141 0,-0.8141 34.6042,0 34.6042,0 34.6042,0 0,1.2213 0,1.2213 0,1.2213 7.328,0 7.328,0 7.328,0 -0.4069,-6.9211 -0.4069,-6.9211 -0.4069,-6.9211 0,-40.304 0,-40.304 0,-40.304 0.4069,-6.5135 0.4069,-6.5135 0.4069,-6.5135 -5.6995,0 -5.6995,0 -5.6995,0 -37.4541,0 -37.4541,0 -37.4541,0 -5.6998,0 -5.6998,0 -5.6998,0 z m 6.9212,0 c 34.6042,0 34.6042,0 34.6042,0 0,39.4899 0,39.4899 0,39.4899 -34.6042,0 -34.6042,0 -34.6042,0 z" />
      <path id="path4" style="fill:#ffffff"
         d="m 448.4711,267.2537 c 4.0709,-2.4426 7.328,-4.4781 9.7707,-6.5135 0,-0.4072 -0.4072,-0.8145 -0.4072,-1.2213 -3.2568,2.0354 -6.1067,3.664 -8.5494,4.8853 -2.4426,1.6282 -6.1066,2.8495 -10.992,4.4781 -0.4072,-0.8141 -0.8141,-1.6286 -1.2213,-2.4427 -0.4072,-0.4072 -1.2213,-2.0354 -2.4427,-3.664 2.4427,-0.4072 4.4781,-0.8141 6.1067,-1.6285 1.6286,-0.4069 3.664,-1.2214 6.1067,-2.4427 2.4426,-1.2213 4.8853,-2.4427 7.328,-4.0709 -0.8141,-0.4072 -0.8141,-0.4072 -0.8141,-0.4072 -2.8499,1.2213 -4.8854,1.6286 -6.5139,2.4427 -1.2214,0.4072 -3.664,0.8141 -7.328,2.0354 0,-0.8141 -0.4073,-1.6282 -0.8141,-2.4427 -0.4073,-0.8141 -1.2214,-2.0354 -2.4427,-4.0708 1.6282,-0.4073 4.0709,-0.8145 7.328,-1.2214 3.2568,-0.4072 7.328,-2.0358 12.2133,-4.4784 -8.5493,0 -8.5493,0 -8.5493,0 -4.8853,0 -4.8853,0 -4.8853,0 0,-6.5136 0,-6.5136 0,-6.5136 4.8853,0 4.8853,0 4.8853,0 24.0194,0 24.0194,0 24.0194,0 5.2926,0 5.2926,0 5.2926,0 0,6.5136 0,6.5136 0,6.5136 -5.2926,0 -5.2926,0 -5.2926,0 -8.5493,0 -8.5493,0 -8.5493,0 0.8141,0.4072 1.6286,1.2213 2.4427,1.6285 -2.0354,1.2214 -4.0713,2.4427 -6.1067,3.664 2.0354,1.2214 2.8499,2.0355 3.2568,2.8499 1.2213,1.6282 1.2213,1.6282 1.2213,1.6282 4.4785,-3.2567 6.9212,-5.2922 7.7352,-6.1066 2.85,-2.8496 2.85,-2.8496 2.85,-2.8496 0.4068,0.8141 1.2213,1.2214 1.6281,2.0355 0.4073,0.4072 2.0359,1.6285 4.0713,3.2567 -2.4427,1.6286 -4.8854,3.2572 -6.9208,4.8854 0.4069,1.2213 1.2214,2.8499 2.0354,5.2925 0.8141,2.4427 2.4427,4.4781 4.8854,6.9208 2.4426,2.0358 4.8853,3.664 7.7352,4.8853 -0.8145,1.2214 -1.6286,2.0358 -2.0358,2.8499 -0.8141,0.8141 -1.6282,2.0355 -2.8495,3.664 -3.664,-2.4426 -6.1067,-4.4781 -8.1425,-6.5139 -1.6282,-1.6282 -2.8495,-3.664 -4.0708,-5.6994 -0.8145,-2.4427 -2.0359,-4.8853 -2.85,-8.1421 -2.0354,1.2213 -2.0354,1.2213 -2.0354,1.2213 0,1.2214 0,2.0355 0,2.8496 0.4069,0.8144 0.4069,2.4426 0.4069,4.8853 0,2.4427 -0.4069,4.4785 -0.4069,6.1067 -0.4072,1.6285 -1.2213,2.8499 -2.4426,4.0712 -1.2214,1.2213 -4.0713,1.6286 -8.5494,2.0354 -0.4072,-2.8495 -0.8145,-4.4781 -1.2213,-4.8853 -1.2214,-2.8495 -1.2214,-2.8495 -1.2214,-2.8495 3.2568,0.4068 4.8854,0.4068 5.6995,0 0.8141,-0.4073 1.2213,-1.6286 1.2213,-2.4427 0.4073,-1.2213 0.4073,-2.4427 0.4073,-2.8499 0,-0.8141 0,-0.8141 0,-0.8141 -2.0359,1.2213 -4.8854,2.8495 -7.7353,4.4781 -3.2568,2.0354 -5.6994,3.2568 -8.1421,4.0712 -7.328,2.8496 -7.328,2.8496 -7.328,2.8496 -0.8145,-2.0355 -1.6286,-3.2568 -2.0358,-4.0709 -1.6282,-2.4427 -1.6282,-2.4427 -1.6282,-2.4427 6.1067,-1.2213 11.3989,-3.2571 15.8773,-5.6998 z m -14.656,-23.6122 c 0,-3.2571 0,-3.2571 0,-3.2571 0,-6.5135 0,-6.5135 0,-6.5135 0,-4.4785 0,-4.4785 0,-4.4785 6.5136,0.4072 6.5136,0.4072 6.5136,0.4072 15.0632,0 15.0632,0 15.0632,0 -0.4072,-0.8141 -1.6286,-2.0354 -2.8499,-2.8499 0.8145,-0.4068 1.6286,-0.8141 2.0358,-1.2213 0.8141,-0.4069 2.0354,-1.2213 4.0709,-2.4427 2.4426,2.4427 4.4785,4.0713 5.6998,5.2926 -0.8145,0.4072 -1.2213,0.8141 -1.6286,1.2213 16.2846,0 16.2846,0 16.2846,0 6.1067,-0.4072 6.1067,-0.4072 6.1067,-0.4072 0,4.4785 0,4.4785 0,4.4785 0,6.5135 0,6.5135 0,6.5135 0,3.664 0,3.664 0,3.664 -7.328,0 -7.328,0 -7.328,0 0.4068,-3.664 0.4068,-3.664 0.4068,-3.664 0,-4.0709 0,-4.0709 0,-4.0709 -37.0469,0 -37.0469,0 -37.0469,0 0,4.0709 0,4.0709 0,4.0709 0,3.2571 0,3.2571 0,3.2571 z" />
      <path id="path6" style="fill:#ffffff"
         d="m 501.3953,238.7562 c 10.992,0 10.992,0 10.992,0 0,6.9208 0,6.9208 0,6.9208 -10.992,0 -10.992,0 -10.992,0 z m -6.9207,-1.6286 c 0,23.2054 0,23.2054 0,23.2054 0,6.5139 0,6.5139 0,6.5139 6.9207,0 6.9207,0 6.9207,0 0,-1.2214 0,-1.2214 0,-1.2214 10.992,0 10.992,0 10.992,0 0,8.9562 0,8.9562 0,8.9562 0,1.2214 0,2.4427 0.4073,3.2572 0.4072,0.8141 0.8141,1.6282 2.0354,2.4426 1.2213,0.4069 2.8499,0.8141 4.8853,0.8141 2.4427,0 5.2926,0 8.5494,0.4073 3.664,0 6.5139,0 8.1425,0 2.0354,-0.4073 3.2567,-0.4073 4.0708,-0.8145 0.8145,-0.4069 1.6286,-1.2213 2.4427,-2.0354 0.8145,-0.8141 1.6286,-3.2568 2.8499,-7.328 -2.0354,-0.8141 -4.0713,-2.0355 -6.9208,-3.664 -0.4072,2.4426 -0.4072,2.4426 -0.4072,2.4426 0,1.6286 -0.4073,2.4427 -1.2213,3.2568 -0.8141,0.4072 -1.6286,0.8145 -2.85,1.2213 -1.2213,0 -3.2567,0 -5.6994,0 -6.5139,-0.4068 -6.5139,-0.4068 -6.5139,-0.4068 -1.2213,0 -2.0354,0 -2.4427,-0.4073 0,-0.4072 -0.4068,-1.2213 -0.4068,-1.6285 0,-6.5136 0,-6.5136 0,-6.5136 12.6202,0 12.6202,0 12.6202,0 0,1.2214 0,1.2214 0,1.2214 6.9211,0 6.9211,0 6.9211,0 0,-6.1067 0,-6.1067 0,-6.1067 0,-23.6126 0,-23.6126 0,-23.6126 0,-5.2925 0,-5.2925 0,-5.2925 -4.4785,0 -4.4785,0 -4.4785,0 -15.0628,0 -15.0628,0 -15.0628,0 0,-3.2568 0,-3.2568 0,-3.2568 0,-4.8853 0,-4.8853 0,-4.8853 -6.9212,0 -6.9212,0 -6.9212,0 0,4.8853 0,4.8853 0,4.8853 0,3.2568 0,3.2568 0,3.2568 -12.6201,0 -12.6201,0 -12.6201,0 -5.2926,0 -5.2926,0 -5.2926,0 z m 6.9207,15.0633 c 10.992,0 10.992,0 10.992,0 0,6.9207 0,6.9207 0,6.9207 -10.992,0 -10.992,0 -10.992,0 z m 17.9132,-13.4347 c 12.6202,0 12.6202,0 12.6202,0 0,6.9208 0,6.9208 0,6.9208 -12.6202,0 -12.6202,0 -12.6202,0 z m 0,13.4347 c 12.6202,0 12.6202,0 12.6202,0 0,6.9207 0,6.9207 0,6.9207 -12.6202,0 -12.6202,0 -12.6202,0 z" />
      <path id="path8" style="fill:#ffffff"
         d="m 560.4266,244.0484 c 1.6286,2.0358 1.6286,2.0358 1.6286,2.0358 0.4068,0.8141 1.6282,2.8495 4.0708,6.5135 -0.8141,2.4427 -1.6282,4.4785 -2.4426,5.6998 -0.8141,1.6282 -2.0355,2.8496 -3.2568,4.4781 z m 0.4072,35.0118 c -0.4072,-7.7352 -0.4072,-7.7352 -0.4072,-7.7352 0,-7.7353 0,-7.7353 0,-7.7353 1.6286,1.6286 2.4427,2.8499 3.2568,3.2572 0.4072,0.8141 0.8144,1.6282 1.2213,2.0354 2.0358,-2.8499 3.2571,-4.8853 4.0712,-5.6994 0.4073,-1.2214 0.8141,-2.0358 1.2214,-2.8499 0.8141,1.6285 0.8141,1.6285 0.8141,1.6285 0,0.4069 0.4072,1.2214 0.4072,2.4427 1.6286,-1.2213 1.6286,-1.2213 1.6286,-1.2213 0.8141,-0.8145 2.0354,-1.6286 4.4781,-2.8499 -1.6286,-3.2568 -3.2568,-5.6995 -4.4781,-8.5494 0.4068,-2.0354 0.4068,-2.0354 0.4068,-2.0354 0.4073,-0.8145 0.8145,-2.4427 1.2214,-4.8853 2.0358,2.4426 2.8499,4.0708 3.664,4.4781 0.4072,0.8141 1.2213,2.4426 2.0358,4.4781 -0.8145,2.8499 -0.8145,2.8499 -0.8145,2.8499 -0.4069,1.6285 -1.2213,3.2567 -2.4427,5.2925 -1.2213,1.6282 -2.4426,3.664 -4.4781,5.2922 2.0355,1.2214 3.2568,2.0358 3.664,2.8499 0.8141,0.4073 1.2214,0.8141 2.0355,1.6286 1.2213,-1.2213 2.0358,-2.4427 2.4426,-3.2571 0.8145,-1.2214 2.0358,-3.2568 4.0713,-6.9208 1.6285,3.2568 1.6285,3.2568 1.6285,3.2568 0,0.4072 0.4069,1.2213 1.2214,2.8499 1.6282,-2.0355 3.664,-3.664 5.2922,-4.8854 -1.2214,-2.0354 -1.2214,-2.0354 -1.2214,-2.0354 0,-0.4072 -1.2213,-2.8499 -4.0708,-7.7352 0.8141,-3.664 0.8141,-3.664 0.8141,-3.664 0.4072,-1.6286 0.8141,-3.664 0.8141,-5.6995 0.8144,-3.664 0.8144,-3.664 0.8144,-3.664 0,-0.4072 0,-1.2213 0,-2.0358 -2.0358,0 -4.4784,-0.4068 -6.9211,-0.8141 0,1.6286 0,1.6286 0,1.6286 0,1.2213 -0.4069,3.2568 -0.8141,6.1067 -0.8141,-1.2214 -1.6286,-2.8499 -2.4427,-3.664 -1.2213,0.8141 -1.2213,0.8141 -1.2213,0.8141 -0.8141,0.8141 -2.0354,1.6285 -4.0712,2.4426 0.8144,-3.2567 0.8144,-3.2567 0.8144,-3.2567 0,0 0,-0.4073 0.4069,-1.6286 0,-0.8141 0,-1.6286 0.4072,-2.4427 -2.8499,0 -5.2925,-0.4072 -7.328,-1.2213 0,2.4427 0,2.4427 0,2.4427 0,1.2213 0,2.0354 -0.4072,2.8499 0,1.2213 0,2.0354 -0.4069,3.2567 -1.2213,-1.6285 -2.0358,-3.2567 -2.8499,-4.8853 -1.6285,1.6286 -2.4426,2.0354 -3.2567,2.4427 -0.4073,0.4072 -0.8145,0.8141 -1.6286,0.8141 0,-8.1421 0,-8.1421 0,-8.1421 32.5688,0 32.5688,0 32.5688,0 0,35.8259 0,35.8259 0,35.8259 0,0.4068 0,1.2213 -0.4069,1.6282 0,0.4072 -1.2213,0.4072 -2.4427,0.4072 -1.2213,0 -2.4426,0 -3.664,-0.4072 0.8141,2.0358 0.8141,2.0358 0.8141,2.0358 0.8141,2.0354 1.2214,3.2567 1.2214,4.0708 0,1.2214 0.4072,2.0358 0.4072,2.4427 3.664,-0.4069 6.1067,-0.8141 7.7349,-1.2213 1.6285,-0.8141 2.8499,-1.6282 2.8499,-2.4427 0.4072,-1.2213 0.4072,-2.4427 0.4072,-3.664 0,-38.6754 0,-38.6754 0,-38.6754 0.4069,-7.328 0.4069,-7.328 0.4069,-7.328 -6.9208,0.4072 -6.9208,0.4072 -6.9208,0.4072 -33.3832,0 -33.3832,0 -33.3832,0 -6.9208,-0.4072 -6.9208,-0.4072 -6.9208,-0.4072 0,7.328 0,7.328 0,7.328 0,36.64 0,36.64 0,36.64 0,7.7352 0,7.7352 0,7.7352 z" />
      <path id="path10" style="fill:#ffffff"
         d="m 612.9439,255.8549 c -1.6285,-2.4427 -3.2567,-4.4785 -4.0712,-5.2926 -1.2213,-1.2213 -1.2213,-1.2213 -1.2213,-1.2213 2.0358,-0.8141 4.4784,-2.8499 6.9211,-4.8854 2.4427,-2.4426 4.4781,-5.2925 6.5135,-7.7352 2.0358,-2.8495 3.2572,-5.6994 4.4785,-8.5493 0.4069,-1.6282 0.4069,-1.6282 0.4069,-1.6282 2.4426,1.2213 4.8853,2.4426 7.328,3.2567 -2.0355,4.0713 -4.0709,6.9208 -5.6995,9.7707 -1.2213,2.4427 -3.664,5.2926 -6.5139,8.5493 -2.8495,2.8499 -5.2922,5.6995 -8.1421,7.7353 z m 5.2926,11.8061 c 0.8141,-0.8141 2.0354,-2.0355 3.2568,-3.664 1.6285,-1.6286 2.8499,-3.2568 4.4781,-5.2926 1.2213,-2.0354 2.4426,-4.0709 3.664,-6.5135 1.2213,-2.4427 1.6285,-4.0713 2.0358,-4.8854 0.4068,-1.2213 0.4068,-1.2213 0.4068,-1.2213 2.4427,1.6282 4.8854,3.2568 7.7353,4.4781 -0.8141,1.2213 -1.6286,2.0354 -2.0355,2.4427 -2.8499,4.4781 -2.8499,4.4781 -2.8499,4.4781 -1.2213,2.0358 -2.8499,4.0712 -4.0712,5.6998 -1.6282,2.0354 -3.664,4.0708 -6.1067,6.5135 7.328,0 14.656,-0.4069 21.5772,-0.8141 -1.6286,-2.4427 -2.8499,-4.4781 -3.2572,-5.2926 -2.4426,-2.8495 -2.4426,-2.8495 -2.4426,-2.8495 2.8499,-1.2213 4.4784,-2.0358 5.2925,-2.8499 1.2214,-0.8141 1.2214,-0.8141 1.2214,-0.8141 5.2926,7.328 9.3634,13.4347 12.2133,18.32 -3.2567,2.4427 -4.8853,3.664 -4.8853,3.664 -1.6286,1.6282 -1.6286,1.6282 -1.6286,1.6282 -0.4068,-0.8141 -0.8141,-1.6282 -0.8141,-2.0354 -0.4072,-0.8141 -1.2213,-2.0355 -2.0354,-3.664 -3.664,0 -8.9566,0.4072 -15.4705,1.2213 -6.5135,0.4072 -10.5848,0.8141 -12.2133,1.2213 -1.6282,0 -3.2568,0.4073 -5.2922,0.8141 -0.8145,-2.8495 -1.6286,-4.8853 -2.0358,-5.6994 -1.2214,-2.0354 -1.2214,-2.0354 -1.2214,-2.0354 2.0358,-1.2214 3.664,-2.0358 4.4785,-2.8499 z m 19.9482,-42.3395 c 2.4427,0.4069 4.8853,0.4069 7.7352,0.4069 0,0.8145 0,1.6286 0,2.4427 0,0.8144 0,1.6285 0.4073,2.4426 0,1.2214 0.4068,2.8499 1.2213,5.2926 1.2213,2.4427 2.4427,4.4781 4.0709,6.1067 1.6285,1.6285 2.8499,2.8499 4.0712,3.664 1.2213,0.8141 2.0354,1.2213 2.8499,1.6285 0.8141,0.4069 2.4427,1.2214 4.4781,1.6282 -0.4072,0.8145 -0.8141,1.2214 -1.6286,2.0358 -0.4068,0.8141 -1.2213,2.8496 -2.8495,5.6995 -2.8499,-1.2214 -5.6998,-3.2568 -8.1425,-5.2926 -2.4426,-2.0354 -4.4781,-4.4781 -5.6994,-6.5135 -1.6286,-2.0358 -2.8499,-4.4785 -3.664,-6.5139 -0.8141,-2.0355 -1.2213,-4.0713 -1.6286,-5.2926 -0.4068,-1.6282 -0.8141,-4.0709 -1.2213,-7.7349 z" />
      <path id="path12" style="fill:#ffffff"
         d="m 681.3386,264.8111 c 0,-7.7349 0,-7.7349 0,-7.7349 15.0633,0 15.0633,0 15.0633,0 0,7.7349 0,7.7349 0,7.7349 z m 19.1341,-25.648 c -24.4267,0 -24.4267,0 -24.4267,0 -6.5135,0 -6.5135,0 -6.5135,0 0,6.9211 0,6.9211 0,6.9211 6.5135,0 6.5135,0 6.5135,0 24.4267,0 24.4267,0 24.4267,0 6.9212,0 6.9212,0 6.9212,0 0,-6.9211 0,-6.9211 0,-6.9211 z m -21.984,-5.6995 c 32.976,0 32.976,0 32.976,0 0,37.0473 0,37.0473 0,37.0473 0,1.2213 0,2.0354 -0.4068,2.4426 -0.4073,0.4069 -0.8145,0.4069 -2.0359,0.4069 -0.4068,0 -1.2213,0 -2.4426,0 -0.8141,0 -1.6282,0 -2.8495,0 1.2213,2.0358 1.2213,2.0358 1.2213,2.0358 0.4068,1.2213 0.8141,2.4427 0.8141,3.2568 0.4072,1.2213 0.4072,2.0354 0.4072,2.8499 4.8854,-0.4073 7.7349,-0.8145 9.3635,-1.6286 1.2213,-0.8141 2.0354,-1.6286 2.4426,-2.0354 0.4073,-0.8145 0.4073,-2.0358 0.4073,-3.664 0,-41.1185 0,-41.1185 0,-41.1185 0.4068,-6.5135 0.4068,-6.5135 0.4068,-6.5135 -6.5135,0.4068 -6.5135,0.4068 -6.5135,0.4068 -33.7905,0 -33.7905,0 -33.7905,0 -7.328,-0.4068 -7.328,-0.4068 -7.328,-0.4068 0,7.328 0,7.328 0,7.328 z m -4.0708,21.984 c 0,10.5848 0,10.5848 0,10.5848 0,5.6998 0,5.6998 0,5.6998 5.6994,0 5.6994,0 5.6994,0 17.0986,0 17.0986,0 17.0986,0 6.514,0 6.514,0 6.514,0 -0.4073,-5.6998 -0.4073,-5.6998 -0.4073,-5.6998 0,-10.5848 0,-10.5848 0,-10.5848 0.4073,-5.2925 0.4073,-5.2925 0.4073,-5.2925 -6.514,0 -6.514,0 -6.514,0 -17.0986,0 -17.0986,0 -17.0986,0 -5.6994,0 -5.6994,0 -5.6994,0 z" />
      <path id="path14" style="fill:#ffffff"
         d="m 404.0959,293.7162 c 0.8141,-2.8499 0.8141,-2.8499 0.8141,-2.8499 4.0712,0 4.0712,0 4.0712,0 4.0713,14.2488 4.0713,14.2488 4.0713,14.2488 -4.8854,1.6285 -4.8854,1.6285 -4.8854,1.6285 -1.6285,-2.8499 -3.664,-5.2925 -6.1066,-7.328 -2.4427,-1.6285 -4.8854,-2.4426 -7.7353,-2.4426 -2.0354,0 -3.664,0.4072 -4.8853,1.2213 -1.2213,0.8141 -2.0354,2.0354 -2.0354,3.664 0,2.4427 4.0708,4.4781 11.3988,6.5139 1.2214,0 2.0358,0.4069 2.4427,0.4069 5.6998,1.6285 9.3638,3.2571 11.3992,5.2925 2.0355,2.4427 3.2568,5.2926 3.2568,8.9566 0,5.2922 -1.6282,9.3634 -4.8853,12.2134 -2.8496,3.2567 -7.328,4.478 -12.2134,4.478 -2.4426,0 -4.4781,0 -6.5135,-0.814 -2.4427,-0.4073 -4.4785,-1.2214 -6.1067,-2.4427 -0.8144,2.8495 -0.8144,2.8495 -0.8144,2.8495 -4.0709,0 -4.0709,0 -4.0709,0 -5.2926,-17.5055 -5.2926,-17.5055 -5.2926,-17.5055 4.8854,-2.0358 4.8854,-2.0358 4.8854,-2.0358 2.0354,4.4785 4.4781,7.7352 7.7352,9.7706 2.8495,2.4427 5.6994,3.664 8.9562,3.664 2.4427,0 4.4785,-0.8141 6.1067,-2.0354 1.6285,-1.2213 2.0358,-2.4427 2.0358,-4.0712 0,-2.8495 -3.2572,-4.8854 -9.7707,-6.5135 -0.8145,-0.4073 -1.6286,-0.4073 -2.0358,-0.4073 -3.2568,-0.8141 -5.6994,-1.6286 -7.7349,-2.4427 -1.6285,-0.814 -3.2571,-1.2213 -3.664,-1.6285 -2.0358,-1.2214 -3.2571,-2.8495 -4.0712,-4.8854 -0.8141,-1.6282 -1.2213,-3.664 -1.2213,-5.6994 0,-4.4781 1.6285,-8.1421 4.4781,-10.992 3.2571,-2.8499 6.9211,-4.4781 11.8064,-4.4781 1.6282,0 3.664,0.4069 5.2922,0.8141 1.6286,0.8141 3.664,1.6286 5.2926,2.8499 z" />
      <path id="path16" style="fill:#ffffff"
         d="m 418.3447,300.2297 c 30.5333,0 30.5333,0 30.5333,0 4.0712,11.8065 4.0712,11.8065 4.0712,11.8065 -3.664,1.6282 -3.664,1.6282 -3.664,1.6282 -1.2213,-3.2568 -2.8499,-5.2922 -4.4781,-6.5135 -1.6285,-1.2214 -3.2571,-1.6286 -5.6998,-1.6286 -0.8141,0 -0.8141,0 -0.8141,0 0,21.5768 0,21.5768 0,21.5768 0,2.8499 0.4073,4.8853 1.2214,5.6998 0.4072,0.8141 1.6285,1.2213 3.2567,1.2213 0,4.8854 0,4.8854 0,4.8854 -18.32,0 -18.32,0 -18.32,0 0,-4.8854 0,-4.8854 0,-4.8854 1.6286,0 2.8499,-0.4072 3.664,-1.2213 0.4073,-0.8145 0.8145,-2.8499 0.8145,-5.6998 0,-21.5768 0,-21.5768 0,-21.5768 -0.4072,0 -0.4072,0 -0.4072,0 -2.4427,0 -4.4781,0.4072 -6.1067,1.6286 -1.6286,1.2213 -3.2568,3.2567 -4.4781,6.5135 -3.664,-1.6282 -3.664,-1.6282 -3.664,-1.6282 z" />
      <path id="path18" style="fill:#ffffff"
         d="m 469.2338,320.1783 c -7.328,0 -7.328,0 -7.328,0 3.664,-10.992 3.664,-10.992 3.664,-10.992 z m -16.2846,7.328 c 0,0 0,0.4073 -0.4072,0.8141 -1.2213,3.2572 -3.2568,5.2926 -5.6994,5.6998 0,4.8854 0,4.8854 0,4.8854 15.4701,0 15.4701,0 15.4701,0 0,-4.8854 0,-4.8854 0,-4.8854 -1.6282,0 -2.8495,0 -3.2568,-0.4072 -0.8141,-0.4073 -0.8141,-1.2214 -0.8141,-2.0354 0,-0.4073 0,-0.4073 0,-0.8145 0,0 0,-0.4069 0,-0.4069 1.6282,-5.2926 1.6282,-5.2926 1.6282,-5.2926 10.992,0 10.992,0 10.992,0 2.0358,5.2926 2.0358,5.2926 2.0358,5.2926 0,0 0.4069,0.4069 0.4069,0.8141 0,0 0,0.4073 0,0.8141 0,0.8145 -0.4069,1.2213 -0.8141,1.6286 -0.4073,0.4072 -1.6286,0.4072 -2.8499,0.4072 -0.4069,0 -0.4069,0 -0.4069,0 0,4.8854 0,4.8854 0,4.8854 17.9128,0 17.9128,0 17.9128,0 0,-4.8854 0,-4.8854 0,-4.8854 -2.0354,0 -3.664,-2.0358 -4.8854,-4.8853 0,-0.4073 0,-0.4073 0,-0.4073 -10.1779,-28.4979 -10.1779,-28.4979 -10.1779,-28.4979 -8.5493,0 -8.5493,0 -8.5493,0 z" />
      <path id="path20" style="fill:#ffffff"
         d="m 485.1112,300.2297 c 30.1261,0 30.1261,0 30.1261,0 4.478,11.8065 4.478,11.8065 4.478,11.8065 -3.664,1.6282 -3.664,1.6282 -3.664,1.6282 -1.2213,-3.2568 -2.8495,-5.2922 -4.478,-6.5135 -1.6286,-1.2214 -3.664,-1.6286 -6.1067,-1.6286 -0.4073,0 -0.4073,0 -0.4073,0 0,21.5768 0,21.5768 0,21.5768 0,2.8499 0.4073,4.8853 0.8145,5.6998 0.8141,0.8141 1.6282,1.2213 3.664,1.2213 0,4.8854 0,4.8854 0,4.8854 -18.32,0 -18.32,0 -18.32,0 0,-4.8854 0,-4.8854 0,-4.8854 1.6282,0 2.8495,-0.4072 3.2568,-1.2213 0.8141,-0.8145 1.2213,-2.8499 1.2213,-5.6998 0,-21.5768 0,-21.5768 0,-21.5768 -0.8141,0 -0.8141,0 -0.8141,0 -2.4426,0 -4.4785,0.4072 -6.1066,1.6286 -1.2214,1.2213 -2.85,3.2567 -4.4785,6.5135 -3.2568,-1.6282 -3.2568,-1.6282 -3.2568,-1.6282 z" />
      <path id="path22" style="fill:#ffffff"
         d="m 518.494,300.2297 c 30.5333,0 30.5333,0 30.5333,0 4.8854,11.8065 4.8854,11.8065 4.8854,11.8065 -3.2568,1.6282 -3.2568,1.6282 -3.2568,1.6282 -2.0354,-2.8495 -4.0712,-4.8853 -6.5139,-6.5135 -2.4427,-1.6286 -4.8853,-2.0358 -7.7348,-2.0358 -1.6286,0 -2.4427,0 -3.2572,0.8144 -0.4068,0.4069 -0.8141,2.0355 -0.8141,4.0709 0,5.2926 0,5.2926 0,5.2926 1.6286,0 1.6286,0 1.6286,0 2.0354,0 3.2568,-0.4073 4.0708,-1.2214 0.4073,-0.4072 0.8145,-2.0354 1.2214,-4.4781 3.664,0 3.664,0 3.664,0 0,17.0987 0,17.0987 0,17.0987 -3.664,0 -3.664,0 -3.664,0 -0.4069,-2.0358 -0.8141,-3.664 -1.6282,-4.8853 -0.8145,-0.8145 -2.0358,-1.6286 -3.664,-1.6286 -1.6286,0 -1.6286,0 -1.6286,0 0,8.9566 0,8.9566 0,8.9566 0,2.4427 0.4073,3.664 0.8141,4.0708 0.8145,0.8145 1.6286,0.8145 3.2572,0.8145 2.8495,0 5.6994,-0.8145 8.5493,-2.4426 2.4427,-2.0359 4.8853,-4.4785 6.9208,-8.1425 3.2567,2.0358 3.2567,2.0358 3.2567,2.0358 -5.2922,13.4347 -5.2922,13.4347 -5.2922,13.4347 -31.3478,0 -31.3478,0 -31.3478,0 0,-4.8854 0,-4.8854 0,-4.8854 1.6286,0 2.8499,-0.4072 3.664,-1.2213 0.4073,-0.8145 0.8145,-2.8499 0.8145,-5.6998 0,-15.0629 0,-15.0629 0,-15.0629 0,-2.8499 -0.4072,-4.8853 -0.8145,-5.6998 -0.8141,-0.8141 -2.0354,-1.2213 -3.664,-1.2213 z" />
      <path id="path24" style="fill:#ffffff"
         d="m 608.0586,292.9017 c 1.2213,-2.0354 1.2213,-2.0354 1.2213,-2.0354 4.0713,0 4.0713,0 4.0713,0 4.4781,15.8773 4.4781,15.8773 4.4781,15.8773 -5.2926,2.4427 -5.2926,2.4427 -5.2926,2.4427 -2.4427,-4.4781 -4.4781,-7.7352 -6.5135,-9.3634 -2.4427,-2.0358 -4.8854,-3.2572 -7.7353,-3.2572 -3.2567,0 -6.1066,1.6286 -7.7352,4.8854 -2.0354,3.2571 -2.8495,7.7352 -2.8495,13.4346 0,5.6999 0.8141,10.1779 2.4426,13.4347 2.0355,2.8499 4.4781,4.4785 8.1421,4.4785 2.8499,0 4.8854,-0.8145 6.5139,-2.4427 1.6282,-1.2213 2.4427,-3.2571 2.4427,-5.6998 0,-1.6282 -0.4072,-2.8495 -1.2213,-3.664 -0.8145,-0.8141 -2.0358,-1.2213 -4.0713,-1.2213 0,-5.6995 0,-5.6995 0,-5.6995 20.7627,0 20.7627,0 20.7627,0 0,5.6995 0,5.6995 0,5.6995 -2.0354,0.4072 -3.2568,1.2213 -4.0712,2.0358 -0.4069,0.8141 -0.8141,2.4427 -0.8141,4.8853 0,12.6202 0,12.6202 0,12.6202 -6.9208,0 -6.9208,0 -6.9208,0 -1.6286,-3.664 -1.6286,-3.664 -1.6286,-3.664 -2.0354,1.6286 -4.0712,2.4427 -6.5139,3.2572 -2.0354,0.814 -4.4781,1.2213 -6.9207,1.2213 -6.1067,0 -10.992,-2.4427 -15.0633,-6.9212 -3.664,-4.8853 -5.2922,-10.992 -5.2922,-18.7268 0,-6.9212 2.0355,-13.0278 6.1067,-17.5059 4.4781,-4.4781 9.7707,-6.9208 16.6914,-6.9208 1.6286,0 3.2568,0.4069 4.8854,0.8141 1.6285,0.4072 3.2567,0.8141 4.8853,2.0354 z" />
      <path id="path26" style="fill:#ffffff"
         d="m 635.742,310.0004 c 0,-2.0354 0.4073,-3.2568 1.2214,-4.0709 0.4072,-0.4072 1.6285,-0.8144 3.2571,-0.8144 2.4427,0 4.4781,0.4072 5.6994,1.6285 1.6286,0.8141 2.4427,2.4427 2.4427,4.0713 0,2.0354 -0.8141,3.664 -2.8499,4.8853 -1.6282,0.8141 -4.0709,1.2214 -7.7349,1.2214 -0.4072,0 -0.8144,0 -1.2213,0 0,0 -0.4072,0 -0.8145,0 z m -13.8415,-4.8853 c 1.6282,0 2.8495,0.4072 3.664,1.2213 0.4069,0.8145 0.8141,2.8499 0.8141,5.6998 0,15.0629 0,15.0629 0,15.0629 0,2.8499 -0.4072,4.8853 -0.8141,5.6998 -0.8145,0.8141 -2.0358,1.2213 -3.664,1.2213 0,4.8854 0,4.8854 0,4.8854 18.32,0 18.32,0 18.32,0 0,-4.8854 0,-4.8854 0,-4.8854 -1.6286,0 -2.8499,-0.4072 -3.2571,-1.2213 -0.8141,-0.8145 -1.2214,-2.8499 -1.2214,-5.6998 0,-4.8854 0,-4.8854 0,-4.8854 3.664,0 3.664,0 3.664,0 11.8065,16.6919 11.8065,16.6919 11.8065,16.6919 11.8061,0 11.8061,0 11.8061,0 0,-4.8854 0,-4.8854 0,-4.8854 -1.2213,0 -2.4427,-0.4072 -3.2567,-0.8145 -1.2214,-0.4068 -2.0359,-1.2213 -2.85,-2.4426 -7.328,-9.7707 -7.328,-9.7707 -7.328,-9.7707 2.85,-0.8141 4.8854,-2.0354 6.514,-3.664 1.2213,-1.6282 2.0354,-4.0708 2.0354,-6.5135 0,-3.664 -1.2214,-6.1067 -4.0713,-8.1425 -2.4426,-1.6282 -6.1066,-2.4427 -10.992,-2.4427 -21.1695,0 -21.1695,0 -21.1695,0 z" />
      <path id="path28" style="fill:#ffffff"
         d="m 661.39,300.2297 c 18.7273,0 18.7273,0 18.7273,0 0,4.8854 0,4.8854 0,4.8854 -1.6286,0 -2.8499,0.4072 -3.664,1.2213 -0.4073,0.8145 -0.8141,2.8499 -0.8141,5.6998 0,15.0629 0,15.0629 0,15.0629 0,2.8499 0.4068,4.8853 0.8141,5.6998 0.8141,0.8141 2.0354,1.2213 3.664,1.2213 0,4.8854 0,4.8854 0,4.8854 -18.7273,0 -18.7273,0 -18.7273,0 0,-4.8854 0,-4.8854 0,-4.8854 2.0359,0 3.2572,-0.4072 3.664,-1.2213 0.8145,-0.8145 0.8145,-2.8499 0.8145,-5.6998 0,-15.0629 0,-15.0629 0,-15.0629 0,-2.8499 0,-4.8853 -0.8145,-5.6998 -0.4068,-0.8141 -1.6281,-1.2213 -3.664,-1.2213 z" />
      <path id="path30" style="fill:#ffffff"
         d="m 695.5874,310.0004 c 0,-2.4427 0,-3.664 0.8145,-4.0709 0.4068,-0.8144 1.6281,-0.8144 3.2567,-0.8144 3.2568,0 6.1067,1.2213 8.1421,3.664 2.0358,2.8499 3.2572,6.1066 3.2572,10.5851 0,4.8854 -1.2214,8.1421 -3.2572,10.992 -2.0354,2.4427 -4.8853,3.664 -8.1421,3.664 -1.6286,0 -2.8499,0 -3.2567,-0.8145 -0.8145,-0.4068 -0.8145,-1.6281 -0.8145,-4.0708 z m -13.8415,-4.8853 c 1.6281,0 2.8495,0.4072 3.2567,1.2213 0.8141,0.8145 0.8141,2.4427 0.8141,5.6998 0,15.0629 0,15.0629 0,15.0629 0,2.8499 0,4.8853 -0.8141,5.6998 -0.4072,0.8141 -1.6286,1.2213 -3.2567,1.2213 0,4.8854 0,4.8854 0,4.8854 17.9127,0 17.9127,0 17.9127,0 6.9208,0 12.2134,-1.6286 15.8774,-4.8854 3.664,-3.2571 5.2925,-8.1425 5.2925,-14.656 0,-6.1066 -1.6285,-10.992 -5.2925,-14.2491 -3.664,-3.2568 -8.9566,-4.8854 -15.8774,-4.8854 -17.9127,0 -17.9127,0 -17.9127,0 z" />
      <path id="path32" style="fill:#ffffff"
         d="m 391.4753,351.5257 c 0.8145,-1.6281 0.8145,-1.6281 0.8145,-1.6281 0.8141,0 0.8141,0 0.8141,0 1.2213,6.5135 1.2213,6.5135 1.2213,6.5135 -0.8141,0 -0.8141,0 -0.8141,0 -0.8144,-2.0355 -2.0358,-3.2568 -3.2571,-4.0709 -1.2213,-1.2213 -2.4427,-1.6286 -4.0709,-1.6286 -2.0358,0 -3.664,0.8141 -4.8853,2.0355 -1.6286,1.6285 -2.0358,3.2571 -2.0358,5.6998 0,2.4427 0.4072,4.4781 2.0358,5.6994 1.2213,1.6286 2.8495,2.0354 4.8853,2.0354 1.6282,0 3.2568,0 4.4781,-0.814 1.2214,-0.8141 2.4427,-1.6286 3.2568,-2.85 1.2213,0.4073 1.2213,0.4073 1.2213,0.4073 -1.2213,1.6286 -2.4426,2.8499 -4.0708,3.664 -1.2214,0.4072 -3.2572,0.8141 -4.8854,0.8141 -1.2213,0 -2.4426,0 -3.664,-0.4069 -1.2213,-0.4072 -2.0358,-0.8145 -3.2571,-1.6285 -0.8141,-0.8141 -2.0354,-1.6286 -2.4427,-2.85 -0.8141,-1.2213 -0.8141,-2.4426 -0.8141,-4.0708 0,-2.4427 0.8141,-4.4785 2.8499,-6.1067 1.6282,-1.6286 4.0709,-2.4426 6.9208,-2.4426 1.2213,0 2.0354,0 2.8499,0.4068 1.2213,0 2.0354,0.4072 2.8495,1.2213 z" />
      <path id="path34" style="fill:#ffffff"
         d="m 411.8311,353.1543 c 1.2214,1.2213 1.6282,3.2568 1.6282,5.2926 0,2.4427 -0.4068,4.4781 -1.6282,5.6994 -1.6285,1.6286 -3.2571,2.0354 -5.2925,2.0354 -2.0355,0 -4.0713,-0.4068 -5.2926,-2.0354 -1.2213,-1.2213 -1.6282,-3.2567 -1.6282,-5.6994 0,-2.0358 0.4069,-4.0713 1.6282,-5.2926 1.2213,-1.6286 3.2571,-2.0354 5.2926,-2.0354 2.0354,0 3.664,0.4068 5.2925,2.0354 z m -12.6205,-0.8141 c -2.0355,1.6282 -2.8499,3.664 -2.8499,6.5135 0,2.4427 0.8144,4.4785 2.8499,6.1067 1.6285,1.6286 4.4781,2.4427 7.328,2.4427 2.8499,0 5.2925,-0.8141 7.328,-2.4427 2.0354,-1.6282 2.8499,-3.664 2.8499,-6.1067 0,-2.8495 -0.8145,-4.8853 -2.8499,-6.5135 -2.0355,-1.6286 -4.4781,-2.4426 -7.328,-2.4426 -2.8499,0 -5.2926,0.814 -7.328,2.4426 z" />
      <path id="path36" style="fill:#ffffff"
         d="m 422.0087,358.0397 c 2.8499,0 2.8499,0 2.8499,0 1.6285,0 2.4426,0 3.2567,0 0.4073,0 0.8145,-0.4073 1.2214,-0.4073 0.8144,-0.4068 1.2213,-0.8141 1.6285,-1.2213 0,-0.4069 0.4073,-1.2214 0.4073,-1.6282 0,-1.2213 -0.4073,-2.0358 -1.2214,-2.8499 -1.2213,-0.4073 -2.4426,-0.8141 -4.4784,-0.8141 -1.6282,0 -2.4427,0 -2.8496,0.4068 -0.4072,0.4073 -0.8144,0.8145 -0.8144,2.0359 z m -5.2922,-8.1421 c 9.3634,0 9.3634,0 9.3634,0 2.8499,0 4.8853,0.4068 6.1067,1.2213 1.2213,0.8141 2.0354,1.6282 2.0354,3.2567 0,1.2214 -0.4069,2.0355 -1.2213,2.85 -0.8141,0.8141 -2.0355,1.2213 -3.664,1.6281 3.664,4.8854 3.664,4.8854 3.664,4.8854 0.4072,0.8145 1.2213,1.6286 1.6285,2.0358 0.8141,0.4068 1.2214,0.4068 2.0355,0.4068 0,0.8145 0,0.8145 0,0.8145 -4.4781,0 -4.4781,0 -4.4781,0 -6.1067,-7.7352 -6.1067,-7.7352 -6.1067,-7.7352 -4.0712,0 -4.0712,0 -4.0712,0 0,4.4781 0,4.4781 0,4.4781 0,0.8145 0,1.6286 0.4072,2.0358 0.4072,0.4068 1.2213,0.4068 2.0354,0.4068 0,0.8145 0,0.8145 0,0.8145 -7.7348,0 -7.7348,0 -7.7348,0 0,-0.8145 0,-0.8145 0,-0.8145 0.8141,0 1.6282,0 2.0354,-0.4068 0,-0.4072 0.4072,-1.2213 0.4072,-2.0358 0,-10.1775 0,-10.1775 0,-10.1775 0,-0.8145 -0.4072,-1.6286 -0.4072,-2.0359 -0.4072,-0.4068 -1.2213,-0.4068 -2.0354,-0.8141 z" />
      <path id="path38" style="fill:#ffffff"
         d="m 443.1786,353.5616 c 0,-1.2214 0,-1.6286 0.4072,-2.0359 0.4069,-0.4068 1.2213,-0.4068 2.4427,-0.4068 1.6282,0 2.8495,0.4068 4.0708,0.8141 0.8145,0.8141 1.2214,1.6286 1.2214,2.8499 0,1.6282 -0.4069,2.4427 -1.2214,3.2568 -1.2213,0.4072 -2.4426,0.814 -4.4781,0.814 -0.4072,0 -0.8141,0 -1.6285,0 -0.4069,0 -0.8141,0 -0.8141,0 z m -5.6995,-2.85 c 1.2214,0.4073 2.0355,0.4073 2.4427,0.8141 0,0.4073 0.4069,1.2214 0.4069,2.0359 0,10.1775 0,10.1775 0,10.1775 0,0.8145 -0.4069,1.6286 -0.8141,2.0358 0,0.4068 -0.8141,0.4068 -2.0355,0.4068 0,0.8145 0,0.8145 0,0.8145 8.1421,0 8.1421,0 8.1421,0 0,-0.8145 0,-0.8145 0,-0.8145 -0.8141,0 -1.6285,0 -2.0354,-0.4068 -0.4072,-0.4072 -0.4072,-1.2213 -0.4072,-2.0358 0,-3.664 0,-3.664 0,-3.664 0,0 0,0 0,0 0.8141,0 1.6285,0 2.0354,0 2.8499,0 5.2926,-0.4069 6.5139,-1.2214 1.6286,-0.814 2.4427,-2.0354 2.4427,-3.664 0,-1.6281 -0.8141,-2.8495 -2.0355,-3.664 -1.2213,-1.2213 -3.2571,-1.6281 -5.6998,-1.6281 -2.8495,0 -2.8495,0 -2.8495,0 -6.1067,0 -6.1067,0 -6.1067,0 z" />
      <path id="path40" style="fill:#ffffff"
         d="m 470.4552,353.1543 c 1.2213,1.2213 2.0354,3.2568 2.0354,5.2926 0,2.4427 -0.8141,4.4781 -2.0354,5.6994 -1.2214,1.6286 -2.85,2.0354 -4.8854,2.0354 -2.4426,0 -4.0712,-0.4068 -5.2926,-2.0354 -1.2213,-1.2213 -2.0354,-3.2567 -2.0354,-5.6994 0,-2.0358 0.8141,-4.0713 2.0354,-5.2926 1.2214,-1.6286 2.85,-2.0354 5.2926,-2.0354 2.0354,0 3.664,0.4068 4.8854,2.0354 z m -12.6206,-0.8141 c -1.6286,1.6282 -2.8499,3.664 -2.8499,6.5135 0,2.4427 1.2213,4.4785 2.8499,6.1067 2.0354,1.6286 4.4781,2.4427 7.7352,2.4427 2.8495,0 5.2922,-0.8141 7.328,-2.4427 2.0354,-1.6282 2.8495,-3.664 2.8495,-6.1067 0,-2.8495 -0.8141,-4.8853 -2.8495,-6.5135 -2.0358,-1.6286 -4.4785,-2.4426 -7.328,-2.4426 -3.2571,0 -5.6998,0.814 -7.7352,2.4426 z" />
      <path id="path42" style="fill:#ffffff"
         d="m 481.0399,353.5616 c 0,-1.2214 0.4073,-1.6286 0.8141,-2.0359 0.4072,-0.4068 1.2213,-0.4068 2.8499,-0.4068 2.0354,0 3.2568,0.4068 4.4781,0.8141 0.8145,0.8141 1.2213,1.6286 1.2213,2.8499 0,0.4068 0,1.2213 -0.4068,1.6282 -0.4073,0.4072 -0.8145,0.8145 -1.6286,1.2213 -0.4072,0 -0.8141,0.4073 -1.2213,0.4073 -0.8141,0 -1.6286,0 -3.2568,0 -2.8499,0 -2.8499,0 -2.8499,0 z m -5.2926,-2.85 c 0.8145,0.4073 1.6286,0.4073 2.0359,0.8141 0.4068,0.4073 0.4068,1.2214 0.4068,2.0359 0,10.1775 0,10.1775 0,10.1775 0,0.8145 -0.4068,1.6286 -0.4068,2.0358 -0.4073,0.4068 -1.2214,0.4068 -2.0359,0.4068 0,0.8145 0,0.8145 0,0.8145 7.7353,0 7.7353,0 7.7353,0 0,-0.8145 0,-0.8145 0,-0.8145 -0.8141,0 -1.6286,0 -2.0354,-0.4068 -0.4073,-0.4072 -0.4073,-1.2213 -0.4073,-2.0358 0,-4.4781 0,-4.4781 0,-4.4781 4.0713,0 4.0713,0 4.0713,0 6.1066,7.7352 6.1066,7.7352 6.1066,7.7352 4.4781,0 4.4781,0 4.4781,0 0,-0.8145 0,-0.8145 0,-0.8145 -0.8141,0 -1.2213,0 -2.0354,-0.4068 -0.4073,-0.4072 -1.2213,-1.2213 -1.6286,-2.0358 -3.664,-4.8854 -3.664,-4.8854 -3.664,-4.8854 1.6286,-0.4068 2.8499,-0.814 3.664,-1.6281 0.8141,-0.8145 1.2213,-1.6286 1.2213,-2.85 0,-1.6285 -0.4072,-2.4426 -2.0354,-3.2567 -1.2213,-0.8145 -3.2571,-1.2213 -6.1066,-1.2213 -9.3639,0 -9.3639,0 -9.3639,0 z" />
      <path id="path44" style="fill:#ffffff"
         d="m 506.2807,359.6682 c -6.1067,0 -6.1067,0 -6.1067,0 2.8499,-7.328 2.8499,-7.328 2.8499,-7.328 z m -10.1775,4.8854 c -0.4073,0.4068 -0.8145,0.8141 -1.2214,1.2213 -0.4072,0.4068 -1.2213,0.4068 -1.6286,0.4068 0,0.8145 0,0.8145 0,0.8145 7.328,0 7.328,0 7.328,0 0,-0.4072 0,-0.4072 0,-0.4072 -0.814,-0.4073 -1.6285,-0.4073 -2.0354,-0.8141 -0.4072,0 -0.4072,-0.4072 -0.4072,-0.8145 0,0 0,-0.4068 0,-0.4068 0,-0.4073 0,-0.4073 0,-0.8145 1.2213,-2.8495 1.2213,-2.8495 1.2213,-2.8495 7.328,0 7.328,0 7.328,0 1.6286,3.2567 1.6286,3.2567 1.6286,3.2567 0,0.4073 0,0.4073 0,0.8141 0,0 0,0.4073 0,0.4073 0,0.4072 0,0.4072 -0.4072,0.814 -0.4073,0 -0.8141,0 -1.2214,0 -0.4072,0 -0.4072,0 -0.4072,0 0,0.8145 0,0.8145 0,0.8145 7.7352,0 7.7352,0 7.7352,0 0,-0.8145 0,-0.8145 0,-0.8145 -0.8141,0 -1.2213,0 -1.6286,-0.4068 -0.4068,-0.4072 -0.814,-0.8145 -0.814,-1.2213 -6.514,-14.656 -6.514,-14.656 -6.514,-14.656 -2.4426,0 -2.4426,0 -2.4426,0 z" />
      <path id="path46" style="fill:#ffffff"
         d="m 511.5733,354.3756 c 1.2213,0.4073 1.2213,0.4073 1.2213,0.4073 0.8141,-1.2213 1.2213,-2.0358 2.4427,-2.8499 0.814,-0.4073 2.0354,-0.8141 2.8499,-0.8141 0.4068,0 0.8141,0 0.8141,0 0,0 0,0.4068 0,0.8141 0,1.2213 0,1.2213 0,1.2213 0,10.5848 0,10.5848 0,10.5848 0,0.8145 0,1.6286 -0.4073,2.0358 -0.4068,0.4068 -1.2213,0.4068 -2.0354,0.4068 0,0.8145 0,0.8145 0,0.8145 7.7352,0 7.7352,0 7.7352,0 0,-0.8145 0,-0.8145 0,-0.8145 -0.8145,0 -1.6285,0 -1.6285,-0.4068 -0.4073,-0.4072 -0.8141,-1.2213 -0.8141,-2.0358 0,-10.5848 0,-10.5848 0,-10.5848 0,-1.2213 0,-1.2213 0,-1.2213 0,-0.4073 0,-0.4073 0.4068,-0.8141 0,0 0,0 0.4073,0 1.2213,0 2.0354,0.4068 3.2567,0.8141 0.8145,0.8141 1.6286,1.6286 2.0358,2.8499 1.2214,-0.4073 1.2214,-0.4073 1.2214,-0.4073 -1.2214,-4.478 -1.2214,-4.478 -1.2214,-4.478 -14.656,0 -14.656,0 -14.656,0 z" />
      <path id="path48" style="fill:#ffffff"
         d="m 529.486,350.7116 c 0.8145,0.4073 1.6286,0.4073 2.0358,0.8141 0.4069,0.4073 0.4069,1.2214 0.4069,2.0359 0,10.1775 0,10.1775 0,10.1775 0,0.8145 0,1.6286 -0.4069,2.0358 -0.4072,0.4068 -1.2213,0.4068 -2.0358,0.4068 0,0.8145 0,0.8145 0,0.8145 8.1425,0 8.1425,0 8.1425,0 0,-0.8145 0,-0.8145 0,-0.8145 -1.2213,0 -1.6286,0 -2.0358,-0.4068 -0.4069,-0.4072 -0.8141,-1.2213 -0.8141,-2.0358 0,-10.1775 0,-10.1775 0,-10.1775 0,-0.8145 0.4072,-1.6286 0.8141,-2.0359 0.4072,-0.4068 0.8145,-0.4068 2.0358,-0.8141 0,-0.814 0,-0.814 0,-0.814 -8.1425,0 -8.1425,0 -8.1425,0 z" />
      <path id="path50" style="fill:#ffffff"
         d="m 553.5058,353.1543 c 1.2214,1.2213 2.0355,3.2568 2.0355,5.2926 0,2.4427 -0.8141,4.4781 -2.0355,5.6994 -1.2213,1.6286 -2.8499,2.0354 -5.2925,2.0354 -2.0355,0 -3.664,-0.4068 -4.8854,-2.0354 -1.2213,-1.2213 -2.0354,-3.2567 -2.0354,-5.6994 0,-2.0358 0.8141,-4.0713 2.0354,-5.2926 1.2214,-1.6286 2.8499,-2.0354 4.8854,-2.0354 2.4426,0 4.0712,0.4068 5.2925,2.0354 z m -12.6205,-0.8141 c -2.0355,1.6282 -2.85,3.664 -2.85,6.5135 0,2.4427 0.8145,4.4785 2.85,6.1067 2.0354,1.6286 4.478,2.4427 7.328,2.4427 3.2567,0 5.6994,-0.8141 7.7352,-2.4427 1.6282,-1.6282 2.8495,-3.664 2.8495,-6.1067 0,-2.8495 -1.2213,-4.8853 -2.8495,-6.5135 -2.0358,-1.6286 -4.4785,-2.4426 -7.7352,-2.4426 -2.85,0 -5.2926,0.814 -7.328,2.4426 z" />
      <path id="path52" style="fill:#ffffff"
         d="m 559.2053,349.8976 c 6.1066,0 6.1066,0 6.1066,0 9.7707,13.8415 9.7707,13.8415 9.7707,13.8415 0,-10.1775 0,-10.1775 0,-10.1775 0,-0.8145 0,-1.6286 -0.4072,-2.0359 -0.4069,-0.4068 -1.2214,-0.4068 -2.0355,-0.8141 0,-0.814 0,-0.814 0,-0.814 6.9208,0 6.9208,0 6.9208,0 0,0.814 0,0.814 0,0.814 -1.2213,0.4073 -2.0354,0.4073 -2.4427,0.8141 0,0.4073 -0.4068,1.2214 -0.4068,2.0359 0,13.4346 0,13.4346 0,13.4346 -2.4427,0 -2.4427,0 -2.4427,0 -10.5851,-14.656 -10.5851,-14.656 -10.5851,-14.656 0,11.3989 0,11.3989 0,11.3989 0,0.8145 0,1.6286 0.4072,2.0358 0.4072,0.4068 0.8141,0.4068 2.0354,0.4068 0,0.8145 0,0.8145 0,0.8145 -6.9207,0 -6.9207,0 -6.9207,0 0,-0.8145 0,-0.8145 0,-0.8145 0.8141,0 1.6285,0 2.0354,-0.4068 0.4072,-0.4072 0.4072,-1.2213 0.4072,-2.0358 0,-10.1775 0,-10.1775 0,-10.1775 0,-0.8145 0,-1.6286 -0.4072,-2.0359 -0.4069,-0.4068 -0.8141,-0.4068 -2.0354,-0.8141 z" />
      <path id="path54" style="fill:#ffffff"
         d="m 603.1733,353.1543 c 1.2213,1.2213 1.6285,3.2568 1.6285,5.2926 0,2.4427 -0.4072,4.4781 -1.6285,5.6994 -1.6286,1.6286 -3.2568,2.0354 -5.2926,2.0354 -2.0354,0 -4.0709,-0.4068 -5.2922,-2.0354 -1.2213,-1.2213 -1.6286,-3.2567 -1.6286,-5.6994 0,-2.0358 0.4073,-4.0713 1.6286,-5.2926 1.2213,-1.6286 3.2568,-2.0354 5.2922,-2.0354 2.0358,0 3.664,0.4068 5.2926,2.0354 z m -12.6206,-0.8141 c -2.0354,1.6282 -2.8495,3.664 -2.8495,6.5135 0,2.4427 0.8141,4.4785 2.8495,6.1067 1.6286,1.6286 4.4785,2.4427 7.328,2.4427 2.8499,0 5.2926,-0.8141 7.328,-2.4427 2.0358,-1.6282 2.8499,-3.664 2.8499,-6.1067 0,-2.8495 -0.8141,-4.8853 -2.8499,-6.5135 -2.0354,-1.6286 -4.4781,-2.4426 -7.328,-2.4426 -2.8495,0 -5.2922,0.814 -7.328,2.4426 z" />
      <path id="path56" style="fill:#ffffff"
         d="m 608.8727,349.8976 c 15.4705,0 15.4705,0 15.4705,0 2.0354,4.478 2.0354,4.478 2.0354,4.478 -1.2213,0.4073 -1.2213,0.4073 -1.2213,0.4073 -0.8141,-1.2213 -2.4427,-2.0358 -3.664,-2.8499 -1.2214,-0.4073 -2.8499,-0.8141 -4.4781,-0.8141 -1.2214,0 -1.6286,0.4068 -2.0358,0.4068 -0.4069,0.4073 -0.8141,1.2214 -0.8141,2.0359 0,4.0708 0,4.0708 0,4.0708 1.6285,0 1.6285,0 1.6285,0 1.2214,0 2.0355,-0.4068 2.8496,-0.8141 0.4072,-0.4072 0.8144,-1.2213 0.8144,-2.4427 0.8141,0 0.8141,0 0.8141,0 0,7.3281 0,7.3281 0,7.3281 -0.8141,0 -0.8141,0 -0.8141,0 0,-1.2214 -0.4072,-2.0355 -0.8144,-2.4427 -0.8141,-0.4073 -1.6282,-0.4073 -2.8496,-0.4073 -1.6285,0 -1.6285,0 -1.6285,0 0,4.8854 0,4.8854 0,4.8854 0,0.8145 0,1.6286 0.4072,2.0358 0.4069,0.4068 1.2213,0.4068 2.0354,0.4068 0,0.8145 0,0.8145 0,0.8145 -7.7352,0 -7.7352,0 -7.7352,0 0,-0.8145 0,-0.8145 0,-0.8145 0.8145,0 1.6286,0 2.0358,-0.4068 0,-0.4072 0.4069,-1.2213 0.4069,-2.0358 0,-10.1775 0,-10.1775 0,-10.1775 0,-0.8145 -0.4069,-1.6286 -0.4069,-2.0359 -0.4072,-0.4068 -1.2213,-0.4068 -2.0358,-0.8141 z" />
      <path id="path58" style="fill:#ffffff"
         d="m 646.3272,351.5257 c 0.8141,-1.6281 0.8141,-1.6281 0.8141,-1.6281 0.8141,0 0.8141,0 0.8141,0 1.6285,6.5135 1.6285,6.5135 1.6285,6.5135 -0.8141,0 -0.8141,0 -0.8141,0 -1.2213,-2.0355 -2.0358,-3.2568 -3.664,-4.0709 -1.2213,-1.2213 -2.4426,-1.6286 -4.0712,-1.6286 -2.0354,0 -3.664,0.8141 -4.8853,2.0355 -1.2214,1.6285 -2.0355,3.2571 -2.0355,5.6998 0,2.4427 0.8141,4.4781 2.0355,5.6994 1.2213,1.6286 2.8499,2.0354 4.8853,2.0354 1.6286,0 3.2568,0 4.4781,-0.814 1.2213,-0.8141 2.4427,-1.6286 3.2571,-2.85 1.2214,0.4073 1.2214,0.4073 1.2214,0.4073 -1.2214,1.6286 -2.4427,2.8499 -4.0713,3.664 -1.2213,0.4072 -2.8499,0.8141 -4.8853,0.8141 -1.2213,0 -2.4427,0 -3.664,-0.4069 -1.2213,-0.4072 -2.0354,-0.8145 -2.8499,-1.6285 -1.2213,-0.8141 -2.0354,-1.6286 -2.8495,-2.85 -0.4073,-1.2213 -0.8145,-2.4426 -0.8145,-4.0708 0,-2.4427 0.8145,-4.4785 2.8499,-6.1067 1.6286,-1.6286 4.0712,-2.4426 7.328,-2.4426 0.8141,0 1.6286,0 2.8499,0.4068 0.8141,0 1.6282,0.4072 2.4427,1.2213 z" />
      <path id="path60" style="fill:#ffffff"
         d="m 649.9912,349.8976 c 8.1421,0 8.1421,0 8.1421,0 0,0.814 0,0.814 0,0.814 -1.2214,0.4073 -1.6286,0.4073 -2.0354,0.8141 -0.4073,0.4073 -0.4073,1.2214 -0.4073,2.0359 0,3.664 0,3.664 0,3.664 10.1779,0 10.1779,0 10.1779,0 0,-3.664 0,-3.664 0,-3.664 0,-0.8145 -0.4072,-1.6286 -0.8145,-2.0359 0,-0.4068 -0.8141,-0.4068 -2.0354,-0.8141 0,-0.814 0,-0.814 0,-0.814 8.1421,0 8.1421,0 8.1421,0 0,0.814 0,0.814 0,0.814 -0.8141,0.4073 -1.6282,0.4073 -2.0354,0.8141 -0.4073,0.4073 -0.4073,1.2214 -0.4073,2.0359 0,10.1775 0,10.1775 0,10.1775 0,0.8145 0,1.6286 0.4073,2.0358 0.4072,0.4068 1.2213,0.4068 2.0354,0.4068 0,0.8145 0,0.8145 0,0.8145 -8.1421,0 -8.1421,0 -8.1421,0 0,-0.8145 0,-0.8145 0,-0.8145 1.2213,0 2.0354,0 2.0354,-0.4068 0.4073,-0.4072 0.8145,-1.2213 0.8145,-2.0358 0,-5.2922 0,-5.2922 0,-5.2922 -10.1779,0 -10.1779,0 -10.1779,0 0,5.2922 0,5.2922 0,5.2922 0,0.8145 0,1.6286 0.4073,2.0358 0.4068,0.4068 0.814,0.4068 2.0354,0.4068 0,0.8145 0,0.8145 0,0.8145 -8.1421,0 -8.1421,0 -8.1421,0 0,-0.8145 0,-0.8145 0,-0.8145 1.2213,0 1.6282,0 2.0354,-0.4068 0.4073,-0.4072 0.4073,-1.2213 0.4073,-2.0358 0,-10.1775 0,-10.1775 0,-10.1775 0,-0.8145 0,-1.6286 -0.4073,-2.0359 -0.4072,-0.4068 -1.2213,-0.4068 -2.0354,-0.8141 z" />
      <path id="path62" style="fill:#ffffff"
         d="m 672.382,349.8976 c 8.1425,0 8.1425,0 8.1425,0 0,0.814 0,0.814 0,0.814 -1.2213,0.4073 -2.0358,0.4073 -2.0358,0.8141 -0.4068,0.4073 -0.8141,1.2214 -0.8141,2.0359 0,10.1775 0,10.1775 0,10.1775 0,0.8145 0.4073,1.6286 0.8141,2.0358 0,0.4068 0.8145,0.4068 2.0358,0.4068 0,0.8145 0,0.8145 0,0.8145 -8.1425,0 -8.1425,0 -8.1425,0 0,-0.8145 0,-0.8145 0,-0.8145 0.8145,0 1.6286,0 2.0359,-0.4068 0.4068,-0.4072 0.4068,-1.2213 0.4068,-2.0358 0,-10.1775 0,-10.1775 0,-10.1775 0,-0.8145 0,-1.6286 -0.4068,-2.0359 -0.4073,-0.4068 -1.2214,-0.4068 -2.0359,-0.8141 z" />
      <path id="path64" style="fill:#ffffff"
         d="m 681.3386,350.7116 c 1.2213,0.4073 1.6286,0.4073 2.0354,0.8141 0.4073,0.4073 0.4073,1.2214 0.4073,2.0359 0,10.1775 0,10.1775 0,10.1775 0,0.8145 0,1.6286 -0.4073,2.0358 -0.4068,0.4068 -0.8141,0.4068 -2.0354,0.4068 0,0.8145 0,0.8145 0,0.8145 6.9208,0 6.9208,0 6.9208,0 0,-0.8145 0,-0.8145 0,-0.8145 -1.2214,0 -1.6282,0 -2.0355,-0.4068 -0.4072,-0.4072 -0.4072,-1.2213 -0.4072,-2.0358 0,-11.3989 0,-11.3989 0,-11.3989 10.5852,14.656 10.5852,14.656 10.5852,14.656 2.4426,0 2.4426,0 2.4426,0 0,-13.4346 0,-13.4346 0,-13.4346 0,-0.8145 0.4069,-1.6286 0.8141,-2.0359 0,-0.4068 0.8141,-0.4068 2.0354,-0.8141 0,-0.814 0,-0.814 0,-0.814 -6.9207,0 -6.9207,0 -6.9207,0 0,0.814 0,0.814 0,0.814 0.8141,0.4073 1.6286,0.4073 2.0354,0.8141 0.4072,0.4073 0.4072,1.2214 0.4072,2.0359 0,10.1775 0,10.1775 0,10.1775 -9.3634,-13.8415 -9.3634,-13.8415 -9.3634,-13.8415 -6.5139,0 -6.5139,0 -6.5139,0 z" />
      <path id="path66" style="fill:#ffffff"
         d="m 713.0933,359.6682 c -6.1067,0 -6.1067,0 -6.1067,0 3.2568,-7.328 3.2568,-7.328 3.2568,-7.328 z m -10.1779,4.8854 c -0.4069,0.4068 -0.8141,0.8141 -1.2214,1.2213 -0.4068,0.4068 -0.814,0.4068 -1.6281,0.4068 0,0.8145 0,0.8145 0,0.8145 7.328,0 7.328,0 7.328,0 0,-0.4072 0,-0.4072 0,-0.4072 -0.8145,-0.4073 -1.6286,-0.4073 -2.0359,-0.8141 -0.4068,0 -0.4068,-0.4072 -0.4068,-0.8145 0,0 0,-0.4068 0,-0.4068 0,-0.4073 0,-0.4073 0.4068,-0.8145 1.2214,-2.8495 1.2214,-2.8495 1.2214,-2.8495 7.328,0 7.328,0 7.328,0 1.2213,3.2567 1.2213,3.2567 1.2213,3.2567 0,0.4073 0,0.4073 0,0.8141 0.4073,0 0.4073,0.4073 0.4073,0.4073 0,0.4072 -0.4073,0.4072 -0.8141,0.814 0,0 -0.4073,0 -1.2214,0 -0.4072,0 -0.4072,0 -0.4072,0 0,0.8145 0,0.8145 0,0.8145 7.7352,0 7.7352,0 7.7352,0 0,-0.8145 0,-0.8145 0,-0.8145 -0.8145,0 -1.2213,0 -1.6285,-0.4068 -0.4073,-0.4072 -0.8141,-0.8145 -0.8141,-1.2213 -6.1067,-14.656 -6.1067,-14.656 -6.1067,-14.656 -2.8499,0 -2.8499,0 -2.8499,0 z" />
      <path id="path68" style="fill:#ffffff"
         d="m 309.2391,259.5189 -1.2213,-2.4427 8.5493,-7.328 v 0 c 0.8141,-0.8145 1.2214,-1.2213 1.2214,-2.0358 l 1.6281,-0.8141 2.0359,5.6994 -1.6286,0.8145 c 0,0 0,0 0,-0.4072 0,-0.4073 -0.4073,-0.4073 -0.4073,-0.8141 h -0.814 c 0,0 0,0.4068 -0.4073,0.4068 v 0 l -1.6282,1.2214 1.2214,3.664 h 2.0354 l 0.4072,-0.4069 v 0 c 0.4069,0 0.8141,0 0.8141,-0.4072 0,-0.4073 0,-0.4073 -0.4072,-1.2214 l 1.6286,-0.4072 2.0354,4.8853 -1.6282,0.4073 c -0.4072,-0.8141 -1.2213,-1.2214 -2.8499,-0.8141 h -0.4073 z m 2.4427,-2.0358 h 4.4781 l -1.2213,-2.4427 z m 4.0708,17.5059 v -1.2214 c 0.4073,-0.4072 1.2214,-0.4072 2.0359,-0.8141 l 5.2921,-1.6285 c 1.2214,0 1.6286,-0.4073 2.0359,0 0.4068,0 0.8141,0.4072 0.8141,0.8141 l 1.6285,-0.4069 -1.2213,-4.4785 -1.6286,0.4073 v 1.2213 c -0.4072,0.4072 -0.8141,0.8141 -2.0354,0.8141 l -6.5139,1.6286 8.9566,-8.1421 -0.4073,-2.4427 -9.3634,2.4427 c -1.2213,0.4068 -2.0358,0.4068 -2.4427,0.4068 0,0 -0.4072,-0.4068 -0.4072,-0.8141 l -2.0354,0.4073 1.6281,4.4781 1.2214,-0.4073 c 0,-0.8141 0,-1.2213 0.4072,-1.2213 0,-0.4069 0.8141,-0.8141 2.0354,-0.8141 l 3.664,-1.2213 -6.9207,6.5139 1.6286,4.8853 z m -168.1367,22.3912 c 0.4072,0.4069 0,0.8141 0,1.2213 -0.4073,0 -1.2214,0.4069 -2.0355,0.4069 l -5.6998,0.4072 c -0.8141,0.4073 -1.6282,0.4073 -2.0354,0 -0.4073,0 -0.4073,-0.4072 -0.4073,-0.8141 h -1.6281 l 1.2213,10.5848 4.8853,1.2213 0.4069,-1.2213 c -1.2214,-0.4072 -2.0354,-1.2213 -2.8495,-2.0354 -0.8145,-0.8145 -1.2214,-1.6286 -1.6286,-2.4427 0,-0.8145 0,-1.2213 0.4072,-1.2213 0,-0.4073 0.8141,-0.4073 1.2214,-0.4073 l 3.2567,-0.4072 0.4073,0.4072 c 0,0.4073 -0.4073,0.8141 -0.4073,1.2214 -0.4072,0.4072 -1.2213,0.8141 -2.0354,0.8141 l 0.4068,1.2213 6.1067,-0.8141 v -1.2213 h -2.0354 c 0,-0.4073 -0.4073,-0.8141 -0.4073,-1.2214 v -0.8141 h 2.0359 c 0.4068,-0.4072 1.2213,-0.4072 1.2213,0 0.4068,0 0.4068,0.4069 0.4068,1.2214 0.4073,0.8141 0,1.6286 -0.4068,2.4426 -0.4069,0.8141 -1.2213,1.6282 -2.0358,2.4427 l 0.8145,1.2213 4.0708,-2.4426 -1.2213,-10.1779 z m -2.0355,-13.8419 -0.4072,1.2213 c 0.8141,0.4073 1.6286,0.8141 2.0354,1.6286 0.4073,0.4069 0.4073,1.2213 0.4073,2.0354 v 0 l -7.7353,-0.4072 c -1.2213,0 -1.6282,0 -2.0354,-0.4069 -0.4073,0 -0.4073,-0.4072 -0.4073,-0.8144 l -1.6281,-0.4069 -0.4073,6.5135 h 1.6286 c 0,-0.8141 0.4068,-1.2213 0.4068,-1.2213 0.4073,0 1.2214,-0.4069 2.4427,-0.4069 l 7.7353,0.4069 c 0,0 0,0 0,0.4072 0,0.8141 -0.4073,1.2214 -0.8141,2.0355 -0.4073,0.4072 -1.2214,0.8144 -2.4427,1.2213 l 0.4068,1.2213 4.4785,-1.2213 0.4069,-10.1775 z m 5.2922,-5.2926 -0.4068,2.8499 -10.992,1.6286 v 0 c -1.2214,0 -2.0359,0.4069 -2.0359,1.2213 l -2.0354,-0.4072 1.2214,-6.1067 1.6285,0.4073 c 0,0 0,0 0,0.4068 0,0.4073 0,0.4073 0,0.8145 0.4069,0 0.4069,0.4069 0.8141,0.4069 h 0.4073 v 0 l 2.0354,-0.4069 0.8141,-3.664 -1.6282,-0.8145 h -0.4072 v 0 c -0.4073,-0.4068 -0.8141,0 -0.8141,0 -0.4073,0 -0.4073,0.4073 -0.4073,0.8145 h -2.0354 l 1.2213,-5.2926 1.6282,0.4073 c 0,0.8141 0.4073,1.6282 1.6286,2.4426 h 0.4072 z m -3.2567,0.4073 -3.664,-2.4427 -0.4073,2.8499 z m 3.664,-16.6915 -0.8141,0.8141 c 0.8141,0.8141 1.2213,1.6286 1.6281,2.4427 0,0.4072 0,1.2213 -0.4068,2.0354 v 0 l -7.328,-2.4426 c -0.8145,-0.4069 -1.6286,-0.4069 -1.6286,-0.8141 -0.4072,-0.4073 -0.4072,-0.8141 -0.4072,-1.2214 l -1.6282,-0.8141 -2.0358,6.1067 1.6286,0.4069 0.814,-0.8141 c 0.4073,0 1.2214,0 2.4427,0.4072 l 7.328,2.4427 v 0 c -0.4068,0.8141 -0.8141,1.6282 -1.6282,2.0354 -0.4072,0 -1.2213,0.4072 -2.4426,0.4072 v 1.6282 h 4.4781 l 3.664,-9.7706 z m 4.0712,-2.0358 2.4427,-2.4426 c 0.4068,-1.2214 0.3103,-2.132 0,-3.2568 -0.3107,-1.1248 -1.3179,-2.132 -2.0359,-2.4427 -0.7175,-0.3107 -1.2213,-0.4072 -2.0354,-0.4072 -0.4072,0 -1.2213,0 -1.6286,0 0,0.4072 -0.5033,0.5038 -0.814,0.8145 -0.3108,0.3103 -0.8141,1.2213 -1.6286,1.6282 0,0.4072 -0.4069,0.4072 -0.4069,0.4072 -1.2213,1.6286 -2.0358,2.0354 -2.8499,1.6286 -0.4072,0 -0.8141,-0.4073 -0.8141,-0.8145 -0.4072,-0.8141 0,-1.2213 0,-2.0354 0.4069,-0.8141 1.2214,-1.2214 2.0355,-1.6286 1.2213,-0.4069 2.4426,-0.8141 3.664,-0.8141 v -1.2213 l -5.2926,-1.2214 -0.4069,1.2214 0.8141,0.4072 c -0.8141,0.4069 -1.2213,0.8141 -1.6286,1.2213 -0.4064,0.4065 -0.814,0.8141 -0.814,1.6282 -0.8141,1.2214 -0.7176,2.5392 -0.4073,3.664 0.3107,1.1248 1.2213,2.0358 2.4427,2.8499 1.2213,0.4073 2.0358,0.4073 2.8499,0.4073 0.8141,-0.4073 1.6286,-1.2214 2.8499,-2.4427 0,0 0.4068,0 0.4068,-0.4072 1.6286,-1.6286 2.4427,-2.4427 3.2572,-2.0355 0.4068,0 0.4068,0.4069 0.4068,0.8141 0.4073,0.4073 0,0.8141 0,1.6286 -0.4068,0.4069 -0.9106,1.3179 -1.6281,1.6282 -0.718,0.3107 -1.6286,0.4072 -2.8499,0.4072 v 1.2214 l 4.0712,1.2213 0.8141,-1.2213 z m 138.4175,-34.6042 1.2214,1.6282 4.0712,4.0713 1.6286,1.6285 -1.6286,1.2214 -2.4427,2.4426 -1.2213,1.2214 -1.6286,-1.6286 -4.0708,-4.4781 -1.2213,-1.2213 1.2213,-1.2214 2.8495,-2.4426 z m 2.8499,-4.4784 2.0355,-1.6282 1.6285,2.0354 7.7353,8.1421 1.6282,1.6286 -1.6282,1.6285 -9.7707,8.9562 -0.8145,0.8145 h -1.2213 c -0.4068,-0.4072 -1.2213,-0.8145 -2.4427,-2.0358 0,-0.4069 0.4073,-0.4069 0.4073,-0.8141 0.4072,0 0.4072,-0.4072 0.8141,-0.8141 v -0.8145 l 1.2213,1.2214 c 0.4072,0.4072 0.4072,0.4072 0.8145,0.4072 0,0 0.4068,0 0.4068,-0.4072 l 8.9566,-8.1421 -7.7352,-8.1421 z m 7.328,10.1779 -1.6285,1.6285 -1.6282,-1.6285 -5.6998,-6.1067 -1.6282,-1.6286 1.6282,-1.6282 1.6285,1.6282 5.6995,6.1067 z m -8.5493,3.2567 2.0354,-2.0354 -3.664,-3.664 -2.0354,2.0354 z M 279.5199,206.187 c -0.4073,1.2214 -0.4073,1.6286 -0.8141,2.4427 v 1.6286 c -0.4073,0.8141 -0.4073,1.6286 0,2.4427 0,0.8141 0.4068,1.6285 0.8141,2.8499 0.4072,0.8141 0.8141,2.0354 1.6286,2.8495 0.814,-0.8141 1.6281,-1.2213 1.6281,-1.2213 0.4073,0 0.4073,0 0.8145,-0.4069 l -1.2213,-1.2213 c 0,0 -0.4073,-0.4073 -0.4073,-0.8145 -0.4072,-0.4069 -0.5037,-0.9106 -0.814,-1.6282 -0.3108,-0.7179 -0.4073,-1.6286 -0.4073,-2.4427 0.4073,-0.8144 0.4073,-1.2213 0.4073,-1.6285 0.4068,-0.4073 0.4068,-0.8141 0.4068,-0.8141 0,-0.4073 0.4072,-0.4073 0.4072,-0.8145 z m -12.6206,8.9566 h -1.6282 c 0,0 0,0 0,0.8141 0,0.4073 0,0.8145 -0.4072,2.0358 0.8141,0 1.2213,0.4069 2.0354,0.4069 0.4072,0.4072 1.6286,0.8145 3.664,1.6286 2.4427,0.8141 4.0712,1.6285 4.8853,2.0354 0,0.8145 0.4073,1.2213 0,1.6286 v 0.8141 l 0.8145,-0.4069 c 0,0 0.8141,0 2.0354,-0.4072 0,-1.6286 -0.4072,-4.0713 -0.814,-6.9208 0,0 0,0 -0.4073,0 -0.4072,0 -1.2213,0 -2.0354,0 v 1.2213 c 0.4068,0.4069 0.4068,0.8141 0.4068,2.0355 -2.0354,-1.2214 -4.4781,-2.0355 -6.5135,-3.2568 0.8141,-0.4072 1.6282,-0.8145 2.4427,-0.8145 l 4.0708,-2.0354 c 0,0 0.4073,0 0.8145,-0.4072 -0.8145,-0.8141 -1.2213,-1.6282 -1.6286,-2.4427 l -0.4072,0.4072 c 0,0 -0.4072,0.4073 -1.2213,0.8141 -0.8141,0.4069 -1.6282,0.8145 -2.4427,1.2214 -0.4068,0.4072 -1.2213,0.8144 -2.0354,0.8144 -0.4073,0.4069 -1.2214,0.4069 -1.6286,0.8141 z m 0.4072,-4.4781 c 1.2214,0 2.5392,-0.5037 3.664,-0.8144 1.1248,-0.3104 2.4427,-0.8141 3.2568,-1.2214 0.8145,-0.8141 2.0358,-1.2213 3.2572,-2.0354 -0.8145,-0.4073 -1.2214,-1.2213 -1.6286,-2.0354 l -0.4073,0.4068 c -0.8141,0.4073 -1.6281,1.2213 -2.8495,1.6286 -0.8145,0.4072 -2.0358,0.8141 -3.2571,1.2213 -0.8141,0.4073 -2.0355,0.4073 -2.8495,0.4073 l 0.4068,0.4068 c 0,0.4073 0.4072,1.2214 0.4072,2.0358 z m -29.7192,0.8141 0.4072,-2.4426 2.0355,-11.8061 0.4072,-2.4427 2.4427,0.4068 10.992,2.0359 2.4426,0.4068 -0.4072,2.0358 -2.0354,12.6202 c 0,0.4073 0,0.8145 -0.4073,0.8145 0,0.4069 -0.4068,0.8141 -1.2213,0.8141 -0.4069,0 -1.2213,0 -2.4427,0 0,0 0,-0.4072 0,-0.8141 0,-0.4072 0,-0.8145 -0.4068,-1.2213 v -0.8145 c 0.4068,0 0.8141,0.4072 1.2213,0.4072 0.4069,0 0.8141,0 0.8141,0 0,-0.4072 0,-0.4072 0.4072,-0.8141 l 1.6282,-11.3992 -10.992,-1.6286 -0.4068,2.4427 h 0.4068 c 0.4073,0 0.8145,-0.4069 1.2214,-0.4069 0.4072,0.4069 0.8144,0.8141 0.8144,1.6282 0.4069,-0.4068 0.4069,-0.8141 0.4069,-1.2213 0,0 0,-0.4069 0.4072,-0.8141 v -0.8141 c 0.8141,0.4068 1.2214,0.8141 2.4427,0.8141 0,0.4072 -0.4072,0.4072 -0.4072,0.8141 0,0.4072 0,0.4072 0,0.4072 l -0.4069,1.2214 c 0.4069,-0.4073 1.2213,-0.4073 1.2213,-0.8141 h 0.4069 c 0.4072,0.4068 0.8145,0.8141 0.8145,1.2213 0.4068,-0.8145 0.4068,-1.6286 0.4068,-2.0358 l 0.4073,-0.4069 c 0.8141,0.4069 1.6285,0.4069 2.4426,0.8141 -0.4072,0 -0.4072,0.4073 -0.4072,0.4073 l -0.4069,1.2213 c 0,0.8141 -0.4072,1.2213 -0.4072,1.6282 l -0.8141,1.2213 c 0.8141,1.6286 1.2213,2.8499 1.2213,2.8499 v 0.4073 c -0.4072,0.4068 -1.2213,0.8141 -2.0358,1.6282 v -1.2214 l -0.4068,-1.2213 c -0.8145,1.2213 -1.6286,2.0358 -1.6286,2.0358 -0.4072,0.4069 -0.8141,0.8141 -1.2213,0.8141 l -0.4073,-0.4072 c -0.4068,-0.4069 -0.8141,-0.4069 -1.2213,-1.2214 0.8145,-0.4068 1.2213,-0.8141 1.6286,-1.2213 0.4072,-0.8141 0.8141,-1.2214 1.2213,-1.6282 l 0.4072,-0.8145 c 0,-0.8141 -0.4072,-1.2213 -0.4072,-1.6282 0,-0.4072 -0.4072,-0.8145 -0.8141,-1.6285 -0.4072,0.814 -0.8145,1.2213 -0.8145,1.6285 l -0.4068,0.4069 c 0.4068,0.8145 0.8141,2.0358 1.2213,2.8499 l -2.4427,1.2213 v -1.6286 c -0.4072,0.4073 -0.4072,0.8145 -0.8144,0.8145 0,0.4069 -0.8141,0.8141 -1.6282,1.6282 0,0 0,-0.4068 -0.4073,-0.4068 0,-0.4073 -0.4072,-0.8145 -0.8141,-1.2214 l -0.4072,2.4427 -0.4072,2.4427 z m 3.2571,-4.8853 c 0.8141,-0.4073 1.2214,-0.8141 1.2214,-1.2213 0.4068,-0.4073 0.8141,-0.8141 1.2213,-1.6286 -0.4072,-1.2214 -0.8145,-2.0354 -0.8145,-2.4427 l -0.4068,-0.8141 z m -21.984,-0.4073 4.0709,-0.814 -0.4069,-2.0355 -4.0712,0.8141 z m -0.8144,-4.0708 4.4784,-0.8145 -0.4072,-2.4427 -4.4781,0.8145 z m -5.2922,5.2922 3.664,-0.8141 -0.4073,-2.0354 -3.664,0.4068 z m -4.0713,-8.5494 2.0355,-0.4068 4.0712,-0.4072 v -1.2214 l -0.4072,-1.6286 2.4426,-0.4068 0.4073,1.6282 v 1.2213 l 5.2925,-0.8141 1.6282,-0.4072 v 1.6286 l 1.2214,7.7352 0.4072,2.0354 -2.4427,0.4073 v -0.4073 l -4.0712,0.4073 0.4072,2.0354 v 0.4072 c 0,0.4069 0.4073,0.4069 0.8141,0.4069 l 2.4427,-0.4069 c 0.8145,0 1.6286,-0.4072 1.6286,-0.4072 0.4072,0 0.8141,-0.4072 1.2213,-0.4072 v -2.0355 c 1.2213,0.4073 2.0354,0.8141 2.8499,0.8141 -0.4072,1.2214 -0.4072,2.4427 -0.8145,2.4427 0,0.4072 -0.4068,0.8145 -0.8141,0.8145 0,0.4068 -0.4072,0.4068 -1.2213,0.4068 -0.4072,0.4073 -1.6286,0.4073 -2.8499,0.4073 -1.2213,0.4072 -2.0354,0.4072 -2.8495,0.4072 -0.8145,0.4069 -1.2214,0.4069 -1.6286,0 -0.4072,0 -0.8141,-0.4072 -0.8141,-0.4072 0,-0.4073 -0.4072,-0.8141 -0.4072,-1.2214 l -0.4073,-2.8499 -3.664,0.8145 v 0 l -2.4426,0.4069 -0.4069,-1.6282 -1.2213,-7.7353 z m 3.2568,4.0713 3.664,-0.4073 -0.4069,-2.4426 -3.664,0.8145 z m -28.4975,10.992 -0.4073,-1.2213 -0.4072,-1.2214 10.992,-5.6994 0.8145,1.2213 0.4068,0.8141 2.4427,-1.2213 -0.8141,-0.8141 -0.8141,-2.0358 -0.8145,-1.2214 -1.6282,1.2214 -5.2925,2.4426 c 0.4072,0 0.4072,-0.4068 0.4072,-0.4068 -0.4072,-0.4072 -1.2213,-0.4072 -2.4427,-0.8145 -0.4072,0.8145 -0.8144,1.2213 -0.8144,1.6286 l -0.4069,0.4072 c 0.4069,0 0.8141,0.4069 1.2213,0.4069 l -4.4784,2.4427 -2.0355,0.8144 0.4073,1.2214 1.2213,2.0354 0.4069,0.8141 z m 6.1066,5.2926 c -0.8144,1.6282 -2.4426,2.8495 -4.0712,4.4781 l 0.8141,0.4072 c 0.4072,0 0.8145,0.4069 1.2213,0.8141 l 2.0358,-2.0354 c 0.4069,-0.8145 1.2214,-1.6286 1.6282,-2.4427 0.8145,-1.2213 1.2214,-2.0358 1.6286,-2.8499 l 0.4072,0.4072 v 0.8141 c 0.4069,0.4073 0.4069,0.8141 0,0.8141 0,0.4073 -0.4072,0.8145 -1.6285,1.2214 l 0.8141,0.4072 c 0.4072,0 0.8144,0.4072 1.2213,1.2213 1.2213,-0.8141 2.0358,-1.2213 2.4427,-2.0354 v -1.6286 c -0.4069,-0.4072 -0.4069,-0.8141 -0.8141,-1.6285 -0.4073,-0.4069 -0.8141,-1.2214 -0.8141,-1.2214 0,-0.4068 -0.4073,-0.4068 -0.4073,-0.8141 l 0.4073,-0.8141 c 0.8141,0.8141 1.2213,1.6282 2.0354,2.0355 0.8141,0.4072 1.2213,0.8141 2.0354,0.8141 0.8145,0.4072 2.0358,0.4072 3.664,0.8144 v -1.6285 c 0.4073,-0.4073 0.4073,-0.8141 0.4073,-1.2214 h -3.2568 l -2.4427,-1.2213 -1.2213,-1.2213 1.2213,-2.4427 c -0.8144,-0.4072 -1.6285,-0.4072 -1.6285,-0.4072 -0.4073,0 -0.8141,-0.4069 -0.8141,-0.4069 l -0.4073,1.2213 c -0.4072,0.4069 -0.8141,1.6282 -1.6285,3.2568 l -0.4069,-0.4072 c -0.4072,0 -0.8145,-0.4069 -1.6286,-0.4069 0.4073,-0.4072 0.8141,-1.2213 1.2214,-2.0358 h -0.8141 l 2.4426,-1.2213 1.6282,-0.8141 -0.8141,-2.0355 -1.6285,0.8141 -7.328,4.0713 -1.6282,0.4068 1.2213,2.0358 1.2213,-0.8144 2.4427,-1.2214 c -0.8145,1.2214 -2.0358,2.4427 -2.8499,3.2572 -0.8141,0.4068 -1.6286,1.2213 -2.0354,1.2213 0.8141,0.4069 1.2213,0.8141 1.2213,0.8141 l 0.8141,0.8141 3.664,-3.664 v 0 l -1.2213,2.4427 c -0.8141,0.8144 -1.3179,1.3178 -1.6286,1.6285 -0.3103,0.3107 -1.2213,0.8141 -1.6282,1.2214 0.8141,0.4072 1.2213,0.8141 1.2213,0.8141 l 0.8141,0.8144 c 1.2214,-1.2213 2.0355,-2.4426 2.4427,-3.2571 0.8141,-0.8141 1.2213,-1.6282 2.0354,-2.8495 l 0.4073,0.4068 c -0.4073,0.8145 -1.2214,2.0358 -2.0355,3.2572 z m -21.1699,20.3554 8.1421,-8.5493 -9.3634,-8.9566 -8.1421,8.5493 z m -12.6206,-8.5493 1.2214,-1.6286 8.9566,-8.9562 1.2213,-1.6286 1.6286,1.6286 9.3634,8.9562 1.6286,1.2213 -1.6286,2.0358 v -0.4072 l -8.5493,8.5493 0.4072,0.4073 -1.6286,1.6282 -1.6285,-1.6282 -9.7707,-8.9566 z m 10.178,6.1066 1.6285,-1.2213 1.6282,-2.0354 -2.0354,-1.6286 -1.2213,1.2213 -1.2214,1.2214 -1.6286,-1.2214 1.2214,-1.2213 1.6286,-1.6286 -1.6286,-1.2213 -1.6282,1.6286 -1.2213,1.6285 -1.6286,-1.6285 1.2213,-1.2214 5.2926,-5.2925 1.2213,-1.2214 1.6282,1.2214 -1.2213,1.2213 -2.0354,2.0358 1.6285,1.2213 1.6282,-1.6285 0.8145,-1.2214 1.6282,1.6286 -1.2213,0.8141 h 2.4426 v 1.6286 l 1.2214,-1.2214 1.2213,1.2214 -1.2213,1.2213 -5.2922,5.6994 -1.2214,1.2214 z m 6.1066,-6.5139 h -2.4426 c 0.4072,-0.4068 0.4072,-0.8141 0.4072,-1.2213 l -1.2213,0.8145 2.0354,2.0354 z m 144.9315,51.296 c -0.4069,-0.4068 0,-0.8141 0,-1.2213 0.4072,0 1.2213,-0.4069 2.0358,-0.4069 l 5.2922,-1.2213 h 2.0358 c 0.4068,0.4069 0.8141,0.4069 0.8141,1.2213 l 1.6286,-0.4072 -0.8145,-6.1067 -2.0354,0.4073 c 0.4072,0.4068 0,0.8141 0,1.2213 -0.4073,0 -1.2214,0.4069 -2.0355,0.4069 l -5.2925,1.2213 h -2.0355 c -0.4072,-0.4069 -0.8145,-0.4069 -0.8145,-1.2213 l -1.6281,0.4072 1.2213,6.1067 z m 0.8145,15.4705 c 0,-0.8145 0,-1.2213 0.4068,-1.2213 0.4073,-0.4073 0.8145,-0.4073 2.0358,-0.4073 l 5.2922,-0.4072 h 2.4427 c 0,0.4072 0.4072,0.8145 0.4072,1.2213 h 1.6286 l -0.4072,-6.1066 h -1.6286 c 0,0.4072 0,0.8144 -0.4069,1.2213 -0.4072,0 -0.8145,0.4072 -2.0358,0.4072 h -2.4427 l -0.4068,-4.4781 2.4427,-0.4072 c 1.2213,0 2.0354,0 2.0354,0.4072 0.4072,0 0.8141,0.4069 0.8141,0.8141 h 1.6286 l -0.4073,-6.1066 h -2.0354 c 0.4072,0.8141 0,1.2213 0,1.2213 -0.4073,0.4072 -1.2213,0.4072 -2.4427,0.4072 l -5.2926,0.4069 h -2.0354 c -0.4072,-0.4069 -0.4072,-0.4069 -0.4072,-1.2213 h -2.0354 l 0.4072,6.5139 1.6282,-0.4073 c 0,-0.4068 0.4072,-0.8141 0.8145,-1.2213 0.97,-0.4846 2.1933,-0.4069 3.2567,-0.4069 l 0.4073,4.8854 c 0,0 0,0 -1.6286,0 -0.8141,0 -1.6286,0 -2.0354,-0.4073 -0.4073,0 -0.4073,-0.4072 -0.4073,-0.8141 h -1.6286 l 0.4073,6.1067 z m -1.6286,2.4427 c 0,0.4068 -0.4073,0.8141 -0.8141,1.2213 v 1.6282 c -0.4072,2.0358 0,3.2571 1.2213,4.8853 1.6282,1.2214 3.2568,2.0358 5.2922,2.0358 2.0358,0.4069 4.0713,0 5.2926,-1.2213 1.6286,-1.2213 2.4427,-2.4427 2.4427,-4.4785 0.4072,-1.6282 0,-2.8495 -0.4073,-3.664 -0.8141,-1.2213 -1.6282,-2.0354 -3.2567,-2.8495 l -0.8141,1.2213 c 0.8141,0.8141 1.7247,1.7248 2.0354,2.4427 0.3107,0.7176 0.8141,1.2213 0.8141,2.0354 -0.4069,1.2214 -0.8141,2.0355 -2.0354,2.8499 -0.8141,0.4069 -2.0355,0.4069 -3.664,0.4069 -1.6286,0 -3.2568,-0.4069 -4.0713,-1.2213 -0.8141,-0.8141 -1.2213,-1.6282 -1.2213,-2.8496 0,-0.8144 0.4072,-1.2217 1.2213,-2.0358 0.8141,-0.8141 1.6286,-1.2213 2.8499,-1.6282 v -1.2213 l -5.2926,1.2213 -0.4068,0.8141 z m -5.2926,25.648 c 0.4072,-0.4073 0.4072,-0.8145 0.8145,-0.8145 0.4068,-0.4068 1.2213,0 2.0354,0.4072 l 5.2926,1.6286 1.6282,0.8141 c 0.4072,0.4073 0.4072,0.8141 0.4072,1.6286 l 1.6286,0.4068 2.0354,-6.1066 -1.6286,-0.4069 -0.814,0.8141 c -0.4073,0 -1.2214,0 -2.0355,-0.4072 l -2.4426,-0.8141 0.4068,-0.4073 c 0,-0.4068 0.4073,-0.8141 0.8145,-0.8141 0.4068,-0.4072 1.2213,-0.4072 2.0354,0 l 0.4073,-1.2213 -6.5139,-2.0354 -0.4073,0.8141 c 0.8145,0.4072 1.6286,0.8141 1.6286,1.2213 0.4072,0.4073 0.4072,0.8141 0,1.6286 v 0.4068 l -2.0354,-0.8141 c -0.8145,0 -1.2214,-0.4072 -1.2214,-0.814 v -1.2214 c 0.4069,-0.8145 0.8141,-1.6286 1.6282,-2.0358 0.8145,-0.8141 1.6286,-1.2213 2.8499,-1.2213 l -0.4072,-1.2214 -4.0709,0.4073 -3.664,9.7706 z m -5.2922,10.992 c -0.8145,-1.6286 -0.8145,-3.664 0.4069,-5.2926 0.8145,-1.6286 2.0358,-2.8499 3.664,-3.664 1.6285,-0.4072 3.664,-0.4072 5.6998,0.8141 2.0354,0.8145 3.2568,2.0358 4.0708,3.664 0.4073,1.6286 0.4073,3.664 -0.4068,5.2926 -0.8145,2.0354 -2.0358,3.2567 -4.0712,3.664 -1.6286,0.4072 -3.2568,0.4072 -5.2926,-0.4073 -2.0355,-1.2213 -3.2568,-2.4426 -4.0709,-4.0708 z m 4.0709,-6.1067 c -1.2214,0 -1.6282,0.8141 -2.4427,1.6282 -0.4068,0.8145 0,1.6286 0.4072,2.8499 0.8141,0.8141 1.7252,1.7251 3.2568,2.4427 1.532,0.7175 3.2572,0.8141 4.0713,0.8141 1.2213,0 2.0354,-0.4069 2.4426,-1.6282 0.4073,-0.8145 0.4073,-1.6286 -0.4072,-2.8499 -0.4069,-0.8141 -1.6282,-1.6286 -3.2568,-2.4427 -1.6286,-0.8141 -2.8499,-0.8141 -4.0712,-0.8141 z m -16.6915,21.1695 c 0.4073,-0.4068 0.8141,-0.4068 1.2214,-0.4068 0.4072,0 0.8141,0.4068 1.6286,1.2213 l 4.0708,3.664 c 0.8145,0.8141 1.2213,1.2214 1.2213,1.6282 0,0.4073 0,0.8145 -0.4068,1.2213 l 1.2213,1.2214 3.2568,-3.664 -1.2214,-0.8141 c -0.4072,0.4072 -0.814,0.4072 -1.2213,0.4072 -0.4072,0 -0.8141,-0.4072 -1.6286,-1.2213 l -4.8853,-4.4785 11.8065,2.8499 1.6282,-1.6286 -6.9208,-6.5135 c -0.8141,-0.8145 -1.2213,-1.2213 -1.2213,-1.6286 -0.4073,-0.4072 0,-0.814 0.4072,-1.2213 l -1.2213,-0.8141 -3.2572,3.2568 1.2214,1.2213 c 0.4072,-0.4072 0.8145,-0.8141 1.2213,-0.8141 0,0 0.8145,0.8141 1.6286,1.2214 l 2.8499,2.8495 -8.9566,-2.4427 -3.664,4.0712 z m -8.9565,8.1425 c 0,-2.0358 0.911,-3.7605 2.4426,-4.8853 1.5321,-1.1248 3.2572,-1.6286 5.2926,-1.2213 1.6286,0 3.2568,1.2213 4.8853,2.8495 1.2214,1.6286 2.0355,3.2571 1.6286,5.2926 0,1.6285 -0.911,3.3532 -2.4426,4.478 -1.5321,1.1248 -3.2572,1.6286 -5.2926,1.6286 -1.6286,-0.4072 -3.2568,-1.2213 -4.8854,-3.2567 -1.2213,-1.6286 -1.6285,-3.2572 -1.6285,-4.8854 z m 6.5139,-3.664 c -1.2214,-0.4072 -2.0354,-0.4072 -2.8499,0.4069 -0.8141,0.4072 -1.2214,1.2213 -0.8141,2.4426 0,1.2214 0.8141,2.4427 1.6286,3.664 1.2213,1.2214 2.4426,2.4427 3.2567,2.85 1.2213,0.4072 2.0354,0 2.8499,-0.4073 0.8141,-0.8141 1.2214,-1.6282 0.8141,-2.8495 0,-0.8145 -0.4072,-2.0358 -1.6286,-3.664 -1.2213,-1.2213 -2.0354,-2.0358 -3.2567,-2.4427 z m -24.8339,16.6915 h 1.2213 c 0,-1.2214 0,-2.0355 0.4072,-2.4427 0,-0.8141 0.8141,-1.2213 1.2214,-1.6286 h 0.4072 l 3.664,6.5139 c 0.4069,1.2214 0.8141,1.6286 0.8141,2.0354 -0.4072,0.4073 -0.4072,0.8145 -1.2213,1.2214 l 0.8141,1.2213 5.6998,-2.8495 -0.8145,-1.2213 H 276.67 c -0.4069,-0.4073 -0.8141,-0.8145 -1.2214,-1.6286 l -3.664,-6.9208 v 0 c 0.8145,-0.4072 1.6286,-0.8145 2.4427,-0.4072 0.4072,0 1.2213,0.4072 2.4427,1.2213 l 0.8145,-1.2213 -3.664,-2.8499 -8.9566,4.8853 z m -7.328,-2.0355 2.8499,-0.8145 6.9207,8.1425 v 0 c 0.8145,0.8141 1.6286,1.2214 2.4427,1.2214 l 0.4072,1.6281 -5.6994,2.0359 -0.4072,-1.6286 v 0 c 0.4072,0 0.8141,-0.4073 0.8141,-0.4073 v -0.814 0 c 0,-0.4073 0,-0.4073 -0.4069,-0.4073 l -1.2213,-1.6282 -3.664,1.6282 0.4068,1.6286 v 0.4072 0 c 0,0.4069 0.4073,0.8141 0.4073,0.8141 h 1.2213 l 0.8141,1.2214 -4.8853,2.0354 -0.8141,-1.6282 c 0.8141,-0.4072 1.2213,-1.2213 1.2213,-2.8499 v 0 z m 2.0358,2.8495 v 4.0713 l 2.4426,-0.8141 z m -19.9486,0.8145 7.328,-0.8145 c 1.6286,-0.4068 3.2568,-0.4068 4.0712,0 0.8141,0.8145 1.6282,1.6286 1.6282,2.85 0.4073,0.814 0,1.6285 -0.4068,2.4426 -0.4073,0.4073 -0.8145,1.2214 -2.0358,1.6286 l 3.2571,2.8495 c 0.4069,0.4073 0.8141,0.8145 1.2213,0.8145 0.4069,0 0.8141,0.4068 1.2214,0 v 1.6282 l -3.664,0.8145 -5.2926,-5.2926 -1.2213,0.4072 0.4072,1.6282 c 0,0.8145 0.4069,1.6286 0.8141,2.0358 0,0 0.4072,0.4069 1.2213,0 v 2.0355 l -6.1066,0.814 -0.4073,-1.6281 c 0.8145,0 1.2214,-0.4073 1.2214,-0.8145 0.4072,0 0.4072,-0.8141 0,-2.0354 l -0.8141,-5.2926 c 0,-0.8141 -0.4073,-1.6282 -0.8141,-2.0354 0,0 -0.4073,-0.4073 -1.2214,0 z m 6.1067,5.2922 v 0 h 0.4072 c 1.2213,-0.4068 2.0354,-0.4068 2.8495,-0.8141 0.4073,-0.8141 0.4073,-1.2213 0.4073,-2.0354 0,-0.4072 -0.4073,-1.2213 -0.8141,-1.2213 -0.8145,-0.4073 -1.2214,-0.4073 -2.4427,-0.4073 -0.4072,0 -0.8145,0.4073 -0.8145,0.4073 -0.4068,0.4068 -0.4068,0.8141 0,1.6281 z m -17.5059,-2.8495 c 1.2213,-1.2213 2.8499,-2.0358 4.8853,-2.0358 2.0358,0 3.664,0.4072 4.8853,1.6286 1.2214,1.2213 2.0358,3.2567 2.0358,5.2925 0,2.0355 -0.4072,4.0709 -1.6285,5.2922 -1.2214,1.2213 -2.8499,2.0358 -4.8854,2.0358 -2.0354,0 -3.664,-0.4072 -4.8853,-1.6285 -1.6286,-1.2214 -2.0354,-3.2568 -2.0354,-5.2926 -0.4073,-2.0354 0.4068,-4.0709 1.6282,-5.2922 z m 7.328,0.8141 c -0.8141,-0.8141 -1.6282,-1.2213 -2.4427,-1.2213 -1.2213,0 -2.0354,0.4072 -2.4427,1.6285 -0.4068,0.8141 -0.8141,2.4427 -0.8141,4.0709 0,1.6286 0.4073,2.8499 1.2214,4.0712 0.4072,0.8141 1.2213,1.2214 2.4426,1.2214 0.8141,0 1.6286,-0.4073 2.4427,-1.6286 0.4072,-0.8141 0.8141,-2.4427 0.4072,-4.0709 0,-1.6285 -0.4072,-2.8499 -0.8144,-4.0712 z m -20.3555,-4.0713 6.9208,0.8145 c 1.6286,0 2.4431,0.8141 3.2571,1.6282 0.8141,0.8141 1.2214,1.6286 0.8141,3.2572 0,1.2213 -0.4072,2.0354 -1.6285,2.4426 -0.8141,0.8141 -2.0355,0.8141 -3.2568,0.8141 l -2.4427,-0.4072 c 0,0 0,0 0,1.6286 0,0.814 0,1.6285 0,2.0354 0,0.4072 0.4073,0.4072 1.2214,0.4072 l -0.4073,1.6286 -6.1066,-0.4072 0.4072,-2.0355 c 0.4072,0.4069 0.8141,0 1.2213,0 0,-0.4072 0.4073,-1.2213 0.4073,-2.0358 l 0.8141,-5.2922 v -2.4426 c -0.4073,0 -0.8141,-0.4073 -1.2214,-0.4073 z m 4.0713,6.9212 v 0 h 0.4068 c 1.2214,0.4068 2.0358,0 2.4427,-0.4072 0.4072,0 0.8145,-0.8141 0.8145,-1.6286 0,-0.8141 -0.0966,-1.3179 -0.4073,-1.6282 -0.3107,-0.3107 -0.8141,-0.8145 -1.6285,-0.8145 -0.4069,0 -0.8141,0 -0.8141,0 -0.4073,0.4073 -0.4073,0.8145 -0.4073,1.6286 z m -17.0987,-10.992 6.9208,2.0354 c 1.6285,0.4073 2.8499,1.2214 3.2567,2.0354 0.8145,0.8145 0.8145,1.6286 0.8145,2.85 -0.4072,1.2213 -0.8145,1.6285 -1.6286,2.0354 -0.4072,0.4072 -1.2213,0.8145 -2.4426,0.8145 l 1.6285,4.0708 c 0,0.4073 0,0.8145 0.4069,1.2213 0.4072,0 0.8145,0.4073 1.2213,0.4073 l -0.8141,1.6286 -3.664,-1.2214 -2.0354,-6.5139 -1.2213,-0.4072 -0.8145,1.6286 c 0,0.814 -0.4069,1.6285 0,2.0354 0,0.4072 0.4072,0.4072 0.8145,0.8145 l -0.4073,1.6281 -6.1066,-2.0354 0.4072,-1.6286 c 0.8141,0.4073 1.2213,0.4073 1.6282,0 l 0.8145,-1.6281 1.6282,-5.2926 c 0,-1.2213 0.4072,-1.6286 0,-2.0354 0,-0.4073 -0.4069,-0.8145 -0.8141,-0.8145 z m 2.8495,6.9208 0.4073,0.4072 h 0.4072 c 1.2213,0.4068 2.0354,0.4068 2.4427,0 0.8141,0 1.2213,-0.4072 1.6282,-1.2213 0,-0.4073 -0.0966,-1.3179 -0.4069,-1.6286 -0.3107,-0.3107 -0.8145,-0.8141 -1.6286,-1.2213 h -1.2213 c -0.4072,0.4072 -0.8141,0.814 -0.8141,1.2213 z m -14.2487,-10.178 c 1.6285,-0.814 3.664,-0.4068 5.2925,0.4073 2.0355,0.8141 3.2568,2.0354 3.664,4.0712 0.4069,1.6282 0.4069,3.2568 -0.8144,5.2922 -0.8141,2.0358 -2.4427,3.2572 -4.0709,4.0713 -1.6286,0.4072 -3.2571,0.4072 -5.2926,-0.4073 -1.6285,-1.2213 -2.8499,-2.4427 -3.664,-4.0708 -0.4072,-2.0359 0,-3.664 0.8141,-5.6999 1.2214,-2.0354 2.4427,-3.2567 4.0713,-3.664 z m 6.1066,4.0713 c 0,-0.8141 -0.4072,-1.6286 -1.6285,-2.0354 -0.8141,-0.8145 -1.6282,-0.4073 -2.8496,0 -0.8144,0.8141 -1.7251,1.7247 -2.4426,3.2567 -0.718,1.5321 -1.2214,2.8499 -1.2214,4.0713 0.4069,1.2213 0.8141,1.6281 1.6282,2.4426 0.8145,0.4069 2.0358,0.4069 2.8499,-0.4072 0.8141,-0.4073 2.0355,-1.6286 2.4427,-3.2568 0.8141,-1.6285 1.2213,-2.8499 1.2213,-4.0712 z m -10.1779,-7.328 c 0,-0.8141 -0.4068,-1.2213 -0.4068,-1.6286 -0.4073,-0.4068 -0.8145,-0.8141 -1.2214,-0.8141 -1.6285,-1.2213 -3.2571,-1.6286 -4.8853,-1.2213 -2.0358,0 -3.2571,1.2213 -4.8853,2.8499 -1.2214,1.6282 -1.6286,3.664 -1.6286,5.2922 0,1.6286 1.2213,3.2571 2.4427,4.4785 1.2213,0.8141 2.4426,1.2213 3.664,1.2213 1.2213,0.4068 2.8499,0 4.0712,-0.8145 l -0.8145,-1.6282 c -0.8141,0.4069 -1.6282,0.8141 -2.8495,0.8141 -0.8145,0 -1.6286,-0.4072 -2.4427,-0.8141 -0.8144,-0.8145 -1.2213,-1.6285 -1.2213,-2.8499 0,-1.2213 0.8141,-2.4426 1.6282,-3.664 1.2213,-1.2213 2.0358,-2.0354 3.2571,-2.4426 1.2214,-0.4073 2.0355,-0.4073 2.8496,0.4072 0.8144,0.4068 1.2213,1.2213 1.2213,2.0354 0,1.2214 0,2.0354 -0.4069,3.2568 l 1.6282,0.4072 1.6286,-4.8853 -0.8141,-0.8141 z m -19.9482,-19.1341 4.0709,4.8853 c 1.6286,1.6282 2.0358,3.664 2.0358,5.2922 -0.4072,1.6286 -1.2213,3.2572 -2.8499,4.4785 -2.0354,1.6282 -3.664,2.0354 -5.2926,2.0354 -1.6282,-0.4072 -3.2567,-1.2213 -4.8853,-3.2567 l -3.664,-4.8854 1.2213,-0.8145 c 0.4073,0.4073 0.8145,0.4073 1.2213,0.4073 l 1.6286,-0.8141 4.0713,-3.664 c 1.2213,-0.4073 1.6282,-1.2213 1.6282,-1.6286 0,0 0,-0.4072 -0.4069,-0.8141 z m -4.8853,10.1775 c -0.8145,0.4072 -1.2213,0.8145 -1.2213,1.2213 0,0 0,0.4077 0.4068,0.8145 0.8141,0.8141 2.0358,1.6282 2.8499,1.6282 1.2214,-0.4068 2.4427,-0.8141 3.664,-1.6282 1.6286,-1.2213 2.4427,-2.4426 2.4427,-3.2571 0.4072,-1.2214 0,-2.4427 -0.8141,-3.2568 0,-0.4072 -0.4072,-0.4072 -0.8145,-0.4072 0,0 -0.4068,0 -1.2213,0.4072 z m -0.8145,-15.0628 c 0.4073,0.4068 0.4073,0.814 0.4073,1.2213 l -1.6286,1.6282 -4.4781,3.2571 c -0.8141,0.4069 -1.6286,0.8141 -2.0354,0.8141 l -0.8145,-0.8141 -1.6282,1.2214 3.664,4.8853 1.6282,-0.8145 c -0.4069,-0.8141 -0.4069,-1.2213 -0.4069,-1.2213 0,-0.4069 0.8141,-1.2214 1.6282,-1.6282 l 4.4785,-3.2572 c 0.8141,-0.4068 1.2213,-0.8141 1.6282,-0.8141 0.4072,0 0.8145,0.4073 1.2213,0.8141 l 1.2214,-1.2213 -3.6641,-4.8853 z m -5.2922,-13.0279 c 0,0 0.1165,0.0766 3.2568,6.5139 0.7375,1.5122 1.2213,2.85 1.2213,3.664 0,1.2214 -0.8141,2.0355 -2.0354,2.4427 -0.8145,0.4073 -1.6286,0.8141 -2.4427,0.4073 -0.8145,0 -1.2213,-0.4073 -2.0358,-1.2214 l -2.0354,4.0709 c 0,0.4072 -0.4073,0.8145 -0.4073,1.2213 0,0.4072 0,0.8145 0.4073,1.2213 l -1.6286,0.8145 -1.6282,-3.664 3.2568,-6.1066 -0.8141,-1.2214 -1.2213,0.8141 c -1.2214,0.4073 -1.6286,0.8141 -2.0359,1.2213 0,0.4073 0,0.8141 0.4073,1.2214 l -1.6286,0.8141 -2.8495,-5.2922 1.2213,-0.8145 c 0.4069,0.4072 0.8141,0.8145 1.2214,0.8145 0.4068,0 0.8141,-0.4073 2.0354,-0.8145 l 4.4781,-2.4427 c 1.2213,-0.8141 1.6286,-1.2213 2.0358,-1.2213 0,-0.4068 0,-0.8141 -0.4072,-1.6282 z m -3.2571,7.328 h 0.4072 v 0.4073 c 0.8141,1.2213 1.2214,1.6286 2.0354,2.0354 0.4073,0.4072 1.2214,0.4072 1.6286,0 0.8141,-0.4068 0.8141,-0.8141 1.2214,-1.2213 0,-0.8141 0,-1.2214 -0.4073,-2.0355 -0.4068,-0.4072 -0.8141,-0.814 -1.2213,-0.814 0,0 -0.4069,0 -1.2214,0.4068 z m 1.2213,-10.5847 c 0,-0.8141 0,-1.2214 0,-1.6286 0,-0.4068 -0.4068,-0.8141 -0.4068,-1.2213 -0.8145,-2.0355 -2.0359,-2.8499 -3.664,-3.664 -1.6282,-0.8141 -3.2572,-0.4069 -5.2926,0 -2.0354,0.8145 -3.664,2.0358 -4.4781,3.664 -0.8145,1.2213 -1.2213,2.8499 -0.4072,4.4785 0,0.814 0.4076,1.2217 0.814,1.6281 0.4073,0.4073 1.2214,0.8145 1.6286,1.2214 l -0.8141,0.8145 0.8141,2.0354 3.2568,-1.6286 c 0.8145,0 1.2213,0 1.6286,0 0.4072,0 0.4072,0.4072 0.814,0.8145 l 1.6286,-0.8145 -2.0354,-5.2922 -1.6286,0.8141 c 0.4073,0.4073 0.4073,0.8141 0,1.2213 0,0 -0.4072,0.4073 -0.8141,0.4073 -0.8145,0.4068 -1.2213,0.4068 -2.0358,0 -0.4068,0 -0.8141,-0.8145 -1.2213,-1.2213 -0.4069,-1.2214 0,-2.0359 0.4072,-2.85 0.8141,-0.814 2.0354,-1.2213 3.664,-2.0354 1.6286,-0.4072 2.8499,-0.8145 4.0713,-0.4072 0.8141,0 1.6281,0.4072 2.0354,1.2213 v 2.4427 c -0.4073,0.8141 -1.2213,1.6286 -2.0354,2.4426 l 1.2213,1.2214 3.664,-2.8499 -0.4072,-0.8141 z m 122.5406,41.5253 c 0.4073,-0.4072 0.8141,-0.4072 1.2213,-0.4072 l 1.6286,1.6286 2.8495,4.478 c 0.4073,1.2214 0.8145,1.6286 0.8145,2.0359 0,0.4068 -0.4072,0.8141 -0.8145,1.2213 l 0.8145,1.2213 5.2922,-3.2571 -0.8141,-1.6282 c -0.4072,0.4068 -0.8141,0.4068 -1.2213,0.4068 -0.4073,0 -0.8141,-0.814 -1.2214,-1.6281 l -2.8499,-4.4785 c -0.8141,-0.8141 -1.2213,-1.6282 -1.2213,-2.0354 0.4072,-0.4073 0.4072,-0.8141 0.8145,-0.8141 l -0.8145,-1.6286 -5.2922,3.2567 z" />
      <path id="path77" style="fill:#ffffff"
         d="m 303.9759,292.9017 c 0,33.6135 -23.8776,61.6057 -55.4322,68.748 -10.668,-3.7324 -20.0545,-12.3415 -26.992,-24.1288 2.1976,0.1067 4.4222,0.1633 6.6722,0.1633 31.7546,0 58.624,-10.5851 68.8019,-25.2411 -14.2492,11.3992 -37.0473,19.1345 -62.6953,19.1345 -5.6408,0 -11.1389,-0.3674 -16.4377,-1.0608 -1.6126,-3.4904 -3.0321,-7.1865 -4.2327,-11.0596 7.3956,1.0396 15.3036,1.4484 23.5203,1.1284 31.3873,-1.2816 57.4828,-12.893 66.7904,-28.0954 8e-4,0.1376 0.005,0.274 0.005,0.4115 z m -68.6194,70.4606 c -0.8814,0.0325 -1.7658,0.0547 -2.6545,0.0547 -29.7795,0 -55.2293,-17.953 -65.9036,-43.5635 6.3775,5.2418 15.1145,9.6492 25.4311,12.7699 4.7826,10.7755 11.3297,19.1314 18.8957,23.7877 -5.5501,-5.9085 -10.2326,-13.5504 -13.738,-22.3698 4.2956,1.0693 8.8198,1.9241 13.5246,2.5357 5.9136,13.4022 14.5403,23.1291 24.4447,26.7853 z M 162.0323,302.126 c -0.3971,-3.0179 -0.6038,-6.0965 -0.6038,-9.2243 0,-29.5453 18.234,-54.7466 44.1872,-65.263 -13.0368,11.9621 -21.7671,35.439 -21.7671,62.4135 0,5.9992 0.4428,11.8233 1.2702,17.3871 -6.4873,-2.606 -12.2692,-5.8581 -17.1475,-9.6522 4.0103,5.3469 10.1361,9.9875 17.8197,13.6683 0.7164,3.8391 1.6212,7.5348 2.6936,11.0585 -11.6775,-5.1593 -20.9088,-12.2212 -26.4523,-20.3879 z m 68.0425,-79.6868 c 0.8723,-0.0313 1.747,-0.0528 2.6272,-0.0528 34.5025,0 63.6727,24.5686 69.9986,57.2245 -9.4979,18.9828 -37.748,33.7983 -71.6268,34.868 -6.5292,0.3111 -12.8731,0.1196 -18.9453,-0.5257 -1.9663,-7.9721 -3.0387,-16.5679 -3.0387,-25.5296 0,-24.8339 8.1421,-47.2247 20.7626,-60.6594 -15.8773,9.7707 -27.2765,35.8255 -27.2765,66.3589 0,6.4635 0.5131,12.7257 1.471,18.6776 -4.4718,-0.8059 -8.7588,-1.8682 -12.8214,-3.1661 -0.5659,-4.5094 -0.863,-9.1512 -0.863,-13.883 0,-35.6664 16.9826,-65.5428 39.7123,-73.3124 z m -22.1563,106.3412 c -1.1455,-3.458 -2.1273,-7.0931 -2.9234,-10.8787 -4.663,-1.0278 -9.0586,-2.3226 -13.1236,-3.8562 0.6234,3.714 1.4328,7.3213 2.4114,10.7985 4.2948,1.5649 8.8558,2.889 13.6356,3.9364 z" />
      <path id="path79" style="fill:#ffffff"
         d="m 310.2162,292.9017 c 0,21.1801 -8.7166,40.3107 -22.7227,54.1674 -14.0803,13.9307 -33.5052,22.5328 -54.7915,22.5328 -21.4408,0 -40.8231,-8.5619 -54.8436,-22.4335 -14.0146,-13.8653 -22.6703,-33.0362 -22.6703,-54.2667 0,-21.2301 8.6561,-40.4009 22.6707,-54.2667 14.0205,-13.8716 33.4024,-22.4334 54.8432,-22.4334 21.2863,0 40.7112,8.6029 54.7915,22.5331 14.0061,13.8572 22.7227,32.987 22.7227,54.167 z m -1.9541,0 c 0,-20.6399 -8.4947,-39.282 -22.1427,-52.785 -13.7231,-13.577 -32.6598,-21.961 -53.4174,-21.961 -20.9101,0 -39.8061,8.3434 -53.469,21.8613 -13.6563,13.5113 -22.0907,32.1936 -22.0907,52.8847 0,20.6916 8.4344,39.3743 22.0903,52.8848 13.6629,13.5179 32.5593,21.8612 53.4694,21.8612 20.7576,0 39.6947,-8.3836 53.4174,-21.9605 13.6488,-13.5035 22.1427,-32.1455 22.1427,-52.7855 z" />
   </g>
</svg>