<?xml version="1.0" encoding="UTF-8"?>
<svg xmlns="http://www.w3.org/2000/svg" xmlns:xlink="http://www.w3.org/1999/xlink" width="435.16pt" height="406.29pt"
  viewBox="0 0 435.16 406.29" version="1.1">
  <defs>
    <clipPath id="clip1">
      <path d="M 367 254 L 435.160156 254 L 435.160156 353 L 367 353 Z M 367 254 " />
    </clipPath>
    <clipPath id="clip2">
      <path d="M 342 367 L 386 367 L 386 406.289063 L 342 406.289063 Z M 342 367 " />
    </clipPath>
    <clipPath id="clip3">
      <path d="M 0 367 L 68 367 L 68 406.289063 L 0 406.289063 Z M 0 367 " />
    </clipPath>
    <clipPath id="clip4">
      <path d="M 71 367 L 113 367 L 113 406.289063 L 71 406.289063 Z M 71 367 " />
    </clipPath>
    <clipPath id="clip5">
      <path d="M 115 367 L 164 367 L 164 406.289063 L 115 406.289063 Z M 115 367 " />
    </clipPath>
    <clipPath id="clip6">
      <path d="M 167 367 L 180 367 L 180 406.289063 L 167 406.289063 Z M 167 367 " />
    </clipPath>
    <clipPath id="clip7">
      <path d="M 254 367 L 295 367 L 295 406.289063 L 254 406.289063 Z M 254 367 " />
    </clipPath>
    <clipPath id="clip8">
      <path d="M 385 367 L 435.160156 367 L 435.160156 406.289063 L 385 406.289063 Z M 385 367 " />
    </clipPath>
    <clipPath id="clip9">
      <path d="M 201 367 L 251 367 L 251 406.289063 L 201 406.289063 Z M 201 367 " />
    </clipPath>
    <clipPath id="clip10">
      <path d="M 298 367 L 340 367 L 340 406.289063 L 298 406.289063 Z M 298 367 " />
    </clipPath>
  </defs>
  <g id="surface1">
    <path style=" stroke:none;fill-rule:nonzero;fill:rgb(100%,0%,0%);fill-opacity:1;"
      d="M 235.496094 100.996094 C 229.941406 102.683594 224.792969 107.34375 224.792969 107.34375 C 219.265625 111.835938 180.824219 153.742188 180.824219 153.742188 C 169.535156 164.824219 158.515625 155.351563 158.515625 155.351563 L 145.335938 144.320313 C 139.339844 139.242188 132.789063 144.027344 132.789063 144.027344 L 125.539063 148.765625 C 117.3125 154.476563 111.457031 152.960938 108.210938 151.082031 C 123.316406 197.039063 166.566406 230.261719 217.59375 230.261719 C 275.363281 230.261719 323.203125 187.667969 331.429688 132.164063 L 253.265625 102.511719 C 244.695313 99.558594 239.9375 99.726563 235.496094 100.996094 M 145.457031 86.671875 C 178.089844 67.804688 216.1875 71.097656 216.1875 71.097656 C 152.144531 77.761719 129.027344 122.257813 129.027344 122.257813 C 127.039063 125.722656 129.578125 126.453125 129.578125 126.453125 C 131.128906 127.1875 134.128906 125.285156 134.128906 125.285156 L 138.160156 122.695313 C 144.917969 118.570313 149.972656 120.109375 149.972656 120.109375 C 153.902344 120.914063 160.746094 127.0625 160.746094 127.0625 C 165.617188 131.75 170.988281 125.625 170.988281 125.625 C 191.34375 103.4375 219.339844 83.324219 219.339844 83.324219 C 238.007813 71.34375 269.152344 86.476563 269.152344 86.476563 L 332.6875 114.371094 C 332.269531 51.132813 280.929688 0 217.59375 0 C 154.011719 0 102.476563 51.570313 102.476563 115.128906 C 102.476563 122.28125 103.15625 129.238281 104.414063 135.996094 C 110.761719 112.566406 125.785156 98.558594 145.457031 86.671875 " />
    <path style=" stroke:none;fill-rule:nonzero;fill:rgb(255,255,255);fill-opacity:1;"
      d="M 44.652344 301.84375 L 52.171875 301.84375 L 52.109375 343.261719 C 52.109375 343.261719 52.207031 352.195313 62.285156 352.828125 L 88.671875 352.804688 C 89.28125 352.707031 99.191406 354.171875 97.605469 339.476563 C 97.605469 339.476563 96.042969 340.285156 91.308594 340.601563 C 89.964844 340.699219 69.609375 340.574219 69.609375 340.574219 C 69.609375 340.574219 65.851563 340.941406 65.851563 336.914063 L 65.925781 301.84375 L 96.386719 301.84375 L 96.386719 289.835938 L 47.128906 289.835938 L 49.300781 268.136719 L 91.285156 268.207031 L 91.257813 256.46875 L 4.199219 256.46875 L 4.199219 268.136719 L 35.074219 268.136719 L 32.972656 289.835938 L 0.0625 289.835938 L 0.0625 301.84375 L 30.433594 301.84375 C 30.433594 301.84375 23.773438 335.816406 0 336.132813 L 0 353.511719 C 0 353.511719 35.707031 348.460938 44.652344 301.84375 " />
    <path style=" stroke:none;fill-rule:nonzero;fill:rgb(255,255,255);fill-opacity:1;"
      d="M 162.871094 345.726563 L 176.636719 315.363281 L 163.152344 315.363281 L 146.199219 352.878906 C 146.199219 352.878906 158.160156 355.34375 162.871094 345.726563 " />
    <path style=" stroke:none;fill-rule:nonzero;fill:rgb(255,255,255);fill-opacity:1;"
      d="M 126.796875 273.652344 L 143.492188 273.652344 L 143.492188 261.789063 L 129.75 261.789063 L 132.164063 254.394531 L 118.058594 254.394531 L 110.199219 280.535156 L 124.503906 280.535156 " />
    <path style=" stroke:none;fill-rule:nonzero;fill:rgb(255,255,255);fill-opacity:1;"
      d="M 132.875 352.828125 L 139.976563 352.902344 L 145.613281 340.769531 L 135.121094 340.769531 C 133.019531 340.625 133.144531 338.40625 133.144531 338.40625 L 133.144531 319.539063 L 143.492188 319.539063 L 143.492188 307.578125 L 133.144531 307.578125 L 133.144531 296.644531 L 143.492188 296.644531 L 143.492188 284.78125 L 110.46875 284.78125 L 110.46875 296.644531 L 119.390625 296.644531 L 119.390625 307.578125 L 110.46875 307.578125 L 110.46875 319.5625 L 119.351563 319.5625 L 119.351563 341.039063 C 119.351563 341.039063 118.960938 352.097656 132.875 352.828125 " />
    <path style=" stroke:none;fill-rule:nonzero;fill:rgb(255,255,255);fill-opacity:1;"
      d="M 163.820313 278.632813 L 191.816406 278.632813 L 191.84375 283.925781 L 163.820313 283.925781 Z M 163.75 264.035156 L 191.769531 264.035156 L 191.792969 269.382813 L 163.75 269.382813 Z M 208.511719 342.894531 L 208.464844 308.261719 C 207.632813 298.011719 196.296875 298.179688 196.296875 298.179688 L 169.3125 298.179688 L 172.046875 293.664063 L 195.832031 293.664063 C 206.316406 293.835938 206.011719 284.609375 206.011719 284.609375 L 206.011719 261.933594 C 206.804688 253.589844 197.359375 254.441406 197.359375 254.441406 L 158.246094 254.515625 C 158.246094 254.515625 149.800781 254.101563 149.800781 263.375 L 149.800781 286.394531 C 149.8125 293.691406 157.085938 293.664063 157.085938 293.664063 L 157.914063 293.664063 L 144.660156 317.390625 L 153.914063 317.390625 C 153.914063 317.390625 158.574219 317.632813 160.648438 314.214844 L 163.089844 310.019531 L 194.648438 310.019531 L 194.652344 315.265625 L 181.90625 315.265625 L 164.96875 352.804688 C 177.308594 354.027344 181.6875 345.433594 181.6875 345.433594 L 194.652344 316.925781 L 194.660156 339.527344 C 194.480469 341.1875 193.074219 341.066406 193.074219 341.066406 L 188.925781 341.066406 L 183.652344 352.953125 L 198.738281 352.953125 C 207.878906 352.953125 208.511719 342.894531 208.511719 342.894531 " />
    <path style=" stroke:none;fill-rule:nonzero;fill:rgb(255,255,255);fill-opacity:1;"
      d="M 243.488281 336.769531 L 243.488281 285.515625 L 251.960938 285.488281 L 251.960938 273.234375 L 243.488281 273.210938 L 243.488281 254.515625 L 229.820313 254.515625 L 229.820313 273.210938 L 221.71875 273.210938 L 221.71875 285.515625 L 229.820313 285.515625 L 229.820313 338.671875 L 221.15625 340.1875 L 221.15625 352.902344 L 254.703125 347.605469 L 254.691406 334.867188 " />
    <path style=" stroke:none;fill-rule:nonzero;fill:rgb(255,255,255);fill-opacity:1;"
      d="M 259.242188 340.578125 C 259.902344 353.21875 271.886719 352.804688 271.886719 352.804688 L 313.597656 351.804688 C 325.425781 350.558594 321.871094 339.039063 321.871094 339.039063 L 321.542969 337.917969 C 320.289063 338.890625 317.421875 339.039063 317.421875 339.039063 L 275.144531 340.0625 C 272.703125 339.769531 273.328125 336.988281 273.328125 336.988281 L 273.328125 283.171875 L 282.761719 281.828125 L 282.734375 327.761719 C 282.734375 327.761719 294.757813 328.886719 296.476563 316.242188 L 296.476563 279.949219 L 304.410156 278.800781 C 304.410156 278.800781 305.605469 278.726563 305.765625 279.925781 L 305.738281 331.007813 C 305.738281 331.007813 313.832031 330.8125 317.371094 324.664063 C 317.371094 324.664063 318.820313 322.613281 319.519531 317.121094 L 319.652344 276.164063 C 319.496094 264.742188 307.777344 265.597656 307.777344 265.597656 L 296.476563 267.035156 L 296.429688 254.855469 L 282.761719 254.855469 L 282.761719 268.84375 L 273.328125 270.378906 L 273.289063 255.125 L 259.671875 255.175781 L 259.671875 272.1875 L 255.179688 272.75 L 255.179688 285.609375 L 259.671875 284.976563 " />
    <g clip-path="url(#clip1)" clip-rule="nonzero">
      <path style=" stroke:none;fill-rule:nonzero;fill:rgb(255,255,255);fill-opacity:1;"
        d="M 385.660156 278.070313 L 395.914063 278.070313 C 395.914063 283.269531 395.804688 288.46875 395.570313 293.640625 C 395.546875 293.886719 395.523438 294.175781 395.523438 294.398438 L 369.613281 294.398438 L 369.613281 306.480469 L 394.449219 306.480469 C 393.519531 312.628906 391.8125 318.511719 388.359375 324.589844 C 388.359375 324.589844 378.558594 343.824219 367.941406 352.390625 L 382.539063 352.488281 C 382.539063 352.488281 386.859375 352.488281 390.519531 347.582031 C 390.519531 347.582031 399.015625 337.429688 404.066406 323.710938 L 415.390625 345.675781 C 415.390625 345.675781 418.074219 353.121094 425.875 352.632813 L 435.160156 352.585938 L 416.136719 317.414063 C 413.242188 312.339844 408.375 312.777344 408.375 312.777344 L 407.117188 312.777344 C 407.53125 310.675781 407.898438 308.578125 408.203125 306.480469 L 423.347656 306.480469 C 423.347656 306.480469 431.683594 306.285156 432.378906 294.398438 L 409.375 294.398438 C 409.53125 291.957031 409.632813 289.515625 409.738281 287.027344 C 409.777344 286.296875 409.800781 282.707031 409.847656 278.070313 L 422.589844 278.070313 C 431.253906 278.070313 430.9375 266.011719 430.9375 266.011719 L 409.910156 266.011719 C 409.933594 260.667969 409.972656 255.957031 409.996094 254.441406 L 395.789063 254.441406 C 395.914063 257.152344 395.863281 262.035156 395.828125 266.011719 L 388.613281 266.011719 L 390.910156 256.734375 L 376.960938 256.734375 L 368.894531 289.6875 L 382.78125 289.6875 " />
    </g>
    <path style=" stroke:none;fill-rule:nonzero;fill:rgb(255,255,255);fill-opacity:1;"
      d="M 357.324219 353 L 365.660156 353.074219 L 371.3125 340.941406 L 360.15625 340.941406 C 357.421875 340.820313 357.59375 338.085938 357.59375 338.085938 L 357.59375 319.707031 L 367.941406 319.707031 L 367.941406 308.140625 L 357.59375 308.140625 L 357.59375 296.789063 L 367.941406 296.789063 L 367.941406 284.929688 L 334.90625 284.929688 L 334.90625 296.789063 L 343.851563 296.789063 L 343.851563 308.140625 L 334.90625 308.140625 L 334.90625 319.730469 L 343.777344 319.757813 L 343.777344 341.210938 C 343.777344 341.210938 343.414063 352.242188 357.324219 353 " />
    <path style=" stroke:none;fill-rule:nonzero;fill:rgb(255,255,255);fill-opacity:1;"
      d="M 351.273438 273.601563 L 367.941406 273.601563 L 367.941406 261.933594 L 354.214844 261.933594 L 356.617188 254.589844 L 342.511719 254.589844 L 334.652344 280.679688 L 348.953125 280.679688 " />
    <g clip-path="url(#clip2)" clip-rule="nonzero">
      <path style=" stroke:none;fill-rule:nonzero;fill:rgb(255,255,255);fill-opacity:1;"
        d="M 380.878906 378.285156 C 380.878906 371.769531 374.777344 367.667969 363.453125 367.667969 L 342.984375 367.667969 L 342.984375 406.234375 L 354.96875 406.234375 L 355.03125 372.890625 L 360.777344 372.890625 C 367.625 372.890625 369.308594 375.089844 369.503906 378.140625 C 369.722656 380.628906 366.675781 383.65625 363.15625 384.3125 L 363.21875 384.339844 C 362.171875 384.609375 360.496094 384.949219 358.507813 385.167969 C 358.449219 385.167969 358.152344 385.242188 358.375 385.609375 C 361.988281 391.882813 370.308594 403.132813 370.308594 403.132813 C 371.945313 404.695313 372.628906 406.234375 377.316406 406.28125 L 385.394531 406.234375 C 385.394531 406.234375 376.460938 395.542969 371.894531 387.929688 C 377.410156 386.558594 380.78125 382.753906 380.878906 378.285156 " />
    </g>
    <g clip-path="url(#clip3)" clip-rule="nonzero">
      <path style=" stroke:none;fill-rule:nonzero;fill:rgb(255,255,255);fill-opacity:1;"
        d="M 49.691406 395.859375 L 42.640625 374.917969 L 40.234375 367.667969 L 28.25 367.667969 L 19.488281 391.734375 L 10.703125 367.667969 L 0 367.667969 C 0 367.667969 9.675781 394.417969 11.984375 400.644531 C 14.328125 407.0625 19.71875 406.257813 19.71875 406.257813 L 21.441406 406.257813 L 32.082031 377.113281 L 42.785156 406.257813 L 53.035156 406.257813 L 67.023438 367.667969 L 59.84375 367.667969 " />
    </g>
    <g clip-path="url(#clip4)" clip-rule="nonzero">
      <path style=" stroke:none;fill-rule:nonzero;fill:rgb(255,255,255);fill-opacity:1;"
        d="M 105.550781 388.683594 C 105.550781 391.710938 105.425781 393.859375 105.109375 395.128906 C 104.804688 396.445313 103.925781 397.519531 102.425781 398.421875 C 100.898438 399.324219 95.1875 399.765625 92.234375 399.765625 C 89.34375 399.765625 87.0625 399.300781 85.378906 398.351563 C 83.707031 397.421875 82.65625 396.175781 82.191406 394.613281 C 81.960938 393.640625 81.839844 391.515625 81.839844 388.246094 L 81.839844 367.667969 L 71.414063 367.667969 L 71.414063 387.929688 C 71.414063 392.199219 71.746094 395.371094 72.441406 397.570313 C 72.90625 399.035156 73.867188 400.449219 75.34375 401.765625 C 76.835938 403.109375 78.835938 404.160156 81.375 405.0625 C 83.9375 405.867188 87.644531 406.28125 92.539063 406.28125 C 96.640625 406.28125 99.921875 405.914063 102.449219 405.160156 C 104.988281 404.402344 107.027344 403.355469 108.515625 402.035156 C 110.027344 400.742188 111.078125 399.179688 111.640625 397.25 C 112.199219 395.371094 112.46875 392.199219 112.46875 387.632813 L 112.46875 367.667969 L 105.550781 367.667969 " />
    </g>
    <g clip-path="url(#clip5)" clip-rule="nonzero">
      <path style=" stroke:none;fill-rule:nonzero;fill:rgb(255,255,255);fill-opacity:1;"
        d="M 161.382813 367.667969 L 151.632813 367.667969 L 140.441406 379.847656 L 129.820313 367.667969 L 115.984375 367.667969 L 133.265625 387.585938 L 115.960938 406.230469 L 125.6875 406.230469 L 138.011719 393.003906 C 138.011719 393.003906 143.894531 400.007813 147.46875 404.109375 C 149.738281 406.746094 159.210938 406.230469 159.210938 406.230469 L 163.722656 406.230469 L 145.222656 385.265625 " />
    </g>
    <g clip-path="url(#clip6)" clip-rule="nonzero">
      <path style=" stroke:none;fill-rule:nonzero;fill:rgb(255,255,255);fill-opacity:1;"
        d="M 167.996094 406.28125 L 179.90625 406.28125 L 179.90625 367.667969 L 167.996094 367.667969 Z M 167.996094 406.28125 " />
    </g>
    <g clip-path="url(#clip7)" clip-rule="nonzero">
      <path style=" stroke:none;fill-rule:nonzero;fill:rgb(255,255,255);fill-opacity:1;"
        d="M 265.308594 388.171875 L 291.109375 388.171875 L 291.109375 382.703125 L 265.308594 382.703125 L 265.308594 373.0625 L 293.058594 373.0625 L 293.058594 367.667969 L 254.910156 367.667969 L 254.910156 400.082031 C 254.910156 407.109375 265.554688 406.234375 265.554688 406.234375 L 294.039063 406.234375 L 294.039063 400.910156 L 265.308594 400.910156 " />
    </g>
    <g clip-path="url(#clip8)" clip-rule="nonzero">
      <path style=" stroke:none;fill-rule:nonzero;fill:rgb(255,255,255);fill-opacity:1;"
        d="M 420.480469 396.640625 C 417.808594 398.8125 414.414063 399.863281 410.265625 399.863281 C 406.09375 399.863281 402.660156 398.789063 399.941406 396.617188 C 397.253906 394.394531 395.914063 391.199219 395.914063 386.953125 C 395.914063 382.65625 397.230469 379.410156 399.84375 377.285156 C 402.480469 375.136719 405.933594 374.0625 410.265625 374.0625 C 414.546875 374.0625 418.003906 375.136719 420.589844 377.261719 C 423.175781 379.359375 424.480469 382.558594 424.480469 386.828125 C 424.480469 391.199219 423.152344 394.445313 420.480469 396.640625 M 428.351563 372.769531 C 423.789063 369.375 417.710938 367.667969 410.117188 367.667969 C 405.933594 367.667969 402.222656 368.132813 399.023438 369.15625 C 396.621094 369.890625 394.386719 370.988281 392.363281 372.5 C 390.347656 374.039063 388.761719 375.722656 387.589844 377.601563 C 386.003906 380.214844 385.222656 383.410156 385.222656 387.195313 C 385.222656 393.148438 387.492188 397.8125 392.007813 401.203125 C 396.523438 404.597656 402.625 406.28125 410.265625 406.28125 C 417.820313 406.28125 423.859375 404.597656 428.375 401.179688 C 432.890625 397.765625 435.160156 393.078125 435.160156 387.023438 C 435.160156 380.945313 432.890625 376.1875 428.351563 372.769531 " />
    </g>
    <g clip-path="url(#clip9)" clip-rule="nonzero">
      <path style=" stroke:none;fill-rule:nonzero;fill:rgb(255,255,255);fill-opacity:1;"
        d="M 236.3125 372.332031 L 226.332031 393.710938 L 226.171875 393.710938 L 214.164063 367.667969 L 201.800781 367.667969 L 201.824219 406.28125 L 208.683594 406.28125 L 208.683594 379.261719 L 221.644531 406.28125 L 227.292969 406.28125 L 239.875 379.386719 L 239.875 406.28125 L 250.480469 406.28125 L 250.480469 367.667969 L 244.027344 367.667969 C 239.4375 367.792969 237.558594 369.988281 236.3125 372.332031 " />
    </g>
    <g clip-path="url(#clip10)" clip-rule="nonzero">
      <path style=" stroke:none;fill-rule:nonzero;fill:rgb(255,255,255);fill-opacity:1;"
        d="M 298.160156 372.992188 L 311.890625 372.992188 L 311.890625 406.28125 L 324.203125 406.28125 L 324.203125 372.992188 C 324.203125 372.992188 333.601563 372.964844 333.832031 372.964844 C 339.386719 373.039063 339.714844 367.667969 339.714844 367.667969 L 298.160156 367.667969 " />
    </g>
  </g>
</svg>