<?xml version="1.0" standalone="no"?>
<!DOCTYPE svg PUBLIC "-//W3C//DTD SVG 1.1//EN" "http://www.w3.org/Graphics/SVG/1.1/DTD/svg11.dtd">
<svg t="1637906102213" class="icon" viewBox="0 0 1024 1024" version="1.1" xmlns="http://www.w3.org/2000/svg" p-id="3092"
  xmlns:xlink="http://www.w3.org/1999/xlink" width="128" height="128">
  <defs>
    <style type="text/css"></style>
  </defs>
  <path
    d="M1021.72444445 851.84056889l0 56.65223111C1021.72444445 971.04327111 971.04327111 1021.72444445 908.41998222 1021.72444445l-56.65223111 0c-41.79740445 0-77.91502222-22.9376-97.57582222-56.65223112L269.73525333 965.07221333C250.14727111 998.78684445 214.02965333 1021.72444445 172.15943111 1021.72444445L115.58001778 1021.72444445C52.95672889 1021.72444445 2.27555555 971.04327111 2.27555555 908.41998222l0-56.65223111c0-41.79740445 22.9376-77.91502222 56.65223112-97.57582222L58.92778667 269.73525333C25.21315555 250.14727111 2.27555555 214.02965333 2.27555555 172.15943111L2.27555555 115.58001778C2.27555555 52.95672889 52.95672889 2.27555555 115.58001778 2.27555555l56.65223111 0c41.79740445 0 77.91502222 22.9376 97.57582222 56.65223112l484.52949334 0C773.85272889 25.21315555 809.97034667 2.27555555 851.84056889 2.27555555l56.65223111 0C971.04327111 2.27555555 1021.72444445 52.95672889 1021.72444445 115.58001778l0 56.65223111c0 41.79740445-22.9376 77.91502222-56.65223112 97.57582222l0 484.52949334C998.78684445 773.85272889 1021.72444445 809.97034667 1021.72444445 851.84056889zM851.84056889 965.07221333l56.65223111 0c31.31164445 0 56.65223111-25.34058667 56.65223111-56.65223111l0-56.65223111c0-31.31164445-25.34058667-56.65223111-56.65223111-56.65223111l-56.65223111 0c-31.31164445 0-56.65223111 25.34058667-56.65223111 56.65223111l0 56.65223111C795.18833778 939.73162667 820.52892445 965.07221333 851.84056889 965.07221333zM58.92778667 908.41998222c0 31.31164445 25.34058667 56.65223111 56.65223111 56.65223111l56.65223111 0c31.31164445 0 56.65223111-25.34058667 56.65223111-56.65223111l0-56.65223111c0-31.31164445-25.34058667-56.65223111-56.65223111-56.65223111L115.58001778 795.11552c-31.31164445 0-56.65223111 25.34058667-56.65223111 56.65223111L58.92778667 908.41998222zM228.81166222 115.58001778c0-31.31164445-25.34058667-56.65223111-56.65223111-56.65223111L115.58001778 58.92778667c-31.31164445 0-56.65223111 25.34058667-56.65223111 56.65223111l0 56.65223111c0 31.31164445 25.34058667 56.65223111 56.65223111 56.65223111l56.65223111 0c31.31164445 0 56.65223111-25.34058667 56.65223111-56.65223111L228.88448 115.58001778zM754.26474667 228.81166222L269.73525333 228.81166222C259.83203555 245.85102222 245.85102222 259.83203555 228.81166222 269.73525333l0 484.52949334c16.96654222 9.90321778 31.02037333 23.95704889 40.92359111 40.92359111l484.52949334 0c9.90321778-16.96654222 23.95704889-31.02037333 40.92359111-40.92359111L795.18833778 269.73525333C778.14897778 259.83203555 764.16796445 245.85102222 754.26474667 228.81166222zM965.07221333 115.58001778c0-31.31164445-25.34058667-56.65223111-56.65223111-56.65223111l-56.65223111 0c-31.31164445 0-56.65223111 25.34058667-56.65223111 56.65223111l0 56.65223111c0 31.31164445 25.34058667 56.65223111 56.65223111 56.65223111l56.65223111 0c31.31164445 0 56.65223111-25.34058667 56.65223111-56.65223111L965.07221333 115.58001778z"
    p-id="3093"></path>
</svg>