<?xml version="1.0" standalone="no"?>
<!DOCTYPE svg PUBLIC "-//W3C//DTD SVG 1.1//EN" "http://www.w3.org/Graphics/SVG/1.1/DTD/svg11.dtd">
<svg t="1636817389319" class="icon" viewBox="0 0 1204 1024" version="1.1" xmlns="http://www.w3.org/2000/svg" p-id="2984"
  xmlns:xlink="http://www.w3.org/1999/xlink" width="235.15625" height="200">
  <defs>
    <style type="text/css"></style>
  </defs>
  <path
    d="M1145.047923 0H60.160454A60.160454 60.160454 0 0 0 0 60.160454V963.294285a60.160454 60.160454 0 0 0 60.160454 60.160454H1145.047923A60.160454 60.160454 0 0 0 1204.663117 963.294285V60.160454A60.160454 60.160454 0 0 0 1145.047923 0z m-24.718495 939.666312h-1035.99574V84.333688h1035.99574z"
    p-id="2985"></path>
  <path
    d="M655.767128 252.27405h87.059993V772.452964h-87.059993zM806.440895 252.27405h189.932552v79.608094H806.440895zM187.933262 556.711395h107.416401l-45.43841 204.836351a20.719915 20.719915 0 0 0 8.178914 22.173944 16.539581 16.539581 0 0 0 22.900958-3.271566L527.085552 508.910188a23.446219 23.446219 0 0 0 4.907348-24.354987 18.175364 18.175364 0 0 0-16.721335-13.44977H407.128151l45.438409-204.83635a18.175364 18.175364 0 0 0-31.079872-18.175364l-245.549166 272.630458a23.446219 23.446219 0 0 0-4.725594 24.173234 18.175364 18.175364 0 0 0 16.721334 11.813986z"
    p-id="2986"></path>
</svg>