<?xml version="1.0" standalone="no"?>
<!DOCTYPE svg PUBLIC "-//W3C//DTD SVG 1.1//EN" "http://www.w3.org/Graphics/SVG/1.1/DTD/svg11.dtd">
<svg t="1637906760418" class="icon" viewBox="0 0 1024 1024" version="1.1" xmlns="http://www.w3.org/2000/svg" p-id="3712"
  xmlns:xlink="http://www.w3.org/1999/xlink" width="128" height="128">
  <defs>
    <style type="text/css"></style>
  </defs>
  <path
    d="M1001.472 302.19377778c-88.63288889-56.54755555-185.79911111-97.05244445-288.99555555-120.26311111-238.592-53.81688889-483.66933333-10.69511111-689.83466667 121.17333333-17.97688889 11.49155555-23.32444445 35.49866667-11.94666667 53.58933333l256.22755556 405.27644445c5.57511111 8.76088889 14.44977778 15.01866667 24.576 17.18044444 2.73066667 0.56888889 5.57511111 0.91022222 8.30577778 0.91022223 7.50933333 0 14.79111111-2.16177778 21.16266666-6.25777778 66.56-43.23555555 143.47377778-62.23644445 220.95644444-55.63733334l-32.42666666 56.20622222c-28.89955555 1.25155555-51.99644445 25.14488889-51.99644444 54.38577778 0 30.03733333 24.34844445 54.49955555 54.49955555 54.49955556 30.03733333 0 54.49955555-24.34844445 54.49955555-54.49955556 0-7.50933333-1.47911111-14.67733333-4.20977777-21.16266666l44.82844444-77.71022222c34.47466667 9.55733333 67.01511111 24.12088889 96.82488889 43.57688888 8.76088889 5.68888889 19.34222222 7.62311111 29.46844444 5.34755556 10.12622222-2.27555555 19.00088889-8.41955555 24.576-17.29422222 9.10222222-14.44977778 224.256-355.55555555 255.5448889-406.18666667 11.264-17.97688889 5.91644445-41.64266667-12.06044445-53.13422222zM712.36266667 688.24177778c-20.93511111-10.92266667-42.78044445-19.91111111-65.30844445-27.30666667L776.98844445 435.76888889c8.64711111-14.90488889 3.52711111-33.90577778-11.37777778-42.55288889-14.90488889-8.64711111-33.90577778-3.52711111-42.55288889 11.37777778l-138.80888889 240.64c-93.52533333-15.92888889-187.96088889-0.79644445-271.58755556 43.34933333L97.73511111 348.50133333c181.36177778-104.78933333 392.192-137.10222222 597.78844444-90.79466666 81.69244445 18.432 159.28888889 48.58311111 231.19644445 89.99822222-50.85866667 81.23733333-167.48088889 266.24-214.35733333 340.53688889z"
    p-id="3713"></path>
</svg>