<?xml version="1.0" standalone="no"?>
<!DOCTYPE svg PUBLIC "-//W3C//DTD SVG 1.1//EN" "http://www.w3.org/Graphics/SVG/1.1/DTD/svg11.dtd"><svg t="1625884962175"
  class="icon" viewBox="0 0 1106 1024" version="1.1" xmlns="http://www.w3.org/2000/svg" p-id="4155"
  xmlns:xlink="http://www.w3.org/1999/xlink" width="69.125" height="64">
  <defs>
    <style type="text/css"></style>
  </defs>
  <path
    d="M1089.794643 585.071135a55.294272 55.294272 0 0 0-78.292774 0l-189.370648 190.838637a55.294272 55.294272 0 0 0 78.782104 78.292774l189.370647-191.327966a55.294272 55.294272 0 0 0-0.489329-77.803445zM1015.416507 450.50543a54.804942 54.804942 0 0 0-27.402471-40.614377L294.633656 8.151256a55.783602 55.783602 0 0 0-77.803444 20.551854L8.375701 392.275179a53.336952 53.336952 0 0 0-7.339948 39.146387 56.272931 56.272931 0 0 0 25.934482 33.763759l599.429051 345.956195a52.358293 52.358293 0 0 0 27.891801 7.829278 55.783602 55.783602 0 0 0 39.146387-16.637215l304.363159-305.341818a57.740921 57.740921 0 0 0 17.615874-46.486335z m-368.465368 244.664919L132.17615 397.168478l26.423811-45.507675 313.660426 177.626731a56.272931 56.272931 0 0 0 27.402471 7.339947 53.826282 53.826282 0 0 0 48.932984-27.8918 55.294272 55.294272 0 0 0-20.551853-75.356795L213.894233 255.752154l71.442156-123.800449 587.195806 337.637589zM248.636651 647.705355a55.294272 55.294272 0 0 0-55.294271 55.294271 57.251591 57.251591 0 0 1-57.251592 57.251591h-23.977162v-97.865967a55.783602 55.783602 0 0 0-111.077873 0v305.831148a55.783602 55.783602 0 0 0 111.077873 0v-97.865967h23.977162a168.329464 168.329464 0 0 0 167.840135-167.840135 55.783602 55.783602 0 0 0-55.294272-54.804941z"
    p-id="4156"></path>
</svg>