<?xml version="1.0" standalone="no"?>
<!DOCTYPE svg PUBLIC "-//W3C//DTD SVG 1.1//EN" "http://www.w3.org/Graphics/SVG/1.1/DTD/svg11.dtd"><svg t="1625884959139"
  class="icon" viewBox="0 0 1763 1024" version="1.1" xmlns="http://www.w3.org/2000/svg" p-id="4013"
  xmlns:xlink="http://www.w3.org/1999/xlink" width="110.1875" height="64">
  <defs>
    <style type="text/css"></style>
  </defs>
  <path
    d="M1305.62334 623.326297a327.921438 327.921438 0 0 0-84.047091-157.071613 328.748131 328.748131 0 0 0-194.548349-97.549739 373.665101 373.665101 0 0 0-56.490668-100.305381 364.020353 364.020353 0 0 0-82.66927-81.291449A402.323782 402.323782 0 0 0 275.564234 370.909459a328.748131 328.748131 0 0 0 55.112847 653.087234h655.842876a330.677081 330.677081 0 0 0 327.645875-329.023695v-7.991363a298.71163 298.71163 0 0 0-8.542492-63.655338z m-320.481204 262.061587H330.677081a190.414886 190.414886 0 0 1 0-380.829772h55.112846l12.951519-52.632768a263.714972 263.714972 0 0 1 513.376168 0l16.533854 58.419617 60.348568-6.337977a189.588193 189.588193 0 0 1 137.782116 58.419617 187.108115 187.108115 0 0 1 48.77487 91.487326 170.574261 170.574261 0 0 1 4.409028 40.507942 190.414886 190.414886 0 0 1-190.139322 190.414886zM1763.611097 440.902774a248.007811 248.007811 0 0 1-248.00781 248.007811h-103.061024a318.001126 318.001126 0 0 0-8.266927-63.655338 377.247436 377.247436 0 0 0-11.849262-40.232378H1515.603287a143.568966 143.568966 0 1 0 0-286.862368l-46.019228 4.960156-11.022569-46.019227a198.957377 198.957377 0 0 0-385.789927 0l-2.755643 11.849262a364.020353 364.020353 0 0 0-82.66927-81.291449 303.120657 303.120657 0 0 1 562.426602 7.440235A248.007811 248.007811 0 0 1 1763.611097 440.902774z"
    p-id="4014"></path>
</svg>