<?xml version="1.0" standalone="no"?><!DOCTYPE svg PUBLIC "-//W3C//DTD SVG 1.1//EN" "http://www.w3.org/Graphics/SVG/1.1/DTD/svg11.dtd"><svg t="1637896071225" class="icon" viewBox="0 0 1024 1024" version="1.1" xmlns="http://www.w3.org/2000/svg" p-id="3757" xmlns:xlink="http://www.w3.org/1999/xlink" width="128" height="128"><defs><style type="text/css"></style></defs><path d="M514.792727 837.818182a35.374545 35.374545 0 1 0 35.141818 35.374545A35.374545 35.374545 0 0 0 514.792727 837.818182zM631.621818 837.818182a35.374545 35.374545 0 1 0 35.374546 35.374545A35.374545 35.374545 0 0 0 631.621818 837.818182zM748.450909 837.818182a35.374545 35.374545 0 1 0 35.374546 35.374545A35.374545 35.374545 0 0 0 748.450909 837.818182z" p-id="3758"></path><path d="M839.214545 0H196.189091a93.090909 93.090909 0 0 0-93.090909 93.090909v837.818182a93.090909 93.090909 0 0 0 93.090909 93.090909h643.025454a93.090909 93.090909 0 0 0 93.09091-93.090909V93.090909a93.090909 93.090909 0 0 0-93.09091-93.090909zM196.189091 69.818182h643.025454a23.272727 23.272727 0 0 1 23.272728 23.272727v638.603636H173.381818V93.090909a23.272727 23.272727 0 0 1 22.807273-23.272727z m643.025454 884.363636H196.189091a23.272727 23.272727 0 0 1-23.272727-23.272727v-129.396364H861.090909V930.909091a23.272727 23.272727 0 0 1-21.876364 23.272727z" p-id="3759"></path><path d="M304.407273 465.454545a61.207273 61.207273 0 0 0 53.527272 30.254546h67.723637l-18.850909 111.941818v2.327273a59.112727 59.112727 0 0 0 33.512727 66.56 62.603636 62.603636 0 0 0 23.272727 6.283636h3.490909a62.836364 62.836364 0 0 0 44.916364-17.92 41.890909 41.890909 0 0 0 6.050909-6.981818l188.043636-265.774545a52.363636 52.363636 0 0 0 8.843637-20.945455 73.076364 73.076364 0 0 0 0-32.581818 70.981818 70.981818 0 0 0-4.887273-12.334546l-1.396364-2.792727a61.44 61.44 0 0 0-53.527272-30.021818h-51.432728l19.549091-115.2a63.301818 63.301818 0 0 0 0-10.007273v-2.56a61.44 61.44 0 0 0-34.443636-53.294545 59.345455 59.345455 0 0 0-76.8 17.687272l27.927273 20.945455-27.927273-20.945455-205.032727 268.334546a60.741818 60.741818 0 0 0-4.421818 64.930909zM549.236364 197.12l-21.410909 125.44a35.84 35.84 0 0 0 7.447272 28.392727 35.141818 35.141818 0 0 0 26.763637 12.334546h79.592727l-161.512727 228.538182 21.178181-124.741819a35.141818 35.141818 0 0 0-34.443636-40.727272h-93.090909z" p-id="3760"></path></svg>