<?xml version="1.0" standalone="no"?><!DOCTYPE svg PUBLIC "-//W3C//DTD SVG 1.1//EN" "http://www.w3.org/Graphics/SVG/1.1/DTD/svg11.dtd"><svg t="1636818436677" class="icon" viewBox="0 0 1051 1024" version="1.1" xmlns="http://www.w3.org/2000/svg" p-id="9910" xmlns:xlink="http://www.w3.org/1999/xlink" width="205.2734375" height="200"><defs><style type="text/css"></style></defs><path d="M965.141687 1024h-65.22293a39.133758 39.133758 0 0 1 0-78.267516h65.22293a7.989809 7.989809 0 0 0 7.826751-7.826752v-48.917197a39.133758 39.133758 0 0 1 78.267516 0v48.917197a86.257325 86.257325 0 0 1-86.094267 86.094268zM1012.102196 179.363057a39.133758 39.133758 0 0 1-39.133758-39.133758V86.094268a7.989809 7.989809 0 0 0-7.826751-7.826752h-65.22293a39.133758 39.133758 0 0 1 0-78.267516h65.22293a86.257325 86.257325 0 0 1 86.094267 86.094268v53.482802a39.296815 39.296815 0 0 1-39.133758 39.785987zM39.139139 179.363057A39.133758 39.133758 0 0 1 0.005381 139.57707V86.094268A86.257325 86.257325 0 0 1 86.099648 0h73.864969a39.133758 39.133758 0 1 1 0 78.267516H86.099648a7.989809 7.989809 0 0 0-7.826751 7.826752v53.482802A39.296815 39.296815 0 0 1 39.139139 179.363057z m120.825478 844.636943H86.099648A86.257325 86.257325 0 0 1 0.005381 937.905732v-48.917197a39.133758 39.133758 0 0 1 78.267516 0v48.917197a7.989809 7.989809 0 0 0 7.826751 7.826752h73.864969a39.133758 39.133758 0 1 1 0 78.267516zM525.539139 72.234395a440.254777 440.254777 0 1 0 440.254777 440.254777 440.254777 440.254777 0 0 0-440.254777-440.254777zM360.525126 804.687898L505.483088 577.712102 319.760795 518.522293l346.659873-299.210191L536.627037 472.866242l195.66879 57.396178-371.770701 274.425478z" p-id="9911"></path></svg>