<?xml version="1.0" standalone="no"?>
<!DOCTYPE svg PUBLIC "-//W3C//DTD SVG 1.1//EN" "http://www.w3.org/Graphics/SVG/1.1/DTD/svg11.dtd"><svg t="1637909584290"
  class="icon" viewBox="0 0 1386 1024" version="1.1" xmlns="http://www.w3.org/2000/svg" p-id="3827"
  xmlns:xlink="http://www.w3.org/1999/xlink" width="173.25" height="128">
  <defs>
    <style type="text/css"></style>
  </defs>
  <path
    d="M1182.117647 662.588235C1117.786353 871.845647 923.045647 1024 692.705882 1024 462.366118 1024 267.625412 871.845647 203.294118 662.588235L0 662.588235 0 602.352941 189.138824 602.352941 250.036706 602.352941C291.900235 808.538353 474.172235 963.764706 692.705882 963.764706 911.239529 963.764706 1093.511529 808.538353 1135.375059 602.352941L1196.272941 602.352941 1385.411765 602.352941 1385.411765 662.588235 1182.117647 662.588235ZM692.705882 180.705882C875.640471 180.705882 1024 329.005176 1024 512 1024 694.994824 875.640471 843.294118 692.705882 843.294118 509.711059 843.294118 361.411765 694.994824 361.411765 512 361.411765 329.005176 509.711059 180.705882 692.705882 180.705882ZM692.705882 783.058824C842.390588 783.058824 963.764706 661.684706 963.764706 512 963.764706 362.315294 842.390588 240.941176 692.705882 240.941176 543.021176 240.941176 421.647059 362.315294 421.647059 512 421.647059 661.684706 543.021176 783.058824 692.705882 783.058824ZM1142.964706 481.882353C1127.363765 246.482824 932.020706 60.235294 692.705882 60.235294 453.391059 60.235294 258.048 246.482824 242.447059 481.882353L182.211765 481.882353 0 481.882353 0 421.647059 189.138824 421.647059C231.905882 182.031059 440.801882 0 692.705882 0 944.609882 0 1153.505882 182.031059 1196.272941 421.647059L1385.411765 421.647059 1385.411765 481.882353 1203.2 481.882353 1142.964706 481.882353Z"
    p-id="3828"></path>
</svg>