<?xml version="1.0" standalone="no"?>
<!DOCTYPE svg PUBLIC "-//W3C//DTD SVG 1.1//EN" "http://www.w3.org/Graphics/SVG/1.1/DTD/svg11.dtd"><svg t="1628653472825"
  class="icon" viewBox="0 0 1024 1024" version="1.1" xmlns="http://www.w3.org/2000/svg" p-id="2466"
  xmlns:xlink="http://www.w3.org/1999/xlink" width="128" height="128">
  <defs>
    <style type="text/css"></style>
  </defs>
  <path
    d="M528.16 736a144 144 0 1 0-144-144 144.32 144.32 0 0 0 144 144z m0-224a80 80 0 1 1-80 80 80.32 80.32 0 0 1 80-80z"
    p-id="2467"></path>
  <path
    d="M832.16 592A304 304 0 1 0 344.48 834.56a32 32 0 0 0-3.2 5.76L304.8 940.8A62.08 62.08 0 0 0 362.72 1024H693.28a62.08 62.08 0 0 0 57.92-83.2l-37.44-100.48a32 32 0 0 0-3.2-5.76 303.68 303.68 0 0 0 121.6-242.56z m-544 0a240 240 0 1 1 355.2 210.24 237.76 237.76 0 0 1-114.24 29.12 240 240 0 0 1-240.96-239.36zM690.08 960H365.92l34.56-92.48a299.84 299.84 0 0 0 256 0zM295.52 274.24A32 32 0 0 0 320.8 224L241.76 121.92a32 32 0 0 0-45.12-5.44A32 32 0 0 0 191.2 160l79.04 102.08a32 32 0 0 0 25.28 12.16zM827.36 116.48a32 32 0 0 0-45.12 5.44L703.2 224a32 32 0 0 0 5.44 44.8 32 32 0 0 0 19.84 6.72 32 32 0 0 0 25.28-12.16L832.8 160a32 32 0 0 0-5.44-43.52zM512.16 192a32 32 0 0 0 32-32V32a32 32 0 0 0-64 0v128a32 32 0 0 0 32 32z"
    p-id="2468"></path>
</svg>