<?xml version="1.0" standalone="no"?>
<!DOCTYPE svg PUBLIC "-//W3C//DTD SVG 1.1//EN" "http://www.w3.org/Graphics/SVG/1.1/DTD/svg11.dtd"><svg t="1637911847982"
  class="icon" viewBox="0 0 1024 1024" version="1.1" xmlns="http://www.w3.org/2000/svg" p-id="3856"
  xmlns:xlink="http://www.w3.org/1999/xlink" width="128" height="128">
  <defs>
    <style type="text/css"></style>
  </defs>
  <path
    d="M719.12612386 512c0 31.06891852 25.89076502 51.78153127 51.78153006 51.78153127h155.34459259c31.06891852 0 51.78153127-20.71261275 51.78153127-51.78153127s-25.89076502-51.78153127-51.78153127-51.78153127h-155.34459259c-31.06891852 0-51.78153127 25.89076502-51.78153006 51.78153127zM926.25224651 667.34459259h-155.34459259c-31.06891852 0-51.78153127 25.89076502-51.78153006 51.78153127 0 31.06891852 25.89076502 51.78153127 51.78153006 51.78153006h155.34459259c31.06891852 0 51.78153127-20.71261275 51.78153127-51.78153006s-25.89076502-51.78153127-51.78153127-51.78153127zM926.25224651 874.47071645h-155.34459259c-31.06891852 0-51.78153127 25.89076502-51.78153006 51.78153006 0 31.06891852 25.89076502 51.78153127 51.78153006 51.78153127h155.34459259c31.06891852 0 51.78153127-20.71261275 51.78153127-51.78153127s-25.89076502-51.78153127-51.78153127-51.78153006z"
    p-id="3857"></path>
  <path
    d="M864.11440947 102.92590577c-20.71261275-36.24707201-51.78153127-56.95968355-93.20675555-56.95968355H149.52928355c-41.42522429 0-77.6722963 20.71261275-93.20675556 62.13783703-20.71261275 36.24707201-15.53445925 82.85044978 10.35630699 108.74121483L304.87387614 506.82184651v310.68918518c0 25.89076502 15.53445925 51.78153127 41.4252255 62.13783704l165.70089836 88.02860328c10.35630577 5.17815349 20.71261275 5.17815349 31.06891852 5.17815228 15.53445925 0 25.89076502-5.17815349 36.24707201-10.35630577 20.71261275-15.53445925 36.24707201-36.24707201 36.24707079-56.95968354V512l238.19504238-289.97657244c25.89076502-36.24707201 25.89076502-82.85044978 10.35630577-119.09752179z m-326.22364445 341.7581037c-15.53445925 10.35630577-25.89076502 25.89076502-25.89076502 51.78153128v352.11440947l-103.56306132-51.78153006v-300.33287941c0-10.35630577 0-31.06891852-15.53445927-46.60337778L149.52928355 149.52928355h621.37837037v10.35630698l-233.0168889 284.79841894z"
    p-id="3858"></path>
</svg>