<?xml version="1.0" standalone="no"?>
<!DOCTYPE svg PUBLIC "-//W3C//DTD SVG 1.1//EN" "http://www.w3.org/Graphics/SVG/1.1/DTD/svg11.dtd"><svg t="1637909767124"
  class="icon" viewBox="0 0 1024 1024" version="1.1" xmlns="http://www.w3.org/2000/svg" p-id="3827"
  xmlns:xlink="http://www.w3.org/1999/xlink" width="128" height="128">
  <defs>
    <style type="text/css"></style>
  </defs>
  <path
    d="M73.142857 0h877.714286a36.571429 36.571429 0 0 1 36.571428 36.571429v950.857142a36.571429 36.571429 0 0 1-36.571428 36.571429h-877.714286A36.571429 36.571429 0 0 1 36.571429 987.428571V36.571429A36.571429 36.571429 0 0 1 73.142857 0z m579.291429 583.914057l-2.399086-0.643657a99.064686 99.064686 0 0 1-3.101257 50.439314c-8.133486 25.8048-13.165714 25.8048-21.825829 53.891657-1.813943-2.516114-13.282743-20.128914-3.452343-53.950171 7.548343-39.146057-11.702857-78.467657-38.736457-118.784-26.097371-39.146057-64.365714-68.637257-100.820114-76.068571h-1.813943l0.643657 1.813942c11.702857 59.743086-21.767314 90.872686-61.44 125.571658s-83.031771 74.898286-89.585371 152.7808c-8.543086 102.458514 58.514286 174.548114 99.474286 207.784228a11.702857 11.702857 0 0 0 7.548342 2.4576 12.229486 12.229486 0 0 0 10.005943-4.9152 11.117714 11.117714 0 0 0 0.643657-11.351771c-32.065829-83.733943 33.5872-137.6256 54.4768-152.137143-17.554286 101.9904 67.525486 182.154971 86.4256 175.542857 77.706971-27.150629 127.853714-81.92 140.434286-156.0576 13.282743-79.345371-20.304457-167.1168-76.068571-196.081371z m261.7344-506.382628l-804.571429-0.351086V365.714286h804.571429zM265.128229 146.285714h73.142857v146.285715h-73.142857z m73.142857 0v146.285715h-73.142857V146.285714z m146.285714 0h73.142857v146.285715h-73.142857z m73.142857 0v146.285715h-73.142857V146.285714z m146.285714 0h73.142858v146.285715h-73.142858z m73.142858 0v146.285715h-73.142858V146.285714z"
    p-id="3828"></path>
</svg>