<?xml version="1.0" standalone="no"?>
<!DOCTYPE svg PUBLIC "-//W3C//DTD SVG 1.1//EN" "http://www.w3.org/Graphics/SVG/1.1/DTD/svg11.dtd"><svg t="1637906284192"
  class="icon" viewBox="0 0 1024 1024" version="1.1" xmlns="http://www.w3.org/2000/svg" p-id="3211"
  xmlns:xlink="http://www.w3.org/1999/xlink" width="128" height="128">
  <defs>
    <style type="text/css"></style>
  </defs>
  <path
    d="M884.28062 0.00090999h-232.561468v93.29765401h232.561468a45.51105001 45.51105001 0 0 1 45.511051 45.51105001v233.47168899h94.207874V139.719835A139.26381401 139.26381401 0 0 0 884.28062 0.00090999zM93.298564 139.719835a45.51105001 45.51105001 0 0 1 45.51105001-45.51105h233.47168899V0.00090999H139.719835A139.26381401 139.26381401 0 0 0 0.00090999 139.719835v232.561468h91.02210101V139.719835z m0 744.560785v-232.561468H0.00090999v232.561468a139.718925 139.718925 0 0 0 139.71892501 139.718925h232.561468v-93.297653H139.719835a45.51105001 45.51105001 0 0 1-45.51105-45.511051z m837.403328 0a45.51105001 45.51105001 0 0 1-45.511051 45.51105001h-233.471689v94.20787499h232.561468a139.26381401 139.26381401 0 0 0 139.718925-139.718925v-232.561468h-93.297653v232.561468z m-418.701664-558.420589a186.140196 186.140196 0 1 0 186.140196 186.140197 186.140196 186.140196 0 0 0-186.140196-186.140197z"
    p-id="3212"></path>
</svg>