<?xml version="1.0" standalone="no"?>
<!DOCTYPE svg PUBLIC "-//W3C//DTD SVG 1.1//EN" "http://www.w3.org/Graphics/SVG/1.1/DTD/svg11.dtd"><svg t="1637908725293"
  class="icon" viewBox="0 0 1024 1024" version="1.1" xmlns="http://www.w3.org/2000/svg" p-id="3275"
  xmlns:xlink="http://www.w3.org/1999/xlink" width="128" height="128">
  <defs>
    <style type="text/css"></style>
  </defs>
  <path
    d="M533.33333333 576V170.666667c0-93.866667-76.8-170.666667-170.666667-170.666667S192.00000033 76.8 192.00000033 170.666667v405.333333c-55.466667 46.933333-85.333333 115.2-85.333334 192 0 140.8 115.2 256 256 256s256-115.2 256-256c0-72.533333-29.866667-140.8-85.333333-192zM362.66666633 938.666667c-93.866667 0-170.666667-76.8-170.666666-170.666667 0-55.466667 25.6-102.4 68.266666-136.533333 12.8-8.533333 17.066667-21.333333 17.066667-34.133334V170.666667c0-46.933333 38.4-85.333333 85.333333-85.333334s85.333333 38.4 85.333334 85.333334v426.666666c0 12.8 4.266667 25.6 17.066666 34.133334 42.666667 34.133333 68.266667 81.066667 68.266667 136.533333 0 93.866667-76.8 170.666667-170.666667 170.666667z"
    p-id="3276"></path>
  <path
    d="M396.80000033 657.066667V320c0-17.066667-12.8-34.133333-34.133334-34.133333s-34.133333 17.066667-34.133333 34.133333v337.066667c-51.2 12.8-85.333333 59.733333-85.333333 110.933333 0 64 51.2 119.466667 119.466666 119.466667s119.466667-51.2 119.466667-119.466667c0-55.466667-38.4-98.133333-85.333333-110.933333zM362.66666633 819.2c-29.866667 0-51.2-25.6-51.2-51.2s25.6-51.2 51.2-51.2 51.2 25.6 51.2 51.2-21.333333 51.2-51.2 51.2zM836.26666633 106.666667c-17.066667-12.8-34.133333-12.8-51.2 0-4.266667 4.266667-123.733333 93.866667-123.733333 213.333333 0 81.066667 68.266667 149.333333 149.333333 149.333333S960.00000033 401.066667 960.00000033 320c0-119.466667-119.466667-209.066667-123.733334-213.333333zM810.66666633 384c-34.133333 0-64-29.866667-64-64 0-46.933333 34.133333-93.866667 64-119.466667 25.6 25.6 64 72.533333 64 119.466667 0 34.133333-29.866667 64-64 64z"
    p-id="3277"></path>
</svg>