<?xml version="1.0" standalone="no"?>
<!DOCTYPE svg PUBLIC "-//W3C//DTD SVG 1.1//EN" "http://www.w3.org/Graphics/SVG/1.1/DTD/svg11.dtd"><svg t="1637908890645"
  class="icon" viewBox="0 0 1024 1024" version="1.1" xmlns="http://www.w3.org/2000/svg" p-id="3458"
  xmlns:xlink="http://www.w3.org/1999/xlink" width="128" height="128">
  <defs>
    <style type="text/css"></style>
  </defs>
  <path
    d="M794.20302222 214.4256c-11.28675555-11.30951111-26.20302222-17.45351111-42.88284444-17.54453333-5.59786667 0.05688889-11.10471111 0.89884445-16.384 2.46897778l-14.47253333 8.20337777c-3.34506667 2.11626667-18.10204445 12.84551111-20.96924445 15.5648-61.63342222 58.43626667-188.24533333 196.47146667-211.50151111 362.64391111-22.47111111 160.55182222 91.76177778 313.77635555 253.76995556 319.46524445 151.62026667 5.34755555 276.66204445-116.45155555 276.66204444-266.88853333 0-194.95822222-156.21688889-360.92586667-224.22186667-423.91324445z m-42.86008889 616.23182222c-106.05226667 0-192.31857778-86.26631111-192.31857778-192.31857777 0-148.5824 116.4288-285.17262222 175.44533334-344.8376889l18.23857778-15.4624C808.37973333 331.54844445 943.67288889 478.15111111 943.67288889 638.33884445c0 106.05226667-86.27768889 192.31857778-192.32995556 192.31857777z"
    p-id="3459"></path>
  <path
    d="M536.32568889 869.71733333c-49.3568 36.64782222-107.9296 56.0128-169.35822222 56.0128-157.92355555 0-286.4128-129.87733333-286.4128-289.49617778 0-227.66933333 183.6032-434.49457778 263.45244444-513.61564444l24.08675556-21.41297778c32.50631111 30.58346667 92.47857778 91.19288889 149.03751111 170.66666667 11.9808 16.80497778 35.29386667 20.73031111 52.1216 8.78364445 16.82773333-11.96942222 20.75306667-35.30524445 8.78364444-52.1216-62.14542222-87.30168889-128.12515555-153.23591111-160.16497777-183.01155556-13.12995555-13.98328889-30.83377778-21.37884445-50.77902223-21.7088a68.608 68.608 0 0 0-27.28391111 5.97333333l-11.5712 7.38417778-19.42186666 15.47377778C217.2928 138.96817778 5.80266667 367.49084445 5.80266667 636.22257778c0 200.85191111 162.01955555 364.24817778 361.15342222 364.24817777 77.60782222 0 151.58613333-24.46222222 213.9136-70.73564444 16.56604445-12.31075555 20.03626667-35.71484445 7.73688889-52.29226666-12.32213333-16.57742222-35.74897778-20.02488889-52.28088889-7.72551112zM796.51271111 688.93582222c-32.23324445-0.17066667-55.28462222-8.44231111-68.51697778-24.576-19.95662222-24.29155555-17.43075555-65.26293333-14.77973333-78.99591111 4.01635555-20.16142222-9.0112-39.79946667-29.17262222-43.91822222-20.21831111-4.16426667-39.97013333 8.9088-44.10026667 29.13848889-1.7408 8.48782222-15.65582222 84.62791111 29.83253334 140.65208889 27.98933333 34.49742222 70.49671111 52.14435555 126.32746666 52.45155555h0.2048c20.54826667 0 37.26222222-16.5888 37.376-37.1712 0.11377778-20.63928889-16.53191111-37.46702222-37.1712-37.5808z"
    p-id="3460"></path>
  <path
    d="M207.13244445 520.61297778c-19.51288889-6.71288889-40.80071111 3.6864-47.47946667 23.19928889-1.82044445 5.29066667-43.80444445 130.77617778 22.15253333 225.56444444 42.5984 61.22382222 117.76 93.54808889 223.41404444 96.08533334 0.3072 0.01137778 0.60302222 0.01137778 0.91022223 0.01137777 20.22968889 0 36.864-16.14506667 37.35324444-36.47715555 0.50062222-20.62791111-15.82648889-37.76284445-36.46577777-38.26346667-80.31573333-1.93422222-135.38417778-23.39271111-163.65795556-63.77244445-44.38471111-63.36284445-13.34613333-157.91217778-12.99342222-158.9703111 6.63324445-19.49013333-3.74328889-40.68693333-23.23342222-47.37706667z"
    p-id="3461"></path>
</svg>