<?xml version="1.0" standalone="no"?>
<!DOCTYPE svg PUBLIC "-//W3C//DTD SVG 1.1//EN" "http://www.w3.org/Graphics/SVG/1.1/DTD/svg11.dtd"><svg t="1625884949499"
  class="icon" viewBox="0 0 1024 1024" version="1.1" xmlns="http://www.w3.org/2000/svg" p-id="3591"
  xmlns:xlink="http://www.w3.org/1999/xlink" width="64" height="64">
  <defs>
    <style type="text/css"></style>
  </defs>
  <path
    d="M514.572864 0a514.572864 514.572864 0 0 0-514.572864 514.572864 514.572864 514.572864 0 0 0 1024 0A514.572864 514.572864 0 0 0 514.572864 0z m0 844.542714a56.603015 56.603015 0 1 1 55.959799-55.959799 56.603015 56.603015 0 0 1-55.959799 55.959799z m36.663317-257.286433c0 41.165829-16.080402 74.613065-36.663317 74.613066s-37.306533-33.447236-37.306532-74.613066L437.386935 252.140704a74.613065 74.613065 0 0 1 148.582914 0z"
    p-id="3592"></path>
</svg>