<?xml version="1.0" standalone="no"?>
<!DOCTYPE svg PUBLIC "-//W3C//DTD SVG 1.1//EN" "http://www.w3.org/Graphics/SVG/1.1/DTD/svg11.dtd"><svg t="1625884965494"
  class="icon" viewBox="0 0 1153 1024" version="1.1" xmlns="http://www.w3.org/2000/svg" p-id="4297"
  xmlns:xlink="http://www.w3.org/1999/xlink" width="72.0625" height="64">
  <defs>
    <style type="text/css"></style>
  </defs>
  <path
    d="M430.193708 902.711906L17.687847 490.206046a63.170882 63.170882 0 0 1 0-85.9124 63.170882 63.170882 0 0 1 85.9124 0l299.429981 299.429981-204.673658-490.837754a63.170882 63.170882 0 0 1 111.812461-46.746453l205.937076 493.996299V63.170882a63.170882 63.170882 0 0 1 121.288094 0v599.491672l205.305367-493.996299a63.170882 63.170882 0 0 1 112.44417 46.746453l-204.041949 489.574337 298.166564-300.693399a63.170882 63.170882 0 0 1 87.807526 0 63.170882 63.170882 0 0 1 0 85.9124l-412.50586 412.50586h369.54966a63.170882 63.170882 0 0 1 0 121.288094H63.170882a63.170882 63.170882 0 0 1-63.170882-63.170882 63.170882 63.170882 0 0 1 63.170882-63.170882h367.022826z"
    p-id="4298"></path>
</svg>