<?xml version="1.0" standalone="no"?>
<!DOCTYPE svg PUBLIC "-//W3C//DTD SVG 1.1//EN" "http://www.w3.org/Graphics/SVG/1.1/DTD/svg11.dtd"><svg t="1637906971052"
  class="icon" viewBox="0 0 1024 1024" version="1.1" xmlns="http://www.w3.org/2000/svg" p-id="4456"
  xmlns:xlink="http://www.w3.org/1999/xlink" width="128" height="128">
  <defs>
    <style type="text/css"></style>
  </defs>
  <path
    d="M512 0a512 512 0 1 0 512 512A512 512 0 0 0 512 0z m0 938.666667a426.666667 426.666667 0 1 1 426.666667-426.666667 426.666667 426.666667 0 0 1-426.666667 426.666667z"
    p-id="4457"></path>
  <path
    d="M512 170.666667a341.333333 341.333333 0 1 0 341.333333 341.333333 341.333333 341.333333 0 0 0-341.333333-341.333333z m0 640a298.666667 298.666667 0 1 1 298.666667-298.666667 298.666667 298.666667 0 0 1-298.666667 298.666667z"
    p-id="4458"></path>
  <path
    d="M512 298.666667a213.333333 213.333333 0 0 0-213.333333 213.333333 21.333333 21.333333 0 0 0 42.666666 0 170.666667 170.666667 0 0 1 170.666667-170.666667 21.333333 21.333333 0 0 0 0-42.666666z"
    p-id="4459"></path>
</svg>