<?xml version="1.0" standalone="no"?>
<!DOCTYPE svg PUBLIC "-//W3C//DTD SVG 1.1//EN" "http://www.w3.org/Graphics/SVG/1.1/DTD/svg11.dtd"><svg t="1637906986296"
  class="icon" viewBox="0 0 1024 1024" version="1.1" xmlns="http://www.w3.org/2000/svg" p-id="4749"
  xmlns:xlink="http://www.w3.org/1999/xlink" width="128" height="128">
  <defs>
    <style type="text/css"></style>
  </defs>
  <path
    d="M651.54070755 1009.1026963H368.19217066a35.90186097 35.90186097 0 0 1-30.93083401-17.6747621 36.45419773 36.45419773 0 0 1 0-35.34952551 35.90186097 35.90186097 0 0 1 30.93083401-17.6747621h283.34853689a35.3495255 35.3495255 0 1 1 0 70.69904971z m71.25138647-106.04857521H296.94078419a35.90186097 35.90186097 0 0 1-35.3495255-35.34952551v-160.17753505a389.3971121 389.3971121 0 1 1 497.1026963 0v160.17753505a35.90186097 35.90186097 0 0 1-35.34952422 35.34952551zM510.14260684 86.70102693A318.69806239 318.69806239 0 0 0 319.03423779 660.57847213a34.24485198 34.24485198 0 0 1 14.36074412 28.16915279v141.95043747h354.59992336V688.74762492a35.3495255 35.3495255 0 0 1 14.36074414-28.16915279A318.69806239 318.69806239 0 0 0 510.14260684 86.70102693z m0 0"
    p-id="4750"></path>
</svg>