<?xml version="1.0" standalone="no"?>
<!DOCTYPE svg PUBLIC "-//W3C//DTD SVG 1.1//EN" "http://www.w3.org/Graphics/SVG/1.1/DTD/svg11.dtd"><svg t="1637906514518"
  class="icon" viewBox="0 0 1140 1024" version="1.1" xmlns="http://www.w3.org/2000/svg" p-id="22752"
  xmlns:xlink="http://www.w3.org/1999/xlink" width="142.5" height="128">
  <defs>
    <style type="text/css"></style>
  </defs>
  <path
    d="M325.625543 472.967418c-23.5747 40.764585-44.202562 82.02031-63.848145 122.293757-7.367094 15.716467-14.243048 31.432933-20.627863 44.202562a193.508996 193.508996 0 1 0 139.974781 235.25586v-3.437977l40.273446 4.911396a1375.190832 1375.190832 0 0 0 138.501363 7.858233 1133.550157 1133.550157 0 0 0 137.519083-5.402535l58.44561-6.384815a188.5976 188.5976 0 0 0 21.610142 55.007634 193.508996 193.508996 0 1 0 103.630452-279.458423c-5.893675-15.716467-12.769629-31.924073-20.136723-49.113958a1512.218776 1512.218776 0 0 0-136.536804-239.184977l-20.136723-27.503817a193.508996 193.508996 0 1 0-304.015402-42.729144 212.1723 212.1723 0 0 0 25.048119 34.379771l-25.048119 33.888631C374.739502 392.911666 349.200243 432.693973 325.625543 472.967418z m160.111505-65.812704l15.225327-33.397491a191.053298 191.053298 0 0 0 123.767174 4.420256c3.929117 9.822792 8.349373 19.645583 12.76963 29.468375a1379.119949 1379.119949 0 0 0 63.357006 122.784896c23.08356 41.255725 49.113958 80.546892 73.179798 116.89122 11.29621 15.716467 22.592421 30.450654 33.397491 44.202563A188.5976 188.5976 0 0 0 755.863818 785.823333c-18.663304-2.455698-37.817748-5.402535-58.44561-6.875954-44.202562-4.420256-88.896265-6.875954-137.027944-7.367094a969.018397 969.018397 0 0 0-138.010223 5.893675 387.509131 387.509131 0 0 0-41.746864 3.929116 198.911531 198.911531 0 0 0-61.392448-98.227916l27.994956-36.835469c25.539258-35.85319 49.113958-75.635496 74.653217-115.908941s45.675981-82.02031 63.848146-122.293757z"
    p-id="22753"></path>
</svg>