<?xml version="1.0" standalone="no"?><!DOCTYPE svg PUBLIC "-//W3C//DTD SVG 1.1//EN" "http://www.w3.org/Graphics/SVG/1.1/DTD/svg11.dtd"><svg t="1636945255354" class="icon" viewBox="0 0 1092 1024" version="1.1" xmlns="http://www.w3.org/2000/svg" p-id="2965" xmlns:xlink="http://www.w3.org/1999/xlink" width="213.28125" height="200"><defs><style type="text/css"></style></defs><path d="M914.803878 932.882096h-737.254096a45.519855 45.519855 0 0 0 0 91.03971h737.254096a43.006489 43.006489 0 0 0 45.519855-45.519855 45.659487 45.659487 0 0 0-45.519855-45.519855zM45.598055 459.671087A43.006489 43.006489 0 0 0 0.0782 505.190942v181.520895a43.006489 43.006489 0 0 0 45.519855 45.519855 43.006489 43.006489 0 0 0 45.519855-45.519855v-181.520895a43.006489 43.006489 0 0 0-45.519855-45.519855z m1001.15755 0a43.006489 43.006489 0 0 0-45.519855 45.519855v181.520895a45.519855 45.519855 0 0 0 91.03971 0v-181.520895A43.006489 43.006489 0 0 0 1047.314131 459.671087zM682.736396 295.883387h-91.039711v-77.495459a114.91669 114.91669 0 0 0 68.279783-104.583962A112.822218 112.822218 0 0 0 546.17683 0.004329 115.614847 115.614847 0 0 0 432.935718 113.803966a114.91669 114.91669 0 0 0 68.279783 104.583962v77.495459h-91.598236a295.879058 295.879058 0 0 0 0 591.618485h273.119131a295.879058 295.879058 0 0 0 0-591.618485zM386.857337 682.662524a91.03971 91.03971 0 1 1 91.03971-91.03971 88.526344 88.526344 0 0 1-91.03971 91.03971z m318.638986 0A91.03971 91.03971 0 1 1 795.977508 591.622814a88.526344 88.526344 0 0 1-90.481185 91.03971z" p-id="2966"></path></svg>