<?xml version="1.0" standalone="no"?><!DOCTYPE svg PUBLIC "-//W3C//DTD SVG 1.1//EN" "http://www.w3.org/Graphics/SVG/1.1/DTD/svg11.dtd"><svg t="1637285114437" class="icon" viewBox="0 0 1024 1024" version="1.1" xmlns="http://www.w3.org/2000/svg" p-id="4750" xmlns:xlink="http://www.w3.org/1999/xlink" width="200" height="200"><defs><style type="text/css"></style></defs><path d="M896 577.828571V241.371429v-18.285715C877.714286 117.028571 683.885714 29.257143 449.828571 29.257143 212.114286 32.914286 21.942857 117.028571 0 223.085714v497.371429c3.657143 113.371429 201.142857 208.457143 446.171429 208.457143 69.485714 0 131.657143-7.314286 190.171428-18.285715 40.228571 51.2 102.4 84.114286 171.885714 84.114286 120.685714 0 215.771429-95.085714 215.771429-215.771428 0-91.428571-51.2-168.228571-128-201.142858zM62.171429 351.085714c76.8 62.171429 219.428571 102.4 384 102.4s307.2-40.228571 384-102.4v76.8c-10.971429 7.314286-25.6 14.628571-40.228572 21.942857-91.428571 43.885714-215.771429 65.828571-343.771428 65.828572s-252.342857-25.6-343.771429-65.828572c-14.628571-7.314286-29.257143-14.628571-40.228571-21.942857V351.085714z m384 482.742857c-128 0-252.342857-25.6-343.771429-65.828571-14.628571-7.314286-29.257143-14.628571-40.228571-21.942857v-76.8c76.8 62.171429 219.428571 102.4 384 102.4 51.2 0 98.742857-3.657143 146.285714-10.971429v18.285715c0 14.628571 0 29.257143 3.657143 43.885714-47.542857 3.657143-98.742857 10.971429-149.942857 10.971428z m182.857142-179.2c-58.514286 10.971429-117.028571 18.285714-179.2 18.285715-128 0-252.342857-25.6-343.771428-65.828572-14.628571-7.314286-29.257143-14.628571-40.228572-21.942857v-76.8c76.8 62.171429 219.428571 102.4 384 102.4s307.2-40.228571 384-102.4v54.857143h-25.6c-73.142857-3.657143-138.971429 32.914286-179.2 91.428571z m285.257143 230.4c-29.257143 29.257143-65.828571 43.885714-106.057143 43.885715-36.571429 0-73.142857-14.628571-102.4-40.228572l-7.314285-7.314285c-21.942857-21.942857-36.571429-47.542857-40.228572-73.142858-3.657143-10.971429-3.657143-21.942857-3.657143-32.914285 0-10.971429 0-21.942857 3.657143-32.914286 7.314286-29.257143 21.942857-54.857143 40.228572-73.142857 29.257143-29.257143 65.828571-43.885714 106.057143-43.885714 32.914286 0 62.171429 10.971429 87.771428 29.257142 7.314286 3.657143 14.628571 10.971429 18.285714 18.285715 29.257143 29.257143 43.885714 65.828571 43.885715 106.057143 7.314286 36.571429-10.971429 76.8-40.228572 106.057142z" p-id="4751"></path><path d="M808.228571 848.457143m-32.914285 0a32.914286 32.914286 0 1 0 65.828571 0 32.914286 32.914286 0 1 0-65.828571 0Z" p-id="4752"></path><path d="M808.228571 654.628571c-18.285714 0-32.914286 14.628571-32.914285 32.914286V768c0 18.285714 14.628571 32.914286 32.914285 32.914286s32.914286-14.628571 32.914286-32.914286v-80.457143c0-18.285714-14.628571-32.914286-32.914286-32.914286z" p-id="4753"></path></svg>