<?xml version="1.0" standalone="no"?><!DOCTYPE svg PUBLIC "-//W3C//DTD SVG 1.1//EN" "http://www.w3.org/Graphics/SVG/1.1/DTD/svg11.dtd"><svg t="1636818382025" class="icon" viewBox="0 0 1325 1024" version="1.1" xmlns="http://www.w3.org/2000/svg" p-id="9640" xmlns:xlink="http://www.w3.org/1999/xlink" width="258.7890625" height="200"><defs><style type="text/css"></style></defs><path d="M753.823683 812.577384l103.864255-103.633445a62.780172 62.780172 0 0 0-88.86164-88.630832l-103.633446 103.633446-104.325874-104.095064a62.780172 62.780172 0 0 0-88.630831 88.630831L577.02364 812.808194l-104.095065 104.095064a62.780172 62.780172 0 0 0 0 88.630831 61.856934 61.856934 0 0 0 44.315416 18.464757 60.933696 60.933696 0 0 0 44.084606-18.464757L664.962043 900.515787l104.325874 104.325874a62.318553 62.318553 0 0 0 44.315415 18.464757 61.626125 61.626125 0 0 0 44.546225-18.464757 63.010981 63.010981 0 0 0 0-88.630831zM1313.305804 327.415908A819.604378 819.604378 0 0 0 1033.103125 89.451359a810.372 810.372 0 0 0-740.205925 0A817.757903 817.757903 0 0 0 12.232901 329.493193a63.010981 63.010981 0 0 0 13.386949 87.938403 61.395315 61.395315 0 0 0 37.160322 12.232901 62.318553 62.318553 0 0 0 50.547271-25.850659 686.427322 686.427322 0 0 1 550.249743-276.971347 678.579801 678.579801 0 0 1 549.095696 276.971347 62.780172 62.780172 0 0 0 100.632922-74.782264z" p-id="9641"></path><path d="M915.621112 319.106767a551.40379 551.40379 0 0 0-496.24033 0A553.942694 553.942694 0 0 0 230.809456 477.211245a62.318553 62.318553 0 0 0 11.771282 87.707593 63.70341 63.70341 0 0 0 38.08356 12.92533 63.010981 63.010981 0 0 0 49.854843-24.927422 424.689399 424.689399 0 0 1 676.040897 0 62.780172 62.780172 0 0 0 99.709684-75.936311 551.865409 551.865409 0 0 0-190.64861-157.873668z" p-id="9642"></path></svg>