<?xml version="1.0" standalone="no"?><!DOCTYPE svg PUBLIC "-//W3C//DTD SVG 1.1//EN" "http://www.w3.org/Graphics/SVG/1.1/DTD/svg11.dtd"><svg t="1636937926346" class="icon" viewBox="0 0 1350 1024" version="1.1" xmlns="http://www.w3.org/2000/svg" p-id="10044" xmlns:xlink="http://www.w3.org/1999/xlink" width="263.671875" height="200"><defs><style type="text/css"></style></defs><path d="M884.977659 778.648918zM675.690915 843.962285A90.018857 90.018857 0 1 0 766.845657 933.981143a90.018857 90.018857 0 0 0-91.154742-90.018858zM421.252757 661.652801A67.017194 67.017194 0 1 0 511.271614 760.758735a245.635053 245.635053 0 0 1 328.554631 0 71.560732 71.560732 0 0 0 45.151414 17.890183 66.16528 66.16528 0 0 0 49.410982-24.70549 67.301165 67.301165 0 0 0-4.543538-94.562396 379.385469 379.385469 0 0 0-508.592346 2.271769z" p-id="10045"></path><path d="M675.690915 297.317804a644.046589 644.046589 0 0 0-445.83472 175.210205 68.437049 68.437049 0 0 0 0 96.834165 67.301165 67.301165 0 0 0 94.562396 2.271769 511.148087 511.148087 0 0 1 702.260677 0 77.808098 77.808098 0 0 0 47.139212 18.174155 72.128674 72.128674 0 0 0 49.694953-22.717693l1.987798-2.271769a65.313367 65.313367 0 0 0-4.259567-92.290627 653.133666 653.133666 0 0 0-445.550749-175.210205z" p-id="10046"></path><path d="M1330.528408 263.241265a943.636162 943.636162 0 0 0-1309.958957 2.271769 67.301165 67.301165 0 0 0-2.271769 94.562396 67.869107 67.869107 0 0 0 95.982251 0 812.441486 812.441486 0 0 1 561.410982-225.189129 803.63838 803.63838 0 0 1 560.275097 227.176927 75.8203 75.8203 0 0 0 47.139213 17.890183 64.461453 64.461453 0 0 0 49.694952-22.433722 67.301165 67.301165 0 0 0-2.271769-94.278424z" p-id="10047"></path></svg>