<?xml version="1.0" standalone="no"?>
<!DOCTYPE svg PUBLIC "-//W3C//DTD SVG 1.1//EN" "http://www.w3.org/Graphics/SVG/1.1/DTD/svg11.dtd"><svg t="1637909909437"
  class="icon" viewBox="0 0 1078 1024" version="1.1" xmlns="http://www.w3.org/2000/svg" p-id="3828"
  xmlns:xlink="http://www.w3.org/1999/xlink" width="134.75" height="128">
  <defs>
    <style type="text/css"></style>
  </defs>
  <path
    d="M988.497381 298.576842h-107.789474v49.583158h107.789474z m21.557895-82.566737h-129.347369v49.583158h129.347369zM1035.062434 381.143579h-155.216842V431.157895H1035.062434z m0-330.266947h-155.216842v49.583157H1035.062434zM457.310855 609.872842a230.453895 230.453895 0 0 0-6.467369 52.170105 221.184 221.184 0 0 0 439.134316 37.941895L843.197171 689.852632a172.463158 172.463158 0 0 1-344.926316-28.456421 155.216842 155.216842 0 0 1 4.311579-37.510737c-14.443789-3.880421-30.181053-8.407579-45.271579-14.012632z m531.186526-476.429474h-107.789474v49.583158h107.789474zM668.578223 133.443368a29.534316 29.534316 0 0 0-29.103158 29.103158V519.545263a123.742316 123.742316 0 0 0-67.47621 47.642948c68.122947 16.599579 135.168 27.378526 197.685894 36.864l23.282527 3.880421a126.329263 126.329263 0 0 0-95.070316-90.543158V162.546526A29.103158 29.103158 0 0 0 668.578223 133.443368z m3.233684 652.341895a124.820211 124.820211 0 0 0 122.448842-104.124631l-33.414736-5.820632c-66.398316-10.132211-137.754947-21.557895-210.405053-39.235368a106.496 106.496 0 0 0-2.586947 24.791579 124.389053 124.389053 0 0 0 124.173473 124.389052zM474.557171 540.025263c15.737263 4.958316 30.827789 10.132211 46.565052 14.659369a180.655158 180.655158 0 0 1 27.162948-36.217264 172.463158 172.463158 0 0 1 49.152-35.570526V120.724211a70.709895 70.709895 0 1 1 141.419789 0v358.29221a180.224 180.224 0 0 1 49.367579 31.043368 176.774737 176.774737 0 0 1 56.266105 106.711579l49.152 9.701053a222.261895 222.261895 0 0 0-105.418105-176.774737V120.724211a120.077474 120.077474 0 1 0-240.154947 0v334.794105A227.004632 227.004632 0 0 0 474.557171 540.025263zM113.031276 831.488l-2.586948 3.233684a218.597053 218.597053 0 0 0 14.44379 25.438316c9.054316 13.365895 18.324211 24.791579 18.32421 24.791579l3.880421-4.527158a442.799158 442.799158 0 0 1-27.162947-38.157474c0-1.724632 12.719158 1.940211 14.012632-3.018105-9.054316-13.365895-34.923789-53.463579-32.983579-60.362105-2.586947-2.586947-6.251789 0-6.25179 0a407.659789 407.659789 0 0 0 30.82779 55.18821c6.467368 5.173895-12.503579-1.293474-12.503579-2.586947z m-64.673684-17.030737a158.666105 158.666105 0 0 0 21.557894 26.73179c3.233684 2.371368 26.085053 21.557895 26.085053 21.557894l3.664842-5.820631A371.873684 371.873684 0 0 1 64.957171 825.882947c0-3.880421 6.898526 0 7.545263-1.293473A450.128842 450.128842 0 0 0 43.399276 786.432l-5.605053 3.233684 18.324211 21.557895s-6.251789 1.293474-6.898527 3.233684z m92.914526 86.231579s-20.264421-26.085053-20.264421-26.731789-3.880421-1.293474-3.880421 0 20.264421 28.456421 21.557895 28.456421 3.449263-2.155789 3.449263-2.15579z m-56.697263-26.51621a324.877474 324.877474 0 0 1 51.738947 33.630315c1.940211 0 2.586947-1.293474 1.940211-1.94021S99.018644 872.232421 86.515065 870.938947c-5.173895-1.293474-5.173895 0.646737-1.94021 3.233685zM1078.178223 789.665684c-1.940211-58.421895-35.354947-100.459789-102.4-127.622737a488.933053 488.933053 0 0 0-89.034105-26.085052c-15.737263-3.233684-32.336842-6.467368-49.367579-9.485474s-34.061474-5.820632-51.738947-9.054316l-23.282527-3.664842c-62.517895-10.347789-129.347368-21.557895-197.685894-36.864-16.599579-3.880421-33.630316-8.407579-50.014316-13.365895s-31.474526-9.485474-46.780632-14.659368a905.431579 905.431579 0 0 1-86.231579-33.630316C293.039697 474.273684 292.39296 452.715789 292.39296 452.715789s7.545263-25.438316 124.389053-47.642947c53.032421-10.132211 106.064842-15.306105 125.682526-17.246316v-50.445473c-15.737263 1.293474-73.943579 6.251789-134.521263 17.677473-105.418105 21.557895-157.803789 48.289684-164.917895 89.034106-9.485474 52.601263 62.517895 92.052211 118.137263 117.490526a828.901053 828.901053 0 0 0 90.327579 34.923789c15.306105 5.173895 31.043368 10.132211 46.133895 14.659369s31.690105 8.838737 47.427368 12.719158c72.650105 17.677474 144.006737 29.103158 210.189474 39.882105l33.630316 5.820632c17.030737 2.586947 33.414737 5.605053 48.505263 8.192l46.780632 9.485473c91.621053 20.48 142.066526 46.996211 144.006736 104.340211 1.293474 34.923789-33.414737 64.673684-62.517894 83.213473-167.289263 107.789474-578.613895 140.988632-802.169264 26.516211l-22.635789 45.271579c104.771368 53.894737 244.466526 77.392842 384.592842 77.392842 182.595368 0 364.544-39.882105 468.021895-106.064842 71.356632-46.996211 85.800421-95.285895 84.722526-128.269474zM88.886434 883.873684c-6.898526 0 0 3.880421 0 3.880421a202.428632 202.428632 0 0 1 44.409263 24.791579c3.018105 1.724632 4.311579 0 2.371368-1.94021A122.88 122.88 0 0 0 88.886434 883.873684z m-27.162948 41.606737a40.96 40.96 0 0 0 12.072421 5.173895 464.357053 464.357053 0 0 0-51.954526 3.880421c0 1.940211 1.940211 6.251789 1.940211 6.251789l57.344-4.311579s8.192-1.940211 5.820631-4.527158a40.96 40.96 0 0 0-6.251789-4.958315l35.354947 10.347789 1.940211-6.467368a321.859368 321.859368 0 0 0-54.325895-11.425684c-8.192 0.431158-2.371368 4.311579-1.940211 6.03621z m30.396632-21.557895c-2.586947 1.940211 0 3.880421 0 3.880421a92.052211 92.052211 0 0 1 37.510737 9.485474c5.605053 1.940211 1.940211-2.586947 1.94021-2.586947a251.149474 251.149474 0 0 0-39.450947-10.778948z m-43.11579-16.384L45.339486 883.873684l31.043369 15.306105a6.682947 6.682947 0 0 0 3.233684-3.880421 125.898105 125.898105 0 0 0-48.074105-23.498105c-3.233684 2.586947-1.940211 2.586947 0 5.605053a19.617684 19.617684 0 0 0 4.311579 5.173895A168.582737 168.582737 0 0 0 0.283486 877.190737 19.833263 19.833263 0 0 0 0.283486 883.873684a356.567579 356.567579 0 0 1 43.11579 7.545263c3.880421 1.724632 7.760842-2.155789 5.820631-3.880421z"
    p-id="3829"></path>
</svg>