<?xml version="1.0" standalone="no"?>
<!DOCTYPE svg PUBLIC "-//W3C//DTD SVG 1.1//EN" "http://www.w3.org/Graphics/SVG/1.1/DTD/svg11.dtd"><svg t="1637911335735"
  class="icon" viewBox="0 0 1089 1024" version="1.1" xmlns="http://www.w3.org/2000/svg" p-id="7612"
  xmlns:xlink="http://www.w3.org/1999/xlink" width="136.125" height="128">
  <defs>
    <style type="text/css"></style>
  </defs>
  <path
    d="M521.573839 190.637555A421.790531 421.790531 0 0 0 95.643835 607.199277 421.790531 421.790531 0 0 0 521.573839 1023.978867a421.790531 421.790531 0 0 0 425.930004-416.77959A421.790531 421.790531 0 0 0 521.573839 190.637555z m0 758.395061a346.190678 346.190678 0 0 1-348.587215-341.833339 346.190678 346.190678 0 0 1 348.587215-341.833338A346.190678 346.190678 0 0 1 871.468256 607.199277a346.190678 346.190678 0 0 1-349.894417 341.833339zM171.897289 326.804436a111.983643 111.983643 0 0 0 57.51689-97.168686 113.508712 113.508712 0 0 0-114.815914-112.855111A113.508712 113.508712 0 0 0 0.000218 228.982149 111.765776 111.765776 0 0 0 57.299241 326.804436a117.866052 117.866052 0 0 0 114.598048 0z m732.468886-210.023797a85.839602 85.839602 0 1 0 87.146804 85.839602 87.146804 87.146804 0 0 0-87.146804-85.839602z m130.720206-116.776717A54.248885 54.248885 0 0 0 980.401761 53.817073a54.902486 54.902486 0 0 0 108.933505 0A54.248885 54.248885 0 0 0 1034.43278 0.003922zM308.282037 111.116097a43.573402 43.573402 0 0 0 43.573401 0 41.394732 41.394732 0 0 0 0-72.767582 43.573402 43.573402 0 0 0-43.573401 0 41.394732 41.394732 0 0 0 0 72.767582z m413.947318 437.694822a135.51328 135.51328 0 0 0-49.455811-7.189611 123.530594 123.530594 0 0 0-47.930742 7.407478 58.824093 58.824093 0 0 0-26.797643 21.786701 94.118548 94.118548 0 0 0-13.507754 39.216062l60.349161 4.793074a43.573402 43.573402 0 0 1 9.804016-26.579775 28.322711 28.322711 0 0 1 37.473126 0 21.786701 21.786701 0 0 1 7.189611 16.557892 32.897918 32.897918 0 0 1-7.189611 18.95443A176.690145 176.690145 0 0 1 658.176454 653.604951a259.915342 259.915342 0 0 0-59.259827 51.852348 424.622802 424.622802 0 0 0-18.954429 46.841407h165.36106v-37.473126h-78.432124c5.446675 0 10.239749-12.41842 14.379223-15.468557s12.200553-10.457616 24.401105-18.736563a160.350119 160.350119 0 0 0 42.2662-39.433929 67.103039 67.103039 0 0 0 11.546952-37.473126 57.081157 57.081157 0 0 0-10.021883-33.115785 60.131295 60.131295 0 0 0-27.886977-21.786701z m-322.661041-117.648185a171.679204 171.679204 0 0 0-124.837797 43.573402 163.835991 163.835991 0 0 0-44.662737 122.441259 179.522416 179.522416 0 0 0 21.786701 93.900681 139.434886 139.434886 0 0 0 59.04196 54.68462 214.381137 214.381137 0 0 0 91.939878 17.211493 186.276293 186.276293 0 0 0 91.286277-20.043765 135.949014 135.949014 0 0 0 55.991821-55.991821 194.337373 194.337373 0 0 0 19.390164-92.375612 159.914385 159.914385 0 0 0-43.573402-120.480456 172.986406 172.986406 0 0 0-127.016466-42.919801z m51.198747 236.821439a62.963566 62.963566 0 0 1-50.545146 21.786701 63.3993 63.3993 0 0 1-50.32728-21.786701 106.754835 106.754835 0 0 1-18.518695-69.93531 105.6655 105.6655 0 0 1 17.211493-70.588911 62.309965 62.309965 0 0 1 49.237945-21.786701 65.360103 65.360103 0 0 1 50.763013 21.786701 98.040154 98.040154 0 0 1 18.736563 65.360103 116.55885 116.55885 0 0 1-17.211494 75.164118z"
    p-id="7613"></path>
</svg>