<?xml version="1.0" standalone="no"?>
<!DOCTYPE svg PUBLIC "-//W3C//DTD SVG 1.1//EN" "http://www.w3.org/Graphics/SVG/1.1/DTD/svg11.dtd"><svg t="1627400688041"
  class="icon" viewBox="0 0 1024 1024" version="1.1" xmlns="http://www.w3.org/2000/svg" p-id="1902"
  xmlns:xlink="http://www.w3.org/1999/xlink" width="64" height="64">
  <path
    d="M777.27999969 400.59999969c1.08-127.00000031-24.52000031-215.80000031-78.24-271.39999969C655.35999969 84.00000031 594.51999969 62 513.03999969 62c-34.51999969 0-66.64000031 5.47999969-95.35999969 16.24000031a217.48000031 217.48000031 0 0 0-85.51999969 57.99999938c-52.24000031 57.6-78.79999969 146.52-79.08 264.32000062h-4.2C195.44 400.56000031 152 445.08000031 152 499.76v363.07999969c0 54.67999969 43.44 99.16000031 96.88000031 99.16000031h526.23999938c53.44000031 0 96.88000031-44.47999969 96.88000031-99.19999969v-363.04000031c0-53.95999969-42.28000031-97.96000031-94.72000031-99.16000031z m-395.43999938-217.2c31.32-34.51999969 75.48-52.00000031 131.23999969-51.99999938 62.4 0 107.47999969 15.19999969 137.80000031 46.59999938 39.88000031 41.28 59.59999969 116.16 58.63999969 222.6H320.84c0.24-99.72 20.80000031-172.8 61.00000031-217.2z m422.4 679.44c0 16.39999969-13.08 29.80000031-29.12000062 29.80000031H248.88000031a29.52 29.52 0 0 1-29.12000062-29.80000031v-363.07999969c0-16.44 13.08-29.80000031 29.12000062-29.80000031h526.23999938c16.03999969 0 29.11999969 13.36000031 29.12000062 29.80000031v363.07999969z m-224.16-250.2v3.52000031c0 34.60000031-13.2 55.63999969-39.64000031 63.19999969v126.52000031c0 17.44000031-8.52 26.16-25.51999969 26.16h-1.2c-17.04 0-25.60000031-8.71999969-25.60000031-26.16v-126.16000031c-27.36-7.15999969-41.08000031-28.32-41.08000031-63.55999969v-3.52000031c0-44.20000031 21.6-66.31999969 64.8-66.31999969h3.44000062c43.2 0 64.8 22.12000031 64.8 66.31999969z"
    p-id="1903"></path>
</svg>