<?xml version="1.0" standalone="no"?>
<!DOCTYPE svg PUBLIC "-//W3C//DTD SVG 1.1//EN" "http://www.w3.org/Graphics/SVG/1.1/DTD/svg11.dtd"><svg t="1637907308525"
  class="icon" viewBox="0 0 1024 1024" version="1.1" xmlns="http://www.w3.org/2000/svg" p-id="3265"
  xmlns:xlink="http://www.w3.org/1999/xlink" width="128" height="128">
  <defs>
    <style type="text/css"></style>
  </defs>
  <path
    d="M680.228571 387.657143C680.228571 292.571429 607.085714 219.428571 512 219.428571 416.914286 219.428571 343.771429 292.571429 343.771429 387.657143c0 95.085714 73.142857 168.228571 168.228571 168.228571 95.085714 0 168.228571-73.142857 168.228571-168.228571z m-248.685714 0c0-43.885714 36.571429-80.457143 80.457143-80.457143s80.457143 36.571429 80.457143 80.457143S555.885714 475.428571 512 475.428571 431.542857 438.857143 431.542857 387.657143z"
    p-id="3266"></path>
  <path
    d="M512 848.457143c29.257143 0 58.514286-14.628571 80.457143-36.571429 124.342857-131.657143 270.628571-307.2 270.628571-438.857143C863.085714 175.542857 702.171429 14.628571 512 14.628571S160.914286 168.228571 160.914286 365.714286c0 131.657143 146.285714 314.514286 270.628571 438.857143 21.942857 29.257143 51.2 43.885714 80.457143 43.885714zM512 95.085714c146.285714 0 270.628571 124.342857 270.628571 270.628572 0 80.457143-87.771429 219.428571-241.371428 380.342857-14.628571 14.628571-36.571429 14.628571-51.2 0C329.142857 592.457143 241.371429 446.171429 241.371429 365.714286 241.371429 219.428571 365.714286 95.085714 512 95.085714z"
    p-id="3267"></path>
  <path
    d="M789.942857 687.542857c-29.257143-7.314286-51.2 7.314286-58.514286 29.257143-7.314286 21.942857 7.314286 43.885714 29.257143 51.2 87.771429 21.942857 124.342857 58.514286 124.342857 65.828571 0 21.942857-131.657143 95.085714-373.028571 95.085715s-373.028571-65.828571-373.028571-95.085715c0-14.628571 36.571429-43.885714 146.285714-73.142857 21.942857-7.314286 36.571429-29.257143 29.257143-51.2-7.314286-21.942857-29.257143-36.571429-51.2-29.257143-131.657143 29.257143-204.8 80.457143-204.8 153.6 0 124.342857 234.057143 182.857143 453.485714 182.857143s453.485714-58.514286 453.485714-182.857143c0-43.885714-29.257143-109.714286-175.542857-146.285714z"
    p-id="3268"></path>
</svg>