<?xml version="1.0" standalone="no"?>
<!DOCTYPE svg PUBLIC "-//W3C//DTD SVG 1.1//EN" "http://www.w3.org/Graphics/SVG/1.1/DTD/svg11.dtd"><svg t="1637907271413"
  class="icon" viewBox="0 0 1030 1024" version="1.1" xmlns="http://www.w3.org/2000/svg" p-id="3123"
  xmlns:xlink="http://www.w3.org/1999/xlink" width="128.75" height="128">
  <defs>
    <style type="text/css"></style>
  </defs>
  <path
    d="M724.988371 921.589719H230.416451a230.493042 230.493042 0 0 1 0-460.781292h563.177135a127.994803 127.994803 0 1 0 0-255.989607H299.021666A150.112305 150.112305 0 0 1 153.619569 307.214663 150.829076 150.829076 0 0 1 0.025805 153.620899 150.829076 150.829076 0 0 1 153.619569 0.027135a150.419493 150.419493 0 0 1 145.402097 102.395843h494.57192a230.493042 230.493042 0 1 1 0 460.781292h-563.177135a127.994803 127.994803 0 1 0 0 255.989607h494.57192a153.593764 153.593764 0 1 1 0 102.395842z"
    p-id="3124"></path>
</svg>