<?xml version="1.0" standalone="no"?><!DOCTYPE svg PUBLIC "-//W3C//DTD SVG 1.1//EN" "http://www.w3.org/Graphics/SVG/1.1/DTD/svg11.dtd"><svg t="1635141643430" class="icon" viewBox="0 0 1024 1024" version="1.1" xmlns="http://www.w3.org/2000/svg" p-id="4266" xmlns:xlink="http://www.w3.org/1999/xlink" width="200" height="200"><defs><style type="text/css"></style></defs><path d="M285.257143 179.2c14.628571 0 29.257143 3.657143 40.228571 7.314286 14.628571 3.657143 25.6 14.628571 32.914286 21.942857 10.971429 10.971429 18.285714 21.942857 21.942857 32.914286 3.657143 14.628571 7.314286 25.6 7.314286 40.228571 0 14.628571-3.657143 29.257143-7.314286 40.228571-3.657143 10.971429-14.628571 21.942857-21.942857 32.914286-10.971429 10.971429-21.942857 18.285714-32.914286 21.942857-14.628571 3.657143-25.6 7.314286-40.228571 7.314286-14.628571 0-29.257143-3.657143-40.228572-7.314286-14.628571 0-25.6-7.314286-32.914285-14.628571-10.971429-10.971429-18.285714-21.942857-21.942857-36.571429-7.314286-10.971429-10.971429-25.6-10.971429-40.228571 0-14.628571 3.657143-29.257143 10.971429-40.228572 3.657143-14.628571 10.971429-25.6 21.942857-32.914285 7.314286-10.971429 18.285714-18.285714 32.914285-21.942857 10.971429-7.314286 25.6-10.971429 40.228572-10.971429zM961.828571 0c14.628571 0 29.257143 7.314286 43.885715 18.285714 10.971429 10.971429 18.285714 25.6 18.285714 40.228572v906.971428c0 14.628571-7.314286 29.257143-18.285714 40.228572-10.971429 10.971429-25.6 18.285714-43.885715 18.285714H58.514286c-14.628571 0-29.257143-7.314286-40.228572-18.285714-10.971429-10.971429-18.285714-25.6-18.285714-40.228572V58.514286C0 43.885714 7.314286 29.257143 18.285714 18.285714S43.885714 0 58.514286 0h903.314285z m-29.257142 149.942857c0-18.285714-7.314286-32.914286-18.285715-43.885714-10.971429-10.971429-25.6-18.285714-43.885714-18.285714H149.942857c-18.285714 3.657143-29.257143 7.314286-43.885714 21.942857-10.971429 10.971429-14.628571 25.6-14.628572 40.228571V512c0 18.285714 3.657143 40.228571 14.628572 54.857143s25.6 32.914286 43.885714 47.542857 40.228571 25.6 65.828572 32.914286c25.6 7.314286 54.857143 10.971429 87.771428 14.628571 47.542857 0 84.114286-3.657143 109.714286-18.285714 29.257143-14.628571 51.2-29.257143 73.142857-47.542857 21.942857-18.285714 40.228571-40.228571 58.514286-65.828572 18.285714-21.942857 40.228571-43.885714 65.828571-65.828571 25.6-21.942857 54.857143-36.571429 91.428572-51.2 36.571429-14.628571 84.114286-21.942857 142.628571-21.942857h91.428571V149.942857z m0 0" p-id="4267"></path></svg>