<?xml version="1.0" standalone="no"?><!DOCTYPE svg PUBLIC "-//W3C//DTD SVG 1.1//EN" "http://www.w3.org/Graphics/SVG/1.1/DTD/svg11.dtd"><svg t="1629708205161" class="icon" viewBox="0 0 1024 1024" version="1.1" xmlns="http://www.w3.org/2000/svg" p-id="2992" xmlns:xlink="http://www.w3.org/1999/xlink" width="200" height="200"><defs><style type="text/css"></style></defs><path d="M986.348376 421.489478a126.96046 126.96046 0 0 0-69.077412-35.630838 16.245478 16.245478 0 0 1-12.423013-10.648297A416.648736 416.648736 0 0 0 648.742765 119.105157a16.518511 16.518511 0 0 1-10.648296-12.423013 127.916076 127.916076 0 0 0-252.282721 0 16.518511 16.518511 0 0 1-10.648296 12.423013A416.648736 416.648736 0 0 0 119.058265 375.210343a16.108962 16.108962 0 0 1-12.423012 10.51178 128.052593 128.052593 0 0 0-69.077412 216.788399 126.96046 126.96046 0 0 0 69.077412 35.630838 16.245478 16.245478 0 0 1 12.423012 10.648297 416.648736 416.648736 0 0 0 256.105187 256.105186 16.518511 16.518511 0 0 1 10.648296 12.423013 127.916076 127.916076 0 0 0 252.282721 0 16.518511 16.518511 0 0 1 10.648296-12.423013 416.648736 416.648736 0 0 0 256.105186-256.105186 16.108962 16.108962 0 0 1 12.423013-10.51178 128.052593 128.052593 0 0 0 69.077412-216.788399z m-128.18911 154.536819a355.762321 355.762321 0 0 1-18.293227 64.026296c-1.092133 2.866849-2.320783 5.870215-3.685949 8.873581a353.987605 353.987605 0 0 1-187.300808 187.437324l-9.010097 3.685949a352.212889 352.212889 0 0 1-64.026297 18.156711 351.393789 351.393789 0 0 1-127.916076 0 349.209523 349.209523 0 0 1-64.026297-18.156711l-9.010097-3.685949a351.393789 351.393789 0 0 1-111.943631-75.493693 356.035355 356.035355 0 0 1-75.493693-111.943631l-3.685949-8.873581a354.943222 354.943222 0 0 1-18.156711-64.026296 352.076373 352.076373 0 0 1 0-128.052594 350.847723 350.847723 0 0 1 18.156711-63.889779l3.685949-9.010098a353.714572 353.714572 0 0 1 187.437324-187.437324l9.010097-3.685949a349.209523 349.209523 0 0 1 64.026297-18.156711 354.943222 354.943222 0 0 1 63.88978-5.870215 343.748858 343.748858 0 0 1 64.026296 5.870215 352.212889 352.212889 0 0 1 64.026297 18.156711l9.010097 3.685949a353.987605 353.987605 0 0 1 187.300808 187.437324q2.047749 4.505049 3.685949 9.010098a351.257273 351.257273 0 0 1 18.293227 63.889779 360.403887 360.403887 0 0 1 0 128.052594z" p-id="2993"></path><path d="M511.953108 512m-159.997483 0a159.997483 159.997483 0 1 0 319.994966 0 159.997483 159.997483 0 1 0-319.994966 0Z" p-id="2994"></path></svg>