<?xml version="1.0" standalone="no"?>
<!DOCTYPE svg PUBLIC "-//W3C//DTD SVG 1.1//EN" "http://www.w3.org/Graphics/SVG/1.1/DTD/svg11.dtd"><svg t="1637907418497"
  class="icon" viewBox="0 0 1024 1024" version="1.1" xmlns="http://www.w3.org/2000/svg" p-id="3184"
  xmlns:xlink="http://www.w3.org/1999/xlink" width="128" height="128">
  <defs>
    <style type="text/css"></style>
  </defs>
  <path
    d="M312.84337813 284.80853333L216.72391147 95.11822187c-12.37902187-24.3939552-52.4288-24.3939552-65.17191147 0L55.79662187 284.80853333c-30.9475552 61.53102187-19.29671147 137.98968853 29.12711146 185.68533334C112.95857813 498.16462187 148.63928853 512 184.32 512s71.36142187-13.83537813 99.39626667-41.50613333c48.05973333-47.6956448 60.07466667-124.15431147 29.12711146-185.68533334z m-80.4636448 133.98471147c-27.30666667 27.30666667-68.8128 27.30666667-96.4835552 0-25.48622187-25.48622187-32.03982187-67.72053333-15.29173333-100.85262293L184.32 192.3299552l63.35146667 125.61066667c16.74808853 33.13208853 10.55857813 75.3664-15.29173334 100.85262293zM985.3155552 220.72888853V147.91111147h-72.81777707V38.6844448h-72.81777813v946.6311104h145.6355552v-72.81777707h-72.81777707v-182.0444448h72.81777707v-72.81777813h-72.81777707v-182.04444373h72.81777707v-72.81777814h-72.81777707V220.72888853h72.81777707z m-441.27573333 19.29671147c-12.74311147-23.66577813-51.70062187-23.66577813-64.44373334 0l-191.87484373 360.448c-56.06968853 105.22168853-34.95253333 235.20142187 51.33653333 316.0291552 48.42382187 45.51111147 110.31893333 68.08462187 172.57813334 68.08462293s124.15431147-22.9376 172.57813333-68.08462293c86.28906667-80.82773333 107.40622187-210.80746667 51.33653333-316.0291552l-191.51075626-360.448z m90.65813333 623.32017813a177.71178667 177.71178667 0 0 1-245.3959104 0c-62.2592-58.61831147-77.55093333-152.5532448-37.13706667-228.64782293L512 334.68871147l159.47093333 300.00924373c40.7779552 76.09457813 25.48622187 170.3936-36.77297813 228.64782293z"
    p-id="3185"></path>
</svg>