<?xml version="1.0" standalone="no"?><!DOCTYPE svg PUBLIC "-//W3C//DTD SVG 1.1//EN" "http://www.w3.org/Graphics/SVG/1.1/DTD/svg11.dtd"><svg t="1637896048930" class="icon" viewBox="0 0 1335 1024" version="1.1" xmlns="http://www.w3.org/2000/svg" p-id="3181" xmlns:xlink="http://www.w3.org/1999/xlink" width="166.875" height="128"><defs><style type="text/css"></style></defs><path d="M921.20012926 98.615652L670.76534625 162.63791301v762.74643499l250.43478301-64.02226099V98.615652z m83.47825999-1.736348v763.859479l250.43478302 56.898782V153.77808699L1004.67838925 96.879304z m-417.391304 65.75860899L336.85230226 98.615652v762.74643501l0.17808699 0.04452199 250.256696 63.977739V162.63791301z m-333.913043-61.70712999l-166.95652199 48.75130399V910.914783l164.285217-47.994435 2.67130499-0.75687001V100.930783zM63.48882427 67.673043L295.09091126 0l313.700174 80.13912999c13.26747799 3.42817399 27.158261 3.42817399 40.514783 0L962.87247627 0l310.31652199 70.47791301A84.94747801 84.94747801 0 0 1 1338.59143325 153.77808699v763.85947801c0 47.104-37.398261 85.303652-83.47826098 85.303652-6.09947801 0-12.154435-0.66782601-18.120348-2.003478l-254.79791301-57.87826101a81.697391 81.697391 0 0 0-38.37773899 0.48973901L629.04847627 1024 316.81752026 944.217043a81.74191299 81.74191299 0 0 0-43.186087 0.712348l-164.285217 47.99443501c-44.343652 12.911304-90.512696-13.312-103.20139199-58.59060901A87.08452201 87.08452201 0 0 1 2.93925926 910.870261V149.68208699c0-38.06608699 24.709565-71.546435 60.54956501-82.05356498z" p-id="3182"></path></svg>