<?xml version="1.0" standalone="no"?>
<!DOCTYPE svg PUBLIC "-//W3C//DTD SVG 1.1//EN" "http://www.w3.org/Graphics/SVG/1.1/DTD/svg11.dtd"><svg t="1637905537052"
  class="icon" viewBox="0 0 1024 1024" version="1.1" xmlns="http://www.w3.org/2000/svg" p-id="3323"
  xmlns:xlink="http://www.w3.org/1999/xlink" width="128" height="128">
  <defs>
    <style type="text/css"></style>
  </defs>
  <path
    d="M256 315.5437037c-64.85333333 0-116.05333333-51.2-116.05333333-116.05333333s51.2-116.05333333 116.05333333-116.05333334 116.05333333 51.2 116.05333333 116.05333334-51.2 116.05333333-116.05333333 116.05333333z m0-160.42666667c-27.30666667 0-47.78666667 20.48-47.78666667 47.78666667s20.48 47.78666667 47.78666667 47.78666667 47.78666667-20.48 47.78666667-47.78666667-20.48-47.78666667-47.78666667-47.78666667zM768 315.5437037c-64.85333333 0-116.05333333-51.2-116.05333333-116.05333333s51.2-116.05333333 116.05333333-116.05333334 116.05333333 51.2 116.05333333 116.05333334-51.2 116.05333333-116.05333333 116.05333333z m0-160.42666667c-27.30666667 0-47.78666667 20.48-47.78666667 47.78666667s20.48 47.78666667 47.78666667 47.78666667 47.78666667-20.48 47.78666667-47.78666667-23.89333333-47.78666667-47.78666667-47.78666667zM61.44 636.39703703H307.2v68.26666667H61.44zM61.44 793.41037037H307.2v68.26666666H61.44z"
    p-id="3324"></path>
  <path d="M716.8 636.39703703h245.76v68.26666667H716.8zM716.8 793.41037037h245.76v68.26666666H716.8z" p-id="3325">
  </path>
  <path
    d="M730.45333333 445.25037037H293.54666667c-116.05333333 0-211.62666667-95.57333333-211.62666667-211.62666667v-3.41333333c0-116.05333333 95.57333333-211.62666667 211.62666667-211.62666667h440.32c116.05333333 0 211.62666667 95.57333333 211.62666666 211.62666667v6.82666666c-3.41333333 112.64-98.98666667 208.21333333-215.04 208.21333334zM293.54666667 103.91703703c-68.26666667 0-126.29333333 54.61333333-126.29333334 126.29333334v6.82666666c0 68.26666667 54.61333333 126.29333333 126.29333334 126.29333334h440.32c68.26666667 0 126.29333333-54.61333333 126.29333333-126.29333334v-6.82666666c0-68.26666667-54.61333333-126.29333333-126.29333333-126.29333334H293.54666667zM256 1008.45037037H112.64c-51.2 0-92.16-40.96-92.16-92.16V581.7837037c0-51.2 40.96-92.16 92.16-92.16h143.36c51.2 0 92.16 40.96 92.16 92.16v334.50666667c0 51.2-40.96 92.16-92.16 92.16zM112.64 574.95703703c-3.41333333 0-6.82666667 3.41333333-6.82666667 6.82666667v334.50666667c0 3.41333333 3.41333333 6.82666667 6.82666667 6.82666666h143.36c3.41333333 0 6.82666667-3.41333333 6.82666667-6.82666666V581.7837037c0-3.41333333-3.41333333-6.82666667-6.82666667-6.82666667H112.64zM911.36 1008.45037037h-143.36c-51.2 0-92.16-40.96-92.16-92.16V581.7837037c0-51.2 40.96-92.16 92.16-92.16h143.36c51.2 0 92.16 40.96 92.16 92.16v334.50666667c0 51.2-40.96 92.16-92.16 92.16z m-143.36-433.49333334c-3.41333333 0-6.82666667 3.41333333-6.82666667 6.82666667v334.50666667c0 3.41333333 3.41333333 6.82666667 6.82666667 6.82666666h143.36c3.41333333 0 6.82666667-3.41333333 6.82666667-6.82666666V581.7837037c0-3.41333333-3.41333333-6.82666667-6.82666667-6.82666667h-143.36z"
    p-id="3326"></path>
  <path d="M471.04 400.87703703h85.33333333v163.84h-85.33333333z" p-id="3327"></path>
  <path d="M307.2 523.75703703h413.01333333v85.33333334H307.2zM307.2 888.9837037h413.01333333v85.33333333H307.2z"
    p-id="3328"></path>
</svg>