<?xml version="1.0" standalone="no"?><!DOCTYPE svg PUBLIC "-//W3C//DTD SVG 1.1//EN" "http://www.w3.org/Graphics/SVG/1.1/DTD/svg11.dtd"><svg t="1636818283937" class="icon" viewBox="0 0 1024 1024" version="1.1" xmlns="http://www.w3.org/2000/svg" p-id="3119" xmlns:xlink="http://www.w3.org/1999/xlink" width="200" height="200"><defs><style type="text/css"></style></defs><path d="M950.242319 512a441.804058 441.804058 0 0 0-13.356522-108.929855l55.503768-84.146087L918.78029 192.927536l-100.173913 5.936232a439.726377 439.726377 0 0 0-188.623768-108.336232L584.570435 0H438.242319l-44.521739 89.933913a438.53913 438.53913 0 0 0-188.772174 109.078261L104.774493 192.927536 31.610435 319.666087l55.652174 83.404058a422.808116 422.808116 0 0 0 0 219.343768L31.610435 704.333913 104.774493 831.072464l100.173913-5.936232a438.53913 438.53913 0 0 0 188.772174 108.929855l44.521739 89.933913h146.328116l44.521739-89.933913A438.093913 438.093913 0 0 0 818.161159 824.987826l100.173913 5.936232 73.164058-126.590145-55.503768-84.146087a436.758261 436.758261 0 0 0 14.84058-108.187826zM511.406377 804.507826A292.507826 292.507826 0 1 1 804.062609 512a292.35942 292.35942 0 0 1-292.656232 292.507826z m-114.124058-356.173913v128.074203l111.155942 64.25971 111.304348-63.517681v-128.816232l-108.336232-64.25971z" p-id="3120"></path></svg>