<?xml version="1.0" standalone="no"?>
<!DOCTYPE svg PUBLIC "-//W3C//DTD SVG 1.1//EN" "http://www.w3.org/Graphics/SVG/1.1/DTD/svg11.dtd"><svg t="1637911305836"
  class="icon" viewBox="0 0 1067 1024" version="1.1" xmlns="http://www.w3.org/2000/svg" p-id="3795"
  xmlns:xlink="http://www.w3.org/1999/xlink" width="133.375" height="128">
  <defs>
    <style type="text/css"></style>
  </defs>
  <path
    d="M93.658537 608.780488c0 229.00761 187.610537 415.219512 418.341463 415.219512s418.341463-186.417951 418.341463-415.219512C930.341463 379.772878 742.730927 193.560976 512 193.560976S93.658537 379.772878 93.658537 608.780488z m418.341463-340.729756c189.271415 0 343.296 152.875707 343.296 340.729756S701.271415 949.510244 512 949.510244c-189.271415 0-343.296-152.875707-343.296-340.729756 0-188.066341 154.024585-340.729756 343.296-340.729756zM112.184195 118.634146C52.161561 118.634146 2.897171 165.794341 0 225.155122v11.582439A112.003122 112.003122 0 0 0 56.088976 328.366829a112.452683 112.452683 0 0 0 112.390244 0C203.257756 308.305171 224.780488 271.278829 224.780488 231.149268 224.574439 168.897561 174.279805 118.634146 112.184195 118.634146z"
    p-id="3796"></path>
  <path
    d="M799.219512 202.926829a84.292683 84.292683 0 1 0 168.585366 0 84.292683 84.292683 0 0 0-168.585366 0zM961.560976 53.073171a53.073171 53.073171 0 1 0 106.146341 0 53.073171 53.073171 0 0 0-106.146341 0zM342.627902 115.56839a41.940293 41.940293 0 0 0 21.123122-36.270829c0-15.047805-8.07961-28.846829-21.123122-36.270829a42.883122 42.883122 0 0 0-42.252487 0 41.940293 41.940293 0 0 0-21.123122 36.277073c0 15.035317 8.073366 28.846829 21.123122 36.264585a42.883122 42.883122 0 0 0 42.252487 0z m-60.066341 523.239025c24.438634 10.09639 39.561366 18.138537 45.149659 23.907902 5.806829 5.975415 8.491707 12.156878 8.491707 18.750439 0 7.623805-3.515317 14.017561-10.764488 18.962732-7.249171 4.945171-18.019902 7.417756-32.312195 7.417756-25.269073 0-47.634732-8.241951-67.515317-24.526049v52.348878C243.624585 744.73522 266.614634 749.268293 294.774634 749.268293c30.86361 0 54.471805-6.181463 71.242927-18.544391 16.78361-12.362927 25.069268-30.295415 25.069268-53.58517 0-16.071805-4.558049-29.883317-13.674146-41.422049-9.116098-11.538732-25.88722-22.665366-50.325854-32.967805-20.917073-9.07239-33.966829-16.284098-39.149268-21.641366-5.382244-5.357268-7.867317-11.132878-7.867317-17.52039 0-7.829854 3.933659-14.217366 11.601171-18.956488 7.661268-4.745366 18.019902-7.005659 30.857365-7.005658 22.165854 0 41.422049 5.557073 57.993366 16.689951v-49.045854c-16.359024-6.181463-36.451902-9.272195-60.478439-9.272195-28.578341 0-51.774439 6.387512-69.176195 18.956488C233.478244 527.522341 224.780488 545.24878 224.780488 567.914146c0.206049 31.11961 19.262439 54.615415 57.781073 70.893269z m202.35239 9.684292h80.771122v-42.658341H484.913951V542.982244h87.814244V500.323902H432.515122v244.617366h52.398829V648.491707z m205.243317 100.570537c24.438634 0 44.737561-8.035902 60.478439-24.113951 15.734634-16.071805 23.608195-36.476878 23.608195-61.002927 0-22.459317-6.006634-40.797659-18.225951-54.81522-12.013268-14.011317-28.578341-21.016976-49.083317-21.016975-22.990049 0-40.385561 8.866341-52.199024 26.786341h-1.030244c0-23.489561 5.594537-42.652098 16.983414-57.287805 11.388878-14.835512 26.51161-22.253268 45.355708-22.253268 14.70439 0 28.378537 3.496585 40.803902 10.508488v-43.070439c-10.770732-4.327024-25.269073-6.593561-43.907122-6.593561-34.59122 0-61.514927 12.981073-80.983414 38.743414-19.468488 25.756098-29.202732 59.348293-29.202732 100.776586 0 35.234341 7.45522 62.851122 22.371902 83.043902 15.322537 20.199024 36.864 30.295415 65.030244 30.295415z m-25.269073-111.90322c6.212683-7.211707 14.498341-10.926829 24.850732-10.926829 22.790244 0 34.179122 13.811512 34.179122 41.222244 0 12.156878-3.109463 22.459317-9.116098 30.501463-6.006634 8.035902-14.292293 12.156878-24.850731 12.156878-10.358634 0-18.638049-4.327024-25.063025-13.187121-6.418732-8.866341-9.528195-19.580878-9.528195-32.156098 0.212293-11.326439 3.315512-20.398829 9.528195-27.610537z"
    p-id="3797"></path>
</svg>