<?xml version="1.0" standalone="no"?><!DOCTYPE svg PUBLIC "-//W3C//DTD SVG 1.1//EN" "http://www.w3.org/Graphics/SVG/1.1/DTD/svg11.dtd"><svg t="1636818404271" class="icon" viewBox="0 0 1399 1024" version="1.1" xmlns="http://www.w3.org/2000/svg" p-id="9775" xmlns:xlink="http://www.w3.org/1999/xlink" width="273.2421875" height="200"><defs><style type="text/css"></style></defs><path d="M472.689751 203.779356a56.3705 56.3705 0 0 0-81.455372 0 439.408044 439.408044 0 0 0 0 616.693264 53.551975 53.551975 0 0 0 40.868612 17.474855 52.706417 52.706417 0 0 0 40.58676-17.474855 56.3705 56.3705 0 0 0 0-81.455371 326.948897 326.948897 0 0 1 0-453.782521 56.3705 56.3705 0 0 0 0-81.455372zM699.581012 338.222997a171.648171 171.648171 0 0 0-174.466696 174.748549 174.748548 174.748548 0 0 0 349.215244 0 171.648171 171.648171 0 0 0-174.748548-174.748549z m0 232.810163a56.3705 56.3705 0 0 1-58.061615-58.061614 58.343467 58.343467 0 1 1 116.405082 0 56.3705 56.3705 0 0 1-58.343467 57.216057zM1008.209496 203.779356a56.3705 56.3705 0 0 0-81.455371 81.455372 326.948897 326.948897 0 0 1 0 453.782521 56.3705 56.3705 0 0 0 0 81.455371 52.706417 52.706417 0 0 0 40.586759 17.474855 53.551975 53.551975 0 0 0 40.868612-17.474855 439.408044 439.408044 0 0 0 0-616.693264z" p-id="9776"></path><path d="M1194.232145 23.393757a56.3705 56.3705 0 0 0-81.455372 0 56.3705 56.3705 0 0 0 0 81.455372 579.206882 579.206882 0 0 1 0 820.190768 56.3705 56.3705 0 0 0 0 81.455372 52.424565 52.424565 0 0 0 40.868612 17.474855 105.130982 105.130982 0 0 0 40.58676-11.555953 698.712341 698.712341 0 0 0 0-989.020414zM286.667103 98.930227a56.3705 56.3705 0 0 0 0-81.455372 56.3705 56.3705 0 0 0-81.455372 0 698.430489 698.430489 0 0 0 0 989.020414 51.86086 51.86086 0 0 0 40.586759 17.474855 52.706417 52.706417 0 0 0 40.868613-17.474855 56.3705 56.3705 0 0 0 0-81.455372 586.535047 586.535047 0 0 1 0-826.10967z" p-id="9777"></path></svg>