<?xml version="1.0" standalone="no"?>
<!DOCTYPE svg PUBLIC "-//W3C//DTD SVG 1.1//EN" "http://www.w3.org/Graphics/SVG/1.1/DTD/svg11.dtd"><svg t="1637905466823"
  class="icon" viewBox="0 0 1024 1024" version="1.1" xmlns="http://www.w3.org/2000/svg" p-id="4047"
  xmlns:xlink="http://www.w3.org/1999/xlink" width="128" height="128">
  <defs>
    <style type="text/css"></style>
  </defs>
  <path
    d="M149.27644445 206.16533333H59.16444445c-31.40266667 0-56.88888889-25.48622222-56.8888889-56.88888888V59.16444445c0-31.40266667 25.48622222-56.88888889 56.8888889-56.8888889h90.112c31.40266667 0 56.88888889 25.48622222 56.88888888 56.8888889v90.112c0 31.40266667-25.48622222 56.88888889-56.88888888 56.88888888zM421.09155555 206.16533333h-90.112c-31.40266667 0-56.88888889-25.48622222-56.88888888-56.88888888V59.16444445c0-31.40266667 25.48622222-56.88888889 56.88888888-56.8888889h90.112c31.40266667 0 56.88888889 25.48622222 56.8888889 56.8888889v90.112c0 31.40266667-25.48622222 56.88888889-56.8888889 56.88888888zM695.06844445 206.16533333h-90.112c-31.40266667 0-56.88888889-25.48622222-56.8888889-56.88888888V59.16444445c0-31.40266667 25.48622222-56.88888889 56.8888889-56.8888889h90.112c31.40266667 0 56.88888889 25.48622222 56.88888888 56.8888889v90.112c0 31.40266667-25.48622222 56.88888889-56.88888888 56.88888888zM964.83555555 206.16533333h-90.112c-31.40266667 0-56.88888889-25.48622222-56.88888888-56.88888888V59.16444445c0-31.40266667 25.48622222-56.88888889 56.88888888-56.8888889H964.83555555c31.40266667 0 56.88888889 25.48622222 56.8888889 56.8888889v90.112c0 31.40266667-25.48622222 56.88888889-56.8888889 56.88888888zM149.27644445 477.98044445H59.16444445c-31.40266667 0-56.88888889-25.48622222-56.8888889-56.8888889v-90.112c0-31.40266667 25.48622222-56.88888889 56.8888889-56.88888888h90.112c31.40266667 0 56.88888889 25.48622222 56.88888888 56.88888888v90.112c0 31.40266667-25.48622222 56.88888889-56.88888888 56.8888889zM421.09155555 477.98044445h-90.112c-31.40266667 0-56.88888889-25.48622222-56.88888888-56.8888889v-90.112c0-31.40266667 25.48622222-56.88888889 56.88888888-56.88888888h90.112c31.40266667 0 56.88888889 25.48622222 56.8888889 56.88888888v90.112c0 31.40266667-25.48622222 56.88888889-56.8888889 56.8888889zM695.06844445 477.98044445h-90.112c-31.40266667 0-56.88888889-25.48622222-56.8888889-56.8888889v-90.112c0-31.40266667 25.48622222-56.88888889 56.8888889-56.88888888h90.112c31.40266667 0 56.88888889 25.48622222 56.88888888 56.88888888v90.112c0 31.40266667-25.48622222 56.88888889-56.88888888 56.8888889zM964.83555555 477.98044445h-90.112c-31.40266667 0-56.88888889-25.48622222-56.88888888-56.8888889v-90.112c0-31.40266667 25.48622222-56.88888889 56.88888888-56.88888888H964.83555555c31.40266667 0 56.88888889 25.48622222 56.8888889 56.88888888v90.112c0 31.40266667-25.48622222 56.88888889-56.8888889 56.8888889zM149.27644445 749.90933333H59.16444445c-31.40266667 0-56.88888889-25.48622222-56.8888889-56.88888888v-90.112c0-31.40266667 25.48622222-56.88888889 56.8888889-56.8888889h90.112c31.40266667 0 56.88888889 25.48622222 56.88888888 56.8888889v90.112c0 31.40266667-25.48622222 56.88888889-56.88888888 56.88888888zM421.09155555 749.90933333h-90.112c-31.40266667 0-56.88888889-25.48622222-56.88888888-56.88888888v-90.112c0-31.40266667 25.48622222-56.88888889 56.88888888-56.8888889h90.112c31.40266667 0 56.88888889 25.48622222 56.8888889 56.8888889v90.112c0 31.40266667-25.48622222 56.88888889-56.8888889 56.88888888zM695.06844445 749.90933333h-90.112c-31.40266667 0-56.88888889-25.48622222-56.8888889-56.88888888v-90.112c0-31.40266667 25.48622222-56.88888889 56.8888889-56.8888889h90.112c31.40266667 0 56.88888889 25.48622222 56.88888888 56.8888889v90.112c0 31.40266667-25.48622222 56.88888889-56.88888888 56.88888888zM964.83555555 749.90933333h-90.112c-31.40266667 0-56.88888889-25.48622222-56.88888888-56.88888888v-90.112c0-31.40266667 25.48622222-56.88888889 56.88888888-56.8888889H964.83555555c31.40266667 0 56.88888889 25.48622222 56.8888889 56.8888889v90.112c0 31.40266667-25.48622222 56.88888889-56.8888889 56.88888888zM149.27644445 1021.72444445H59.16444445c-31.40266667 0-56.88888889-25.48622222-56.8888889-56.8888889v-90.112c0-31.40266667 25.48622222-56.88888889 56.8888889-56.88888888h90.112c31.40266667 0 56.88888889 25.48622222 56.88888888 56.88888888V964.83555555c0 31.40266667-25.48622222 56.88888889-56.88888888 56.8888889zM421.09155555 1021.72444445h-90.112c-31.40266667 0-56.88888889-25.48622222-56.88888888-56.8888889v-90.112c0-31.40266667 25.48622222-56.88888889 56.88888888-56.88888888h90.112c31.40266667 0 56.88888889 25.48622222 56.8888889 56.88888888V964.83555555c0 31.40266667-25.48622222 56.88888889-56.8888889 56.8888889zM695.06844445 1021.72444445h-90.112c-31.40266667 0-56.88888889-25.48622222-56.8888889-56.8888889v-90.112c0-31.40266667 25.48622222-56.88888889 56.8888889-56.88888888h90.112c31.40266667 0 56.88888889 25.48622222 56.88888888 56.88888888V964.83555555c0 31.40266667-25.48622222 56.88888889-56.88888888 56.8888889zM964.83555555 1021.72444445h-90.112c-31.40266667 0-56.88888889-25.48622222-56.88888888-56.8888889v-90.112c0-31.40266667 25.48622222-56.88888889 56.88888888-56.88888888H964.83555555c31.40266667 0 56.88888889 25.48622222 56.8888889 56.88888888V964.83555555c0 31.40266667-25.48622222 56.88888889-56.8888889 56.8888889z"
    p-id="4048"></path>
</svg>