<?xml version="1.0" standalone="no"?>
<!DOCTYPE svg PUBLIC "-//W3C//DTD SVG 1.1//EN" "http://www.w3.org/Graphics/SVG/1.1/DTD/svg11.dtd"><svg t="1637905487194"
  class="icon" viewBox="0 0 1024 1024" version="1.1" xmlns="http://www.w3.org/2000/svg" p-id="3172"
  xmlns:xlink="http://www.w3.org/1999/xlink" width="128" height="128">
  <defs>
    <style type="text/css"></style>
  </defs>
  <path
    d="M375.69422222 478.09422222H104.67555555c-56.54755555 0-102.4-45.85244445-102.4-102.4V104.67555555c0-56.54755555 45.85244445-102.4 102.4-102.4h271.01866667c56.54755555 0 102.4 45.85244445 102.4 102.4v271.01866667c0 56.54755555-45.85244445 102.4-102.4 102.4zM919.32444445 478.09422222H648.41955555c-56.54755555 0-102.4-45.85244445-102.4-102.4V104.67555555c0-56.54755555 45.85244445-102.4 102.4-102.4H919.32444445c56.54755555 0 102.4 45.85244445 102.4 102.4v271.01866667c0 56.54755555-45.73866667 102.4-102.4 102.4zM375.69422222 1021.72444445H104.67555555c-56.54755555 0-102.4-45.85244445-102.4-102.4V648.41955555c0-56.54755555 45.85244445-102.4 102.4-102.4h271.01866667c56.54755555 0 102.4 45.85244445 102.4 102.4V919.32444445c0 56.66133333-45.85244445 102.4-102.4 102.4zM919.32444445 1021.72444445H648.41955555c-56.54755555 0-102.4-45.85244445-102.4-102.4V648.41955555c0-56.54755555 45.85244445-102.4 102.4-102.4H919.32444445c56.54755555 0 102.4 45.85244445 102.4 102.4V919.32444445c0 56.66133333-45.73866667 102.4-102.4 102.4z"
    p-id="3173"></path>
</svg>