<?xml version="1.0" standalone="no"?>
<!DOCTYPE svg PUBLIC "-//W3C//DTD SVG 1.1//EN" "http://www.w3.org/Graphics/SVG/1.1/DTD/svg11.dtd"><svg t="1637905479550"
  class="icon" viewBox="0 0 1024 1024" version="1.1" xmlns="http://www.w3.org/2000/svg" p-id="3030"
  xmlns:xlink="http://www.w3.org/1999/xlink" width="128" height="128">
  <defs>
    <style type="text/css"></style>
  </defs>
  <path
    d="M245.48693333 312.00142222H70.43982222c-37.70595555 0-68.26666667-30.56071111-68.26666667-68.26666667V68.68764445c0-37.70595555 30.56071111-68.26666667 68.26666667-68.26666667h175.03573333c37.70595555 0 68.26666667 30.56071111 68.26666667 68.26666667v175.03573333c0.01137778 37.70595555-30.54933333 68.27804445-68.25528889 68.27804444z m354.22435556 0H424.67555555c-37.70595555 0-68.26666667-30.56071111-68.26666666-68.26666667V68.68764445c0-37.70595555 30.56071111-68.26666667 68.26666666-68.26666667h175.03573334c37.70595555 0 68.26666667 30.56071111 68.26666666 68.26666667v175.03573333c0 37.70595555-30.56071111 68.27804445-68.26666666 68.27804444z m354.22435556 0H778.89991111c-37.70595555 0-68.26666667-30.56071111-68.26666666-68.26666667V68.68764445c0-37.70595555 30.56071111-68.26666667 68.26666666-68.26666667h175.03573334c37.70595555 0 68.26666667 30.56071111 68.26666666 68.26666667v175.03573333c0 37.70595555-30.56071111 68.27804445-68.26666666 68.27804444zM245.48693333 666.61262222H70.43982222c-37.70595555 0-68.26666667-30.56071111-68.26666667-68.26666667V423.29884445c0-37.70595555 30.56071111-68.26666667 68.26666667-68.26666667h175.03573333c37.70595555 0 68.26666667 30.56071111 68.26666667 68.26666667v175.03573333c0.01137778 37.70595555-30.54933333 68.27804445-68.25528889 68.27804444z m354.22435556 0H424.67555555c-37.70595555 0-68.26666667-30.56071111-68.26666666-68.26666667V423.29884445c0-37.70595555 30.56071111-68.26666667 68.26666666-68.26666667h175.03573334c37.70595555 0 68.26666667 30.56071111 68.26666666 68.26666667v175.03573333c0 37.70595555-30.56071111 68.27804445-68.26666666 68.27804444z m354.22435556 0H778.89991111c-37.70595555 0-68.26666667-30.56071111-68.26666666-68.26666667V423.29884445c0-37.70595555 30.56071111-68.26666667 68.26666666-68.26666667h175.03573334c37.70595555 0 68.26666667 30.56071111 68.26666666 68.26666667v175.03573333c0 37.70595555-30.56071111 68.27804445-68.26666666 68.27804444zM245.48693333 1021.22382222H70.43982222c-37.70595555 0-68.26666667-30.56071111-68.26666667-68.26666667V777.91004445c0-37.70595555 30.56071111-68.26666667 68.26666667-68.26666667h175.03573333c37.70595555 0 68.26666667 30.56071111 68.26666667 68.26666667v175.03573333c0.01137778 37.71733333-30.54933333 68.27804445-68.25528889 68.27804444z m354.22435556 0H424.67555555c-37.70595555 0-68.26666667-30.56071111-68.26666666-68.26666667V777.91004445c0-37.70595555 30.56071111-68.26666667 68.26666666-68.26666667h175.03573334c37.70595555 0 68.26666667 30.56071111 68.26666666 68.26666667v175.03573333c0 37.71733333-30.56071111 68.27804445-68.26666666 68.27804444z m354.22435556 0H778.89991111c-37.70595555 0-68.26666667-30.56071111-68.26666666-68.26666667V777.91004445c0-37.70595555 30.56071111-68.26666667 68.26666666-68.26666667h175.03573334c37.70595555 0 68.26666667 30.56071111 68.26666666 68.26666667v175.03573333c0 37.71733333-30.56071111 68.27804445-68.26666666 68.27804444z"
    p-id="3031"></path>
</svg>