<?xml version="1.0" standalone="no"?>
<!DOCTYPE svg PUBLIC "-//W3C//DTD SVG 1.1//EN" "http://www.w3.org/Graphics/SVG/1.1/DTD/svg11.dtd"><svg t="1625884954933"
  class="icon" viewBox="0 0 1024 1024" version="1.1" xmlns="http://www.w3.org/2000/svg" p-id="3825" width="64"
  height="64" xmlns:xlink="http://www.w3.org/1999/xlink">
  <defs>
    <style type="text/css"></style>
  </defs>
  <path
    d="M846.154276 685.280627v-135.381305a129.798571 129.798571 0 0 0-126.541976-127.007204h-169.342938v-93.04557a162.829748 162.829748 0 0 0 127.007203-160.50361 169.342938 169.342938 0 0 0-338.685876 0 162.829748 162.829748 0 0 0 127.007204 160.50361v93.04557H296.254954a129.798571 129.798571 0 0 0-126.541976 127.007204v135.381305A162.829748 162.829748 0 0 0 42.705775 845.784236a169.342938 169.342938 0 1 0 338.220648 0 162.829748 162.829748 0 0 0-126.541976-160.503609v-135.381305a39.544367 39.544367 0 0 1 41.870507-42.335735h423.357346a39.544367 39.544367 0 0 1 41.870507 42.335735v135.381305a162.829748 162.829748 0 0 0-126.541976 160.503609 169.342938 169.342938 0 1 0 338.220649 0 162.829748 162.829748 0 0 0-127.007204-160.503609zM296.254954 845.784236A79.553963 79.553963 0 0 1 212.048713 930.455705a80.019191 80.019191 0 0 1-84.671469-84.671469 80.019191 80.019191 0 0 1 84.671469-84.671469 79.553963 79.553963 0 0 1 84.206241 84.671469zM507.933627 253.54918a79.553963 79.553963 0 0 1-84.671469-84.206242A80.019191 80.019191 0 0 1 507.933627 84.671469a80.019191 80.019191 0 0 1 84.671469 84.671469A79.553963 79.553963 0 0 1 507.933627 253.54918zM803.818541 930.455705a79.553963 79.553963 0 0 1-84.206241-84.671469 79.553963 79.553963 0 0 1 84.206241-84.671469 80.019191 80.019191 0 0 1 84.67147 84.671469A80.019191 80.019191 0 0 1 803.818541 930.455705z"
    p-id="3826"></path>
</svg>