<?xml version="1.0" standalone="no"?>
<!DOCTYPE svg PUBLIC "-//W3C//DTD SVG 1.1//EN" "http://www.w3.org/Graphics/SVG/1.1/DTD/svg11.dtd"><svg t="1637905419544"
  class="icon" viewBox="0 0 1024 1024" version="1.1" xmlns="http://www.w3.org/2000/svg" p-id="3463"
  xmlns:xlink="http://www.w3.org/1999/xlink" width="128" height="128">
  <defs>
    <style type="text/css"></style>
  </defs>
  <path
    d="M987.035771 323.460781L696.057887 7.07215801A20.42824201 20.42824201 0 0 0 678.619144 0.09666H96.165128A65.270724 65.270724 0 0 0 30.894404 65.367384v893.361892a65.270724 65.270724 0 0 0 65.270724 65.270724H927.744044a65.270724 65.270724 0 0 0 65.270724-65.270724V337.910025a21.922991 21.922991 0 0 0-5.978997-14.449244zM699.04738599 498.346461L479.319224 716.579873a40.856484 40.856484 0 0 1-27.901989 11.459746 39.36173401 39.36173401 0 0 1-27.90198901-11.459746l-125.55894899-125.558949a39.36173401 39.36173401 0 0 1 55.80397699-55.80397801l99.64996101 99.64996 191.826173-192.32442299A39.36173401 39.36173401 0 0 1 699.04738599 498.346461z m153.959188-159.938186h-168.90668199a20.926492 20.926492 0 0 1-20.926492-20.926492V149.571601a20.926492 20.926492 0 0 1 35.87398599-14.947494l168.40843301 168.906682a20.926492 20.926492 0 0 1-14.44924499 34.877486z"
    p-id="3464"></path>
</svg>