<?xml version="1.0" standalone="no"?>
<!DOCTYPE svg PUBLIC "-//W3C//DTD SVG 1.1//EN" "http://www.w3.org/Graphics/SVG/1.1/DTD/svg11.dtd"><svg t="1625884930918"
  class="icon" viewBox="0 0 1024 1024" version="1.1" xmlns="http://www.w3.org/2000/svg" p-id="2745" width="64"
  height="64" xmlns:xlink="http://www.w3.org/1999/xlink">
  <defs>
    <style type="text/css"></style>
  </defs>
  <path
    d="M493.901494 608.29608a32.121245 32.121245 0 0 0 0-6.022733V361.364008a40.151556 40.151556 0 0 0-80.303113 0v240.909339a33.325792 33.325792 0 0 0 0 6.022733 140.530448 140.530448 0 1 0 77.492504 0z"
    p-id="2746"></path>
  <path
    d="M615.159194 510.326282A142.939541 142.939541 0 0 0 617.969803 481.818677V160.606226a160.606226 160.606226 0 0 0-321.212451 0v321.212451a142.939541 142.939541 0 0 0 2.810609 28.507605A281.060895 281.060895 0 1 0 738.424473 742.803794a281.060895 281.060895 0 0 0-123.265279-232.477512zM457.363577 983.713133a240.909339 240.909339 0 0 1-124.469825-446.886823l13.250014-8.030312-4.015156-14.45456A115.636483 115.636483 0 0 1 336.908908 481.818677V160.606226a120.454669 120.454669 0 0 1 240.909339 0v321.212451a115.636483 115.636483 0 0 1-5.219703 32.522761l-4.015155 14.45456 13.250013 8.030312A240.909339 240.909339 0 0 1 457.363577 983.713133zM767.333593 20.075778a80.303113 80.303113 0 1 0 80.303113 80.303113 80.303113 80.303113 0 0 0-80.303113-80.303113z m0 120.45467a40.151556 40.151556 0 1 1 40.151557-40.151557 40.151556 40.151556 0 0 1-40.151557 40.151557z"
    p-id="2747"></path>
</svg>