<?xml version="1.0" standalone="no"?><!DOCTYPE svg PUBLIC "-//W3C//DTD SVG 1.1//EN" "http://www.w3.org/Graphics/SVG/1.1/DTD/svg11.dtd"><svg t="1629708215121" class="icon" viewBox="0 0 1026 1024" version="1.1" xmlns="http://www.w3.org/2000/svg" p-id="3120" xmlns:xlink="http://www.w3.org/1999/xlink" width="200.390625" height="200"><defs><style type="text/css"></style></defs><path d="M984.939749 0H41.279584A41.279584 41.279584 0 0 0 0 41.279584v692.875596a41.279584 41.279584 0 0 0 41.279584 41.279584h429.070943v166.006068H319.140009a41.279584 41.279584 0 0 0 0 82.559168h388.975003a41.279584 41.279584 0 0 0 0-82.559168H552.909695V775.434764h432.030054a41.279584 41.279584 0 0 0 41.279583-41.279584V41.279584A41.279584 41.279584 0 0 0 984.939749 0z m-41.279584 693.023552H82.411212V82.411212h861.248953z" p-id="3121"></path><path d="M201.811299 555.72085a41.427539 41.427539 0 0 0 58.146511-4.734576L355.093195 438.096229l170.000867 106.823869a41.279584 41.279584 0 0 0 52.968068-7.693686L751.613929 340.297645l5.770264 26.484034a41.279584 41.279584 0 0 0 80.635746-17.458749l-23.081057-106.084092a19.086259 19.086259 0 0 0-0.887733-3.698887 40.983673 40.983673 0 0 0-39.208207-29.5911H640.647305a41.279584 41.279584 0 1 0 0 82.411213h43.05505l-143.812744 164.082647L369.888744 349.32293a41.131628 41.131628 0 0 0-53.263979 8.137553l-118.364398 140.113856a41.279584 41.279584 0 0 0 3.550932 58.146511z" p-id="3122"></path></svg>