<?xml version="1.0" standalone="no"?><!DOCTYPE svg PUBLIC "-//W3C//DTD SVG 1.1//EN" "http://www.w3.org/Graphics/SVG/1.1/DTD/svg11.dtd"><svg t="1637896147685" class="icon" viewBox="0 0 1024 1024" version="1.1" xmlns="http://www.w3.org/2000/svg" p-id="3179" xmlns:xlink="http://www.w3.org/1999/xlink" width="128" height="128"><defs><style type="text/css"></style></defs><path d="M512 7.13007408C233.62249008 7.13007408 7.13007408 233.62249008 7.13007408 512c0 278.396928 226.492416 504.86992592 504.86992592 504.86992592 278.396928 0 504.86992592-226.47299792 504.86992592-504.86992592C1016.86992592 233.62249008 790.396928 7.13007408 512 7.13007408zM240.18579911 841.3305363C240.61299675 691.79194785 362.36432118 570.25422222 512 570.25422222c149.63567882 0 271.38700325 121.53772563 271.81420089 271.07631408A425.41116682 425.41116682 0 0 1 512 939.19762963a425.33349452 425.33349452 0 0 1-271.81420089-97.86709333zM395.49155555 376.07348148c0-64.25440711 52.25403733-116.50844445 116.50844445-116.50844445s116.50844445 52.25403733 116.50844445 116.50844445-52.25403733 116.50844445-116.50844445 116.50844444-116.50844445-52.25403733-116.50844445-116.50844444z m458.03353127 392.2450963c-24.54444563-113.63456948-104.43040237-206.74423467-209.96763497-249.83294103C681.9469843 482.98939733 706.18074075 432.36647822 706.18074075 376.07348148c0-107.07126045-87.1094803-194.18074075-194.18074075-194.18074073s-194.18074075 87.1094803-194.18074075 194.18074073c0 56.29299675 24.23375645 106.91591585 62.64270697 142.41215527-105.55665067 43.0692883-185.44260741 136.19837155-209.96763497 249.83294103A424.86746075 424.86746075 0 0 1 84.80237037 512c0-235.56065659 191.63697303-427.19762963 427.19762963-427.19762963s427.19762963 191.63697303 427.19762963 427.19762963c0 96.10004859-31.92331378 184.87948325-85.67254281 256.31857778z" p-id="3180"></path></svg>