<?xml version="1.0" standalone="no"?>
<!DOCTYPE svg PUBLIC "-//W3C//DTD SVG 1.1//EN" "http://www.w3.org/Graphics/SVG/1.1/DTD/svg11.dtd"><svg t="1637905238456"
  class="icon" viewBox="0 0 1024 1024" version="1.1" xmlns="http://www.w3.org/2000/svg" p-id="3030"
  xmlns:xlink="http://www.w3.org/1999/xlink" width="128" height="128">
  <defs>
    <style type="text/css"></style>
  </defs>
  <path
    d="M470.016 571.904l211.968-215.552c11.776-12.8 32.768-12.8 45.056-0.512l0.512 0.512 5.632 5.632c12.8 13.312 12.8 33.28 0 46.592L481.28 665.088c-11.776 12.8-32.768 12.8-45.056 0.512l-0.512-0.512L331.776 558.08c-12.8-13.312-12.8-33.28 0-46.592l5.632-5.632c11.776-12.8 32.768-12.8 45.056-0.512l0.512 0.512 64.512 66.048c6.144 6.656 15.872 6.656 22.528 0-0.512 0 0 0 0 0m401.408-94.208c0 183.808-122.88 357.376-297.472 424.448-39.936 15.36-83.968 15.36-123.392 0-174.08-67.584-297.472-240.128-297.472-424.448v-199.68c0-13.312 8.192-25.088 19.968-30.208l327.168-134.656c8.192-3.584 16.384-3.584 24.064 0l326.656 134.656c11.776 5.12 19.968 17.408 19.968 30.208v199.68h0.512zM500.224 27.648L97.28 193.536c-11.776 5.12-19.968 17.408-19.968 30.208v246.784c0 222.72 149.504 432.64 359.936 514.048 48.128 18.432 101.888 18.432 150.016 0 210.432-81.92 359.936-291.328 359.936-514.048V224.256c0-13.312-8.192-25.088-19.968-30.208L523.776 27.648c-7.168-2.56-16.384-2.56-23.552 0"
    p-id="3031"></path>
</svg>