<?xml version="1.0" standalone="no"?><!DOCTYPE svg PUBLIC "-//W3C//DTD SVG 1.1//EN" "http://www.w3.org/Graphics/SVG/1.1/DTD/svg11.dtd"><svg t="1629708190493" class="icon" viewBox="0 0 1160 1024" version="1.1" xmlns="http://www.w3.org/2000/svg" p-id="2864" xmlns:xlink="http://www.w3.org/1999/xlink" width="226.5625" height="200"><defs><style type="text/css"></style></defs><path d="M1119.573333 942.08h-122.88V409.6a409.6 409.6 0 0 0-819.2 0v532.48H40.96a40.96 40.96 0 0 0 0 81.92h1078.613333a40.96 40.96 0 0 0 0-81.92z m-204.8 0H259.413333V409.6a327.68 327.68 0 0 1 655.36 0z" p-id="2865"></path><path d="M723.626667 505.173333H553.096533l109.226667-168.891733a40.96 40.96 0 1 0-68.266667-44.509867l-150.186666 232.106667A40.96 40.96 0 0 0 477.866667 587.093333h166.7072l-118.237867 167.5264a40.96 40.96 0 1 0 66.901333 47.240534l163.84-232.106667A40.96 40.96 0 0 0 723.626667 505.173333z" p-id="2866"></path></svg>