<?xml version="1.0" standalone="no"?><!DOCTYPE svg PUBLIC "-//W3C//DTD SVG 1.1//EN" "http://www.w3.org/Graphics/SVG/1.1/DTD/svg11.dtd"><svg t="1637909820981" class="icon" viewBox="0 0 1024 1024" version="1.1" xmlns="http://www.w3.org/2000/svg" p-id="3828" xmlns:xlink="http://www.w3.org/1999/xlink" width="128" height="128"><defs><style type="text/css"></style></defs><path d="M395.49155555 447.92035555c0 64.34761387 52.16083058 116.50844445 116.50844445 116.50844445s116.50844445-52.16083058 116.50844445-116.50844445c0-39.70607787-38.56429511-112.15685405-116.50844445-211.45117582C434.05585067 335.76350151 395.49155555 408.21427769 395.49155555 447.92035555z m116.50844445 163.11182223c-90.08432925 0-163.11182222-73.02749298-163.11182222-163.11182223 0-60.06010311 54.3686656-155.20672427 163.11182222-285.44568888 108.74315662 130.23896462 163.11182222 225.38558578 163.11182222 285.44568888 0 90.08432925-73.02749298 163.11182222-163.11182222 163.11182223zM430.44408889 745.01688889c-27.74066062 0-58.6153984-9.92069405-92.9562624-29.19701618l-0.83303538-0.48933546C311.80353991 699.99802595 288.74651875 692.58808889 267.33226667 692.58808889s-44.47127325 7.40993707-69.32252445 22.74244836a23.30168889 23.30168889 0 1 1-24.46677333-39.6594745C205.33812338 656.05104071 236.65559325 645.98471111 267.33226667 645.98471111c30.53686329 0 61.71452302 9.97312285 93.36404195 29.41838222C388.46609635 690.9394944 411.82603947 698.41351111 430.44408889 698.41351111c18.71125618 0 42.205184-7.55557262 70.15555982-23.23178382l1.03692516-0.55341511c38.15651555-18.93262222 68.34967893-28.64360107 91.91933724-28.64360107 23.56965831 0 53.76864711 9.70515342 92.18148124 28.77758578 31.10775467 15.94418062 55.09101795 23.65121422 70.93034098 23.65121422 15.84514845 0 39.82258631-7.7070336 70.93034098-23.65121422a23.30168889 23.30168889 0 1 1 21.25114027 41.47700622C811.75875129 735.24765582 781.36752355 745.01688889 756.66773333 745.01688889s-55.09101795-9.76923307-91.91933724-28.64360107C632.49303325 700.35337671 608.31753102 692.58808889 593.55591111 692.58808889c-14.680064 0-38.68080355 7.68955733-70.67984782 23.53470578C488.73908907 735.1894016 458.03911395 745.01688889 430.44408889 745.01688889zM430.44408889 855.69991111c-27.74066062 0-58.6153984-9.92069405-92.9562624-29.19701618l-0.83303538-0.48933546C311.80353991 810.68104818 288.74651875 803.27111111 267.33226667 803.27111111s-44.47127325 7.40993707-69.32252445 22.74244836a23.30168889 23.30168889 0 1 1-24.46677333-39.65947449C205.33812338 766.73406293 236.65559325 756.66773333 267.33226667 756.66773333c30.53686329 0 61.71452302 9.97312285 93.36404195 29.41838222C388.46609635 801.62251662 411.82603947 809.09653333 430.44408889 809.09653333c18.71125618 0 42.205184-7.55557262 70.15555982-23.23178382l1.03692516-0.55341511c38.15651555-18.93262222 68.34967893-28.64360107 91.91933724-28.64360107 23.56965831 0 53.76864711 9.70515342 92.18148124 28.77758578 31.10775467 15.94418062 55.09101795 23.65121422 70.93034098 23.65121422 15.84514845 0 39.82258631-7.7070336 70.93034098-23.65121422a23.30168889 23.30168889 0 1 1 21.25114027 41.47700622C811.75875129 845.93067805 781.36752355 855.69991111 756.66773333 855.69991111s-55.09101795-9.76923307-91.91933724-28.64360106C632.49303325 811.03639893 608.31753102 803.27111111 593.55591111 803.27111111c-14.680064 0-38.68080355 7.68955733-70.67984782 23.53470578C488.73908907 845.87242382 458.03911395 855.69991111 430.44408889 855.69991111z" fill="#000000" p-id="3829"></path><path d="M593.55591111 879.0016m-46.60337778 0a46.60337778 46.60337778 0 1 0 93.20675556 0 46.60337778 46.60337778 0 1 0-93.20675556 0Z" fill="#000000" p-id="3830"></path><path d="M16.83911111 954.73208889m34.95253334 0l920.4167111 0q34.95253333 0 34.95253334 34.95253333l0 0q0 34.95253333-34.95253334 34.95253333l-920.4167111 0q-34.95253333 0-34.95253334-34.95253333l0 0q0-34.95253333 34.95253334-34.95253333Z" fill="#000000" p-id="3831"></path><path d="M890.65244445 966.38293333H133.34755555V436.26951111c0-209.12683235 169.52561209-378.65244445 378.65244445-378.65244444s378.65244445 169.52561209 378.65244445 378.65244444v530.11342222z m58.25422222 58.25422222V436.26951111c0-241.29481387-195.6118528-436.90666667-436.90666667-436.90666666S75.09333333 194.97469725 75.09333333 436.26951111v588.36764444h873.81333334z" fill="#000000" p-id="3832"></path></svg>