<?xml version="1.0" standalone="no"?>
<!DOCTYPE svg PUBLIC "-//W3C//DTD SVG 1.1//EN" "http://www.w3.org/Graphics/SVG/1.1/DTD/svg11.dtd"><svg t="1625884944793"
  class="icon" viewBox="0 0 1030 1024" version="1.1" xmlns="http://www.w3.org/2000/svg" p-id="3357" width="64.375"
  height="64" xmlns:xlink="http://www.w3.org/1999/xlink">
  <defs>
    <style type="text/css"></style>
  </defs>
  <path
    d="M737.726931 945.982119a279.277743 279.277743 0 0 1-88.05374 58.954435 170.816698 170.816698 0 0 1-182.909916-16.628174c-69.536001-61.221914-75.58261-151.16522-12.47113-240.730612a335.208874 335.208874 0 0 0 43.837913-95.612002 137.182437 137.182437 0 0 1-40.436696-11.337391C408.942579 698.449071 300.481534 809.933421 190.130923 794.816899a241.486438 241.486438 0 0 1-177.997046-171.950437 171.950437 171.950437 0 0 1 34.012175-180.642438C114.548314 379.112545 203.35788 382.891676 286.876664 454.695155a351.837049 351.837049 0 0 0 86.920001 51.396174 136.426611 136.426611 0 0 1 10.581566-47.239131c-58.954436-47.994957-170.816698-150.409394-159.85722-259.248351A241.864351 241.864351 0 0 1 387.779448 15.182279a170.816698 170.816698 0 0 1 182.15409 26.453913c66.134784 64.623131 65.756871 154.566437 0 241.108526a346.924179 346.924179 0 0 0-47.239132 86.920001 151.16522 151.16522 0 0 1 52.907827 13.226957c49.128696-63.489392 145.496524-166.281742 249.422613-157.211829a241.486438 241.486438 0 0 1 187.066959 160.235133 171.194611 171.194611 0 0 1-23.808522 182.15409c-63.867305 67.268523-153.810611 68.402262-241.108525 3.401217a346.546266 346.546266 0 0 0-91.454958-46.861218 137.938263 137.938263 0 0 1-12.093218 47.617044c63.867305 46.861218 165.525915 137.938263 160.613046 239.21896A209.363829 209.363829 0 0 1 737.726931 945.982119z m-309.132874-366.197745a29.855131 29.855131 0 0 1 37.791305-3.023304 82.385045 82.385045 0 0 0 59.332349 14.360696 29.099305 29.099305 0 0 1 23.430609 6.046608 30.98887 30.98887 0 0 1 11.715304 21.918957c5.290783 71.047653-56.686957 161.746785-57.06487 162.502611-26.076 37.791305-59.332349 106.949393 1.889565 160.990959 37.791305 34.390087 95.989914 15.872348 119.042611 6.046609a181.02035 181.02035 0 0 0 116.019306-139.449915c4.157044-86.542088-119.798437-176.863307-157.967655-202.561394a30.610957 30.610957 0 0 1-13.226956-20.785218 32.122609 32.122609 0 0 1 6.424521-23.808522 80.495479 80.495479 0 0 0 16.250261-65.756871 31.366783 31.366783 0 0 1 6.046609-24.564348 30.610957 30.610957 0 0 1 22.674783-11.715304c70.66974-3.023304 160.235133 62.355653 160.990959 63.111479 37.791305 27.20974 105.437741 62.355653 160.613046 4.157043a115.641393 115.641393 0 0 0 10.581565-118.664697 181.398264 181.398264 0 0 0-134.914958-121.310089c-70.66974-6.046609-155.700176 75.58261-211.631308 154.566437a30.610957 30.610957 0 0 1-20.407304 12.849044 30.98887 30.98887 0 0 1-23.430609-6.424522 80.117566 80.117566 0 0 0-70.291827-14.738609 30.233044 30.233044 0 0 1-37.791305-29.099305c0-70.66974 65.001044-157.589741 65.75687-158.345567 27.587653-37.791305 64.623131-103.926088 6.424522-160.613046-37.791305-37.791305-95.234088-21.163131-118.286784-12.849044a182.909916 182.909916 0 0 0-123.199654 133.403307c-7.180348 72.559305 79.739653 162.502611 156.078089 217.300003a30.610957 30.610957 0 0 1 7.558261 42.326261 80.495479 80.495479 0 0 0-10.959479 68.024349 29.855131 29.855131 0 0 1-4.534956 26.453913 30.610957 30.610957 0 0 1-24.186435 12.471131c-71.803479 0-160.235133-71.425566-161.368872-72.181392-34.768001-29.477218-100.902784-69.158088-159.85722-13.60487-37.791305 35.145914-24.942261 94.478262-17.761913 117.908871a181.398264 181.398264 0 0 0 128.112523 128.86835c79.36174 11.337391 180.264524-89.565393 226.74783-151.16522a10.203652 10.203652 0 0 1 2.645391-3.023304z m537.770269-31.744696z"
    p-id="3358"></path>
</svg>